/* XPM */
static char * coin3_xpm[] = {
"48 48 228 2",
"  	c #6D5A67",
". 	c #725B69",
"+ 	c #7D606C",
"@ 	c #7F616D",
"# 	c #7F606D",
"$ 	c #81646F",
"% 	c #856A73",
"& 	c #866B73",
"* 	c #826570",
"= 	c #715B68",
"- 	c #6C5A67",
"; 	c #85626F",
"> 	c #A86F7A",
", 	c #AA707B",
"' 	c #B68386",
") 	c #C09290",
"! 	c #C19390",
"~ 	c #BB8A8A",
"{ 	c #80646F",
"] 	c #6B5966",
"^ 	c #705B68",
"/ 	c #725C69",
"( 	c #775D6B",
"_ 	c #9A6A76",
": 	c #AB707B",
"< 	c #BB8A8B",
"[ 	c #C19490",
"} 	c #BF918F",
"| 	c #B88688",
"1 	c #BA898A",
"2 	c #B37E84",
"3 	c #B47F85",
"4 	c #B37E83",
"5 	c #BE8E8D",
"6 	c #B38A89",
"7 	c #8A6E75",
"8 	c #755F6B",
"9 	c #6F5B68",
"0 	c #6E5A67",
"a 	c #996976",
"b 	c #A56E79",
"c 	c #A66E7A",
"d 	c #A9707B",
"e 	c #C19290",
"f 	c #C29692",
"g 	c #C49A95",
"h 	c #C59C97",
"i 	c #C8A29B",
"j 	c #C39894",
"k 	c #C0928F",
"l 	c #BF928F",
"m 	c #B48687",
"n 	c #82656F",
"o 	c #946774",
"p 	c #9C6B77",
"q 	c #785E6B",
"r 	c #C29491",
"s 	c #896B74",
"t 	c #A36D79",
"u 	c #986976",
"v 	c #A46E79",
"w 	c #A36E79",
"x 	c #AD7C81",
"y 	c #B88C8B",
"z 	c #B88D8C",
"A 	c #B98E8C",
"B 	c #B88D8B",
"C 	c #B18285",
"D 	c #936774",
"E 	c #9B6A77",
"F 	c #81616E",
"G 	c #83626E",
"H 	c #82626E",
"I 	c #84636F",
"J 	c #886A73",
"K 	c #8B6E76",
"L 	c #876972",
"M 	c #79606C",
"N 	c #846670",
"O 	c #8B6E75",
"P 	c #8B6F76",
"Q 	c #8D7379",
"R 	c #8D7278",
"S 	c #8F777C",
"T 	c #8F767B",
"U 	c #8C7077",
"V 	c #896C74",
"W 	c #846972",
"X 	c #81626E",
"Y 	c #7E606D",
"Z 	c #AB717C",
"` 	c #B58084",
" .	c #BF918E",
"..	c #866771",
"+.	c #C19491",
"@.	c #C59B96",
"#.	c #C8A19A",
"$.	c #C39793",
"%.	c #BF908E",
"&.	c #AC737D",
"*.	c #BB898A",
"=.	c #B98789",
"-.	c #BA8789",
";.	c #BE8F8D",
">.	c #896D75",
",.	c #C1928F",
"'.	c #C0918F",
").	c #BC8B8B",
"!.	c #C39893",
"~.	c #BA8B8C",
"{.	c #BC8C8C",
"].	c #B8898A",
"^.	c #907278",
"/.	c #886B73",
"(.	c #7B626D",
"_.	c #BE8D8C",
":.	c #896B73",
"<.	c #C59A95",
"[.	c #C49894",
"}.	c #C8A099",
"|.	c #BD8D8D",
"1.	c #B98D8C",
"2.	c #C29390",
"3.	c #B78B8A",
"4.	c #B08185",
"5.	c #A7797F",
"6.	c #BA8E8C",
"7.	c #927D82",
"8.	c #927E83",
"9.	c #8F787D",
"0.	c #8C7177",
"a.	c #8E757A",
"b.	c #866C74",
"c.	c #886B74",
"d.	c #B98688",
"e.	c #CDADA5",
"f.	c #CEAEA6",
"g.	c #C9A39C",
"h.	c #C39491",
"i.	c #AF8687",
"j.	c #A88284",
"k.	c #A47B80",
"l.	c #826670",
"m.	c #7C616D",
"n.	c #C29490",
"o.	c #B78588",
"p.	c #C19592",
"q.	c #BF9290",
"r.	c #A98C8B",
"s.	c #97777C",
"t.	c #97767B",
"u.	c #7F6670",
"v.	c #79626D",
"w.	c #AE7D82",
"x.	c #BB928F",
"y.	c #BA918E",
"z.	c #BD9591",
"A.	c #BB8F8D",
"B.	c #B38386",
"C.	c #81636E",
"D.	c #7E616D",
"E.	c #90787D",
"F.	c #856972",
"G.	c #C9A49D",
"H.	c #BA8A8A",
"I.	c #B07981",
"J.	c #B27B82",
"K.	c #F5F5F5",
"L.	c #B47F84",
"M.	c #BD8E8D",
"N.	c #BB8B8B",
"O.	c #BD928F",
"P.	c #907379",
"Q.	c #8A6D75",
"R.	c #7C646E",
"S.	c #BA8E8D",
"T.	c #AA6F7B",
"U.	c #AF767F",
"V.	c #BD8D8C",
"W.	c #9CE4C7",
"X.	c #C49995",
"Y.	c #BF9994",
"Z.	c #866972",
"`.	c #8C6571",
" +	c #8B6571",
".+	c #8F56B3",
"++	c #6A5966",
"@+	c #6A5866",
"#+	c #745B69",
"$+	c #A36C78",
"%+	c #A36D78",
"&+	c #7F626E",
"*+	c #836972",
"=+	c #886C75",
"-+	c #8D737A",
";+	c #8D747A",
">+	c #8B6F77",
",+	c #856A72",
"'+	c #8D7479",
")+	c #876871",
"!+	c #846570",
"~+	c #856570",
"{+	c #83646F",
"]+	c #78606C",
"^+	c #745F6A",
"/+	c #C59C96",
"(+	c #A76F7A",
"_+	c #AD7C82",
":+	c #8C7379",
"<+	c #C7A099",
"[+	c #B68387",
"}+	c #B88588",
"|+	c #B08184",
"1+	c #80626E",
"2+	c #B17B81",
"3+	c #B07880",
"4+	c #AF787F",
"5+	c #B07980",
"6+	c #B27C82",
"7+	c #AD737D",
"8+	c #906974",
"9+	c #BC8F8D",
"0+	c #765D6A",
"a+	c #9A6976",
"b+	c #846470",
"c+	c #AE7E82",
"d+	c #735E6A",
"e+	c #B98788",
"        . + @ # $ % & & & & & & & & & & & & * =         . + @ # $ % & & & & % $ # @ + .         ",
"      - ; > , , ' ) ! ! ! ! ! ! ! ! ! ! ! ! ~ { ]     - ; > , , ' ) ! ! ! ! ) ' , , > ; -       ",
"^ / / ( _ : , , < [ ! ! ! ! } | 1 2 3 4 5 6 7 8 9 / / ( _ : , , < [ ! ! ! ! [ < , , : _ ( / = 0 ",
"a b b c d , , , ~ [ ! ! ! ! e f g h i j k l m n o b b c d , , , ~ [ ! ! ! ! [ ~ , , , d c b p q ",
", , , , , , , , ~ r ! ! ! ! ! ! ! ! ! ! ! ! ! s t : , , , , , , ~ r ! ! ! ! r ~ , , , , , , , # ",
"u v v v v v v w x y z A A z z B z y y y z A C @ D v v v v v v w x y z A A z y x w v v v v v E ( ",
"F G G G G G H I J K L M N O P Q R S T T U O V W X G G G G G H I J K L M N K O J I H G G G G F Y ",
", , , , , , Z `  .[ < ..C ! +.@.g #.#.#.$.e ! %.&., , , , , Z `  .! < ..C ! ! %.` Z , , , , , , ",
"~ ~ ~ ~ *.=.-.;.k A z >.A ! ! ! ! ,.,.,.! ! ! ) < ~ ~ ~ *.=.-.;.e } z >.A ! ! ! '.).~ ~ ~ ~ ~ ~ ",
"[ [ [ ! !.| ~.{.].^./.(.A ! ! ! ! ! ! ! ! ! ! ! [ [ [ ! !.| ~.{._.6 :.(.A ! ! ! ! [ [ [ [ [ [ [ ",
"! ! ! ! <.[.}.<.! ! |.s 1.2.! ! ! ! ! ! ! ! ! ! ! ! ! ! <.[.}.<.! ! |.s 1.2.! ! ! ! ! ! ! ! ! ! ",
"A z z B y y 3.y y z 4.X 5.z z z z z z z z z z A A z z B y y 3.y y z 4.X 5.z z z z z z z z z z 6.",
"..O P Q R S 7.8.9.0.a.b.c.O O O O O O O O K L M N O P Q R S 7.8.9.0.a.b.c.O O O O O O O O K L M ",
"d.! +.@.g i e.f.g.$.#.$.! ! ! ! ! ! ! ! ! ! ~ ..C ! +.@.g i e.f.g.$.#.$.! ! ! ! ! ! ! ! ! ! ~ * ",
"[ ! ! ! ! ,.k k ,.! ,.! ! ! ! ! ! [ ! ! r h.2.K A ! ! ! ! ,.k k ,.! ,.! ! ! ! ! ! [ ! ! r h.2.& ",
"! ! ! ! ! ! ! ! ! ! ! ! ! ! ! ! 5 *.;.|.i.j.k.l.A ! ! ! ! ! ! ! ! ! ! ! ! ! ! ! 5 *.;.|.i.j.k.m.",
"! ! ! ! ! ! ! ! ! ! ! ! ! ! ! n.< o.p.q.r.s.t.u.A 2.! ! ! ! ! ! ! ! ! ! ! ! ! n.< o.p.q.r.s.t.v.",
"w.z z z z z z z z z z A A z z B z A x.y.z.A.B.C.5.z z z z z z z z z z A A z z B z A x.y.z.A.B.D.",
"V O O O O O O O O K L M N O P Q R T E.8.7.S U F.c.O O O O O O O O K L M N O P Q R T E.8.7.S U F.",
"! ! ! ! ! ! ! ! ! ! ~ ..C ! +.@.g #.G.f.e.i g ! ! ! ! ! ! ! ! ! ! ! H...C ! +.@.g #.G.f.e.i g ! ",
"I.I.I.I.I.I.J.~ ! ! ! P A ! ! ! ! ,.,.k k K.K.K.K.K.K.L.4 |.M.N.O.P.Q.R.S.! ! ! ! ,.,.k k ,.! ! ",
": : , T.T.T.T.U.V.! ! O z ! ! ! ! ! ! ! W.K.K.K.K.K.K.K.j '.$.g.X.Y.m Z.1.! ! ! ! ! ! ! ! ! ! ! ",
"`. +a d , , , , ~ r ! K z 2.! ! ! ! ! .+K.K.K.K.K.K.K.K.K.! ! ! ! 2.! K z 2.! ! ! ! ! ! ! ! ! ! ",
"++@+#+o $+$+$+%+x y C X 5.z z z z z z K.W.K.K.K.K.K.K.K.K.y y z z z C X 5.z z z A A A 6.S.S.S.S.",
"&+W *+=+-+-+;+>+Q.Q V ,+c.O O O O O O O K.W.K.K.K.K.K.K.T T S R P '+V ,+c.K 7 )+!+~+{+]+^+^+^+^+",
"=.! ! $.#.#.#.g +./+! ! ! ! ! ! ! ! ! ! ! W.K.K.K.K.K.$.#.#.#.g +./+! ! ! ! ) ' , , (+; ]       ",
"[ ! ! ! ,.,.,.! ! ! ! ! ! ! } | 1 2 3 4 5 6 W.K.K.K.! ! ,.,.,.! ! ! ! ! ! ! [ < , , : _ ( / = 0 ",
"! ! ! ! ! ! ! ! ! ! ! ! ! ! e f g h i j k l m W.K.! ! ! ! ! ! ! ! ! ! ! ! ! [ ~ , , , d c b p q ",
"! ! ! ! ! ! ! ! ! ! ! ! ! ! ! ! ! ! ! ! ! ! ! K z 2.! ! ! ! ! ! ! ! ! ! ! ! r ~ , , , , , , , # ",
"_+y z z z z z z z z z A A z z B z y y y z A C X 5.B z z z z z z z z z A A z y x w v v v v v E ( ",
";+T U O O O O O O K L M N O P Q R S T T U O V % :+T U O O O O O O K L M N K O J I H G G G G F Y ",
"#.#.$.e ! ! ! ! ! ! H...C ! +.@.g #.#.#.$.e ! +.<+#.$.e ! ! ! ! ! ! H...C ! ! %.` Z , , , , , , ",
",.,.! ! r [+}+1 _.6 Q.R.S.! ! ! ! ,.,.,.! ! ! ! e ,.! ! r [+}+1 _.6 Q.R.S.! ! ! '.).~ ~ ~ ~ ~ ~ ",
"! ! ! ! /+$.#.g k l m Z.1.! ! ! ! ! ! ! ! ! ! ! ! ! ! ! /+$.#.g k l m Z.1.! ! ! ! [ [ [ [ [ [ [ ",
"! ! ! ! ! ! ! ! ! ! ! K z 2.! ! ! ! ! ! ! ! ! ! ! ! ! ! ! ! ! ! ! ! ! K z 2.! ! ! ! ! ! ! ! ! ! ",
"A z z B z y y y y 1.|+1+5.z z z z z z z z z z A A z z B z y y y y 1.|+1+5.z z z z z z z z z z 6.",
"..O P Q R S 7.8.9.0.a.b.c.O O O O O O O O K L M N O P Q R S 7.8.9.0.a.b.c.O O O O O O O O K L M ",
"d.! +.@.g i e.f.g.$.#.$.! ! ! ! ! ! ! ! ! ! ~ ..C ! +.@.g i e.f.g.$.#.$.! ! ! ! ! ! ! ! ! ! ~ * ",
"[ ! ! ! ! ,.k k ,.! ,.! ! ! ! ! ! [ ! ! r h.2.K A ! ! ! ! ,.k k ,.! ,.! ! ! ! ! ! [ ! ! r h.2.& ",
"! ! ! ! ! ! ! ! ! ! ! ! ! ! ! ! 5 *.;.|.i.j.k.l.A ! ! ! ! ! ! ! ! ! ! ! ! ! ! ! 5 *.;.|.i.j.k.m.",
"! ! ! ! ! ! ! ! ! ! ! ! ! ! ! n.< o.p.q.r.s.t.u.A 2.! ! ! ! ! ! ! ! ! ! ! ! ! n.< o.p.q.r.s.t.v.",
"w.z z z z z z z z z z A A z z B z A x.y.z.A.B.C.5.z z z z z z z z z z A A z z B z A x.y.z.A.B.D.",
"V O O O O O O O O K L M N O P Q R T E.8.7.S U F.c.O O O O O O O O K L M N O P Q R T E.8.7.S U F.",
"! ! ! ! ! ! ! ! ! ! ~ ..C ! +.@.g #.G.f.e.i g ! ! ! ! ! ! ! ! ! ! ! H...C ! +.@.g #.G.f.e.i g ! ",
"I.I.I.I.I.I.J.~ ! ! ! P A ! ! ! ~ 2+3+4+3+5+5+6+'.! '.L.4 |.M.N.O.P.Q.R.S.! ! ! ~ 2+3+4+3+5+5+I.",
": : , T.T.T.T.U.V.! ! O z ! ! V.U.T.T.T.T., : 7+%.! e p.j '.$.g.X.Y.m Z.1.! ! V.U.T.T.T.T., : : ",
" + +a d , , , , ~ [ ! O z ! [ ~ , , , , d a  +8+9+! ! ! ! ! ! ! ! ! ! O z ! [ ~ , , , , d a  + +",
"] ] 0+a+, , , , ` ! =.b+c+! k ` , , , , a+0+] d+6.! ! ! ! ! ! ! ! [ e+b+c+! k ` , , , , a+0+] ] "};
