/* XPM */
static char * coindiamond3_xpm[] = {
"48 48 664 2",
"  	c #6D5A67",
". 	c #725B69",
"+ 	c #7D606C",
"@ 	c #7F616D",
"# 	c #7F606D",
"$ 	c #81646F",
"% 	c #856A73",
"& 	c #866B73",
"* 	c #826570",
"= 	c #715B68",
"- 	c #6C5A67",
"; 	c #85626F",
"> 	c #A86F7A",
", 	c #AA707B",
"' 	c #B68386",
") 	c #C09290",
"! 	c #C19390",
"~ 	c #BB8A8A",
"{ 	c #80646F",
"] 	c #6B5966",
"^ 	c #705B68",
"/ 	c #725C69",
"( 	c #775D6B",
"_ 	c #9A6A76",
": 	c #AB707B",
"< 	c #BB8A8B",
"[ 	c #C19490",
"} 	c #BF918F",
"| 	c #B88688",
"1 	c #BA898A",
"2 	c #B37E84",
"3 	c #B47F85",
"4 	c #B37E83",
"5 	c #BE8E8D",
"6 	c #B38A89",
"7 	c #8A6E75",
"8 	c #755F6B",
"9 	c #6F5B68",
"0 	c #6E5A67",
"a 	c #996976",
"b 	c #A56E79",
"c 	c #A66E7A",
"d 	c #A9707B",
"e 	c #C19290",
"f 	c #C29692",
"g 	c #C49A95",
"h 	c #C59C97",
"i 	c #C8A29B",
"j 	c #C39894",
"k 	c #C0928F",
"l 	c #BF928F",
"m 	c #B48687",
"n 	c #82656F",
"o 	c #946774",
"p 	c #9C6B77",
"q 	c #785E6B",
"r 	c #C29491",
"s 	c #896B74",
"t 	c #A36D79",
"u 	c #986976",
"v 	c #A46E79",
"w 	c #A36E79",
"x 	c #AD7C81",
"y 	c #B88C8B",
"z 	c #B88D8C",
"A 	c #B98E8C",
"B 	c #B88D8B",
"C 	c #B18285",
"D 	c #936774",
"E 	c #9B6A77",
"F 	c #81616E",
"G 	c #83626E",
"H 	c #82626E",
"I 	c #84636F",
"J 	c #886A73",
"K 	c #8B6E76",
"L 	c #876972",
"M 	c #79606C",
"N 	c #846670",
"O 	c #8B6E75",
"P 	c #8B6F76",
"Q 	c #8D7379",
"R 	c #8D7278",
"S 	c #8F777C",
"T 	c #8F767B",
"U 	c #8C7077",
"V 	c #896C74",
"W 	c #846972",
"X 	c #81626E",
"Y 	c #7E606D",
"Z 	c #AB717C",
"` 	c #B58084",
" .	c #BF918E",
"..	c #866771",
"+.	c #C19491",
"@.	c #C59B96",
"#.	c #C8A19A",
"$.	c #C39793",
"%.	c #BF908E",
"&.	c #AC737D",
"*.	c #BB898A",
"=.	c #B98789",
"-.	c #BA8789",
";.	c #BE8F8D",
">.	c #896D75",
",.	c #BA8F8D",
"'.	c #C29693",
").	c #C39895",
"!.	c #C49996",
"~.	c #C49A97",
"{.	c #C39997",
"].	c #BE9192",
"^.	c #BE9191",
"/.	c #BC8F91",
"(.	c #BD8F91",
"_.	c #C19694",
":.	c #C49896",
"<.	c #B9908F",
"[.	c #8A6F77",
"}.	c #C0918F",
"|.	c #BC8B8B",
"1.	c #C39893",
"2.	c #BA8B8C",
"3.	c #BC8C8C",
"4.	c #B8898A",
"5.	c #907278",
"6.	c #886B73",
"7.	c #7B626D",
"8.	c #BC9492",
"9.	c #C8A2A0",
"0.	c #CCACAA",
"a.	c #D0B2B1",
"b.	c #D1B5B3",
"c.	c #D1B4B3",
"d.	c #D0B4B2",
"e.	c #D2B7B4",
"f.	c #CAADAE",
"g.	c #CCB0B0",
"h.	c #CEB1B1",
"i.	c #CEAFAE",
"j.	c #C2A6A5",
"k.	c #9B858A",
"l.	c #836D76",
"m.	c #C59A95",
"n.	c #C49894",
"o.	c #C8A099",
"p.	c #BD8D8D",
"q.	c #BF9A99",
"r.	c #D0B2B0",
"s.	c #D9C4C3",
"t.	c #DFD0CF",
"u.	c #E1D3D3",
"v.	c #E1D2D1",
"w.	c #E2D4D3",
"x.	c #E2D3D2",
"y.	c #E4D7D5",
"z.	c #E3D5D4",
"A.	c #CDAFAF",
"B.	c #977F86",
"C.	c #B98D8C",
"D.	c #C29390",
"E.	c #B78B8A",
"F.	c #B08185",
"G.	c #B49196",
"H.	c #D1BCBC",
"I.	c #E1D6D6",
"J.	c #EBE6E6",
"K.	c #EEEBEB",
"L.	c #EDE9E9",
"M.	c #CDB7B9",
"N.	c #97828A",
"O.	c #A7797F",
"P.	c #BA8E8C",
"Q.	c #927D82",
"R.	c #927E83",
"S.	c #8F797E",
"T.	c #8B7578",
"U.	c #8C7D7D",
"V.	c #888382",
"W.	c #9E9E9C",
"X.	c #C1C2C0",
"Y.	c #DFDFDE",
"Z.	c #F1F1F2",
"`.	c #F5F5F5",
" +	c #F2F2F2",
".+	c #E3E0E1",
"++	c #CDC6C7",
"@+	c #AFA2A6",
"#+	c #9B878D",
"$+	c #947B81",
"%+	c #8F747A",
"&+	c #B98688",
"*+	c #CDADA5",
"=+	c #CEAEA6",
"-+	c #C8A59D",
";+	c #BEA098",
">+	c #BCB2A2",
",+	c #B4B8A7",
"'+	c #B9C5B6",
")+	c #CCD7CD",
"!+	c #E3E8E4",
"~+	c #F2F3F2",
"{+	c #F6F5F6",
"]+	c #F4F3F3",
"^+	c #EFEBEA",
"/+	c #E8E0DE",
"(+	c #DFCFCD",
"_+	c #D6BFBE",
":+	c #C7A19E",
"<+	c #C1928F",
"[+	c #C09691",
"}+	c #B9A69B",
"|+	c #AFB9A6",
"1+	c #A9CAB4",
"2+	c #B0D8C3",
"3+	c #C5E4D6",
"4+	c #DFEDE7",
"5+	c #F1F3F2",
"6+	c #F7F5F6",
"7+	c #F4F4F4",
"8+	c #F3F1F1",
"9+	c #EFECEC",
"0+	c #EBE4E4",
"a+	c #E3D7D7",
"b+	c #D8C3C2",
"c+	c #CCABA9",
"d+	c #C39491",
"e+	c #BD9395",
"f+	c #B6A7A2",
"g+	c #ADC1B2",
"h+	c #A8D7C1",
"i+	c #B0E5CF",
"j+	c #C6ECDD",
"k+	c #DFF1EA",
"l+	c #F1F4F3",
"m+	c #F3F2F2",
"n+	c #EDE7E7",
"o+	c #E1D2D2",
"p+	c #D2B8B6",
"q+	c #BF9190",
"r+	c #BE908E",
"s+	c #AF8687",
"t+	c #A88284",
"u+	c #A47B80",
"v+	c #7C616D",
"w+	c #BF9191",
"x+	c #BC8D92",
"y+	c #B78795",
"z+	c #B3869C",
"A+	c #B199AB",
"B+	c #B2BBBD",
"C+	c #B6DBCD",
"D+	c #C1EBDA",
"E+	c #D2F0E3",
"F+	c #E5F3ED",
"G+	c #F2F4F4",
"H+	c #F0EDED",
"I+	c #E7DEDD",
"J+	c #DDCBCA",
"K+	c #D4BAB8",
"L+	c #C8A5A6",
"M+	c #BE9597",
"N+	c #C39A97",
"O+	c #BF9290",
"P+	c #A98C8B",
"Q+	c #97777C",
"R+	c #97767B",
"S+	c #79626D",
"T+	c #AE7D82",
"U+	c #B5898F",
"V+	c #AD8093",
"W+	c #A5759A",
"X+	c #A272A4",
"Y+	c #A989B5",
"Z+	c #BAB2CA",
"`+	c #CBDBDB",
" @	c #D9F0E7",
".@	c #E4F5EC",
"+@	c #EDF5F1",
"@@	c #F4F5F4",
"#@	c #F6F5F5",
"$@	c #F2F1F1",
"%@	c #E7DFDF",
"&@	c #DFD2D2",
"*@	c #D4C1C1",
"=@	c #C9ADAC",
"-@	c #C09C99",
";@	c #BA918E",
">@	c #BD9591",
",@	c #BB8F8D",
"'@	c #B38386",
")@	c #7E616D",
"!@	c #8B6C7D",
"~@	c #8A648C",
"{@	c #8C5D9D",
"]@	c #9363AE",
"^@	c #A782C0",
"/@	c #C3B1D4",
"(@	c #DCDCE6",
"_@	c #EBF3F0",
":@	c #F1F9F3",
"<@	c #F3F7F4",
"[@	c #F4F5F5",
"}@	c #F3F3F3",
"|@	c #F0EFEF",
"1@	c #E7E5E6",
"2@	c #D5CFD0",
"3@	c #BAAFB1",
"4@	c #9F8D90",
"5@	c #856972",
"6@	c #BE9096",
"7@	c #B485A3",
"8@	c #AA7BB2",
"9@	c #A87CBF",
"0@	c #B394CB",
"a@	c #C6B9D8",
"b@	c #DADEE6",
"c@	c #E7F2EE",
"d@	c #EFF8F2",
"e@	c #F2F6F4",
"f@	c #F2F0F0",
"g@	c #E8DFDE",
"h@	c #DBC7C4",
"i@	c #CFB0AB",
"j@	c #B07981",
"k@	c #B27E8E",
"l@	c #B789A7",
"m@	c #BE99C0",
"n@	c #C0A5CF",
"o@	c #C2B5D5",
"p@	c #C4CBD9",
"q@	c #C9E1DD",
"r@	c #D2EEE3",
"s@	c #DFF3EA",
"t@	c #ECF5F1",
"u@	c #F9F6F7",
"v@	c #E7DDDD",
"w@	c #D7C1BF",
"x@	c #AA6F7B",
"y@	c #B1808E",
"z@	c #C29DB0",
"A@	c #D3BBCF",
"B@	c #DACEE0",
"C@	c #D1D6E0",
"D@	c #C2DDD9",
"E@	c #B6E4D4",
"F@	c #BAEAD6",
"G@	c #CCEEE0",
"H@	c #E3F2EC",
"I@	c #F3F5F4",
"J@	c #F8F6F7",
"K@	c #F8F6F6",
"L@	c #D7C1C0",
"M@	c #C8A3A0",
"N@	c #8C6571",
"O@	c #8B6571",
"P@	c #B4868F",
"Q@	c #CAACB3",
"R@	c #DECED3",
"S@	c #E7E4E5",
"T@	c #DBEAE5",
"U@	c #C4E9DB",
"V@	c #B1E6D1",
"W@	c #B1E8D2",
"X@	c #C2EBDB",
"Y@	c #EAF3EF",
"Z@	c #F2F4F3",
"`@	c #F5F4F4",
" #	c #EEEAE9",
".#	c #E4D8D7",
"+#	c #D5BDBC",
"@#	c #C8A29F",
"##	c #6A5966",
"$#	c #6A5866",
"%#	c #745B69",
"&#	c #A36C78",
"*#	c #AC8088",
"=#	c #BFA1A6",
"-#	c #D3C1C1",
";#	c #DED8D4",
">#	c #DAE3DA",
",#	c #CBE6D8",
"'#	c #BEE8D6",
")#	c #BDEAD8",
"!#	c #C3EBDB",
"~#	c #CDEDE0",
"{#	c #D7EFE6",
"]#	c #E1F1EA",
"^#	c #E9E2E2",
"/#	c #D7C5C4",
"(#	c #CAAFAD",
"_#	c #BF9A98",
":#	c #BA8E8D",
"<#	c #7F626E",
"[#	c #836972",
"}#	c #886C75",
"|#	c #8D737A",
"1#	c #947D82",
"2#	c #A08E92",
"3#	c #AE9EA2",
"4#	c #BAB2B2",
"5#	c #C5C7C3",
"6#	c #CCD9D2",
"7#	c #D2E7DE",
"8#	c #D1EEE2",
"9#	c #C8ECDE",
"0#	c #C0EBDA",
"a#	c #C0EBD9",
"b#	c #CBEDE0",
"c#	c #DEF1E9",
"d#	c #EEF4F1",
"e#	c #EDECEC",
"f#	c #DEDBDC",
"g#	c #CBC4C6",
"h#	c #B8ACAF",
"i#	c #A6959B",
"j#	c #978188",
"k#	c #8A6F78",
"l#	c #78606C",
"m#	c #745F6A",
"n#	c #C9A39C",
"o#	c #C69F9A",
"p#	c #C8A5A2",
"q#	c #D5BFBB",
"r#	c #E0D3D2",
"s#	c #E7E7E5",
"t#	c #E0EFE9",
"u#	c #CBEDDF",
"v#	c #B5E9D4",
"w#	c #ADE7D0",
"x#	c #BAEAD7",
"y#	c #D4EFE4",
"z#	c #EEE9E9",
"A#	c #D3BAB9",
"B#	c #BF989A",
"C#	c #AD7882",
"D#	c #AB737D",
"E#	c #A8717C",
"F#	c #CFADAC",
"G#	c #DFC7C7",
"H#	c #E6DADA",
"I#	c #DFE4DF",
"J#	c #C7E5D7",
"K#	c #AEE4CE",
"L#	c #A4E4CA",
"M#	c #B4E9D3",
"N#	c #D0EEE2",
"O#	c #F1EEED",
"P#	c #ECE7E6",
"Q#	c #E5DAD9",
"R#	c #DAC6C4",
"S#	c #CDADAB",
"T#	c #BD9091",
"U#	c #C39694",
"V#	c #CAA4A2",
"W#	c #D3B4B5",
"X#	c #DBC3C3",
"Y#	c #D3CEC9",
"Z#	c #BDD6C7",
"`#	c #A9DDC6",
" $	c #A3E4C9",
".$	c #D1EEE3",
"+$	c #ECF3F1",
"@$	c #FAF6F8",
"#$	c #EFEBEB",
"$$	c #E8DFDF",
"%$	c #E0D1D0",
"&$	c #D8C3C1",
"*$	c #BD8E8E",
"=$	c #C79E9C",
"-$	c #CBA8A6",
";$	c #C4B5AE",
">$	c #B4C7B5",
",$	c #A6D6BE",
"'$	c #A3E3C8",
")$	c #EBE5E5",
"!$	c #D3B9B7",
"~$	c #CAA8A5",
"{$	c #C69D9B",
"]$	c #AD7C82",
"^$	c #B69E97",
"/$	c #ACB4A5",
"($	c #A5CAB4",
"_$	c #A6DAC2",
":$	c #B5E5D1",
"<$	c #CCEBDE",
"[$	c #E2F0EA",
"}$	c #EDF3F1",
"|$	c #E2D8D8",
"1$	c #D2BEBE",
"2$	c #C3A2A1",
"3$	c #8D747A",
"4$	c #86797B",
"5$	c #8E978E",
"6$	c #91AF9F",
"7$	c #9AC3B0",
"8$	c #A8D2C0",
"9$	c #BAE0D1",
"0$	c #CBE9DD",
"a$	c #D8F0E6",
"b$	c #E4F2EC",
"c$	c #EFF4F2",
"d$	c #EAE9E9",
"e$	c #E0DDDE",
"f$	c #D4CED0",
"g$	c #C3BABC",
"h$	c #AC9DA1",
"i$	c #8B7881",
"j$	c #BA8A8A",
"k$	c #B08889",
"l$	c #BD9E97",
"m$	c #BAA89D",
"n$	c #BAB8AA",
"o$	c #B6C6B5",
"p$	c #B5D8C4",
"q$	c #B8E4D0",
"r$	c #D5EFE4",
"s$	c #E9F3EF",
"t$	c #F8F5F6",
"u$	c #F1EFEF",
"v$	c #E9E1E0",
"w$	c #DECECD",
"x$	c #D4BBBA",
"y$	c #C29B9B",
"z$	c #8D727B",
"A$	c #B68387",
"B$	c #B88588",
"C$	c #BE8D8C",
"D$	c #8A6D75",
"E$	c #7C646E",
"F$	c #C09692",
"G$	c #BDA098",
"H$	c #B6B4A5",
"I$	c #ACC9B5",
"J$	c #A8DBC4",
"K$	c #C7ECDD",
"L$	c #EDE8E9",
"M$	c #E0D3D3",
"N$	c #D0B7B7",
"O$	c #C69F9E",
"P$	c #B58E8D",
"Q$	c #7D656F",
"R$	c #C59C96",
"S$	c #866972",
"T$	c #BF9893",
"U$	c #B8A99D",
"V$	c #AFBBA9",
"W$	c #A9CDB6",
"X$	c #ADD8C3",
"Y$	c #BDE3D2",
"Z$	c #CFEBDF",
"`$	c #DEF0E8",
" %	c #F3F4F3",
".%	c #F4F2F1",
"+%	c #F1EDED",
"@%	c #ECE6E6",
"#%	c #E5DBDA",
"$%	c #DDCCC9",
"%%	c #D0B3B0",
"&%	c #BC9F97",
"*%	c #B6AB9D",
"=%	c #B2B8A7",
"-%	c #B2C5B3",
";%	c #B5D4C1",
">%	c #BCE2D0",
",%	c #C5EBDB",
"'%	c #EFF3F2",
")%	c #F0ECED",
"!%	c #E9DFDF",
"~%	c #E0D0CF",
"{%	c #CFB2B0",
"]%	c #C39794",
"^%	c #B08184",
"/%	c #80626E",
"(%	c #B88E8D",
"_%	c #B7908E",
":%	c #B69490",
"<%	c #B49D96",
"[%	c #B1AFA2",
"}%	c #ACC5B2",
"|%	c #AAD9C3",
"1%	c #B0E6D1",
"2%	c #C4ECDC",
"3%	c #DBF0E7",
"4%	c #EDF2EF",
"5%	c #EDE6E7",
"6%	c #E0D0D1",
"7%	c #CEB6B6",
"8%	c #C2A1A0",
"9%	c #BD9695",
"0%	c #BA908F",
"a%	c #B98E8D",
"b%	c #8F787D",
"c%	c #8C7177",
"d%	c #8E757A",
"e%	c #866C74",
"f%	c #886B74",
"g%	c #8B7076",
"h%	c #8D8986",
"i%	c #90AA9B",
"j%	c #95C6B0",
"k%	c #9FD7BF",
"l%	c #B6E1CF",
"m%	c #D0E6DD",
"n%	c #E0E3E2",
"o%	c #DAD4D6",
"p%	c #C3B7BA",
"q%	c #A49296",
"r%	c #917A7E",
"s%	c #BD9E96",
"t%	c #B5AD9F",
"u%	c #ACC3B0",
"v%	c #A6C3B6",
"w%	c #C7CDC5",
"x%	c #DACFCC",
"y%	c #DBC7C6",
"z%	c #D6BAB8",
"A%	c #CBA7A3",
"B%	c #C8A39C",
"C%	c #BDA198",
"D%	c #BBA89D",
"E%	c #BAADA1",
"F%	c #999D98",
"G%	c #C1B0AA",
"H%	c #CDB2AF",
"I%	c #CEADAC",
"J%	c #AE8989",
"K%	c #A88787",
"L%	c #A48284",
"M%	c #857178",
"N%	c #BA9592",
"O%	c #C39996",
"P%	c #C29490",
"Q%	c #B78588",
"R%	c #C19592",
"S%	c #7F6670",
"T%	c #BB928F",
"U%	c #81636E",
"V%	c #90787D",
"W%	c #C9A49D",
"X%	c #B27B82",
"Y%	c #B17B81",
"Z%	c #B07880",
"`%	c #AF787F",
" &	c #B07980",
".&	c #B27C82",
"+&	c #B47F84",
"@&	c #BD8E8D",
"#&	c #BB8B8B",
"$&	c #BD928F",
"%&	c #907379",
"&&	c #AF767F",
"*&	c #BD8D8C",
"=&	c #AD737D",
"-&	c #C49995",
";&	c #BF9994",
">&	c #906974",
",&	c #BC8F8D",
"'&	c #765D6A",
")&	c #9A6976",
"!&	c #846470",
"~&	c #AE7E82",
"{&	c #735E6A",
"]&	c #B98788",
"        . + @ # $ % & & & & & & & & & & & & * =         . + @ # $ % & & & & % $ # @ + .         ",
"      - ; > , , ' ) ! ! ! ! ! ! ! ! ! ! ! ! ~ { ]     - ; > , , ' ) ! ! ! ! ) ' , , > ; -       ",
"^ / / ( _ : , , < [ ! ! ! ! } | 1 2 3 4 5 6 7 8 9 / / ( _ : , , < [ ! ! ! ! [ < , , : _ ( / = 0 ",
"a b b c d , , , ~ [ ! ! ! ! e f g h i j k l m n o b b c d , , , ~ [ ! ! ! ! [ ~ , , , d c b p q ",
", , , , , , , , ~ r ! ! ! ! ! ! ! ! ! ! ! ! ! s t : , , , , , , ~ r ! ! ! ! r ~ , , , , , , , # ",
"u v v v v v v w x y z A A z z B z y y y z A C @ D v v v v v v w x y z A A z y x w v v v v v E ( ",
"F G G G G G H I J K L M N O P Q R S T T U O V W X G G G G G H I J K L M N K O J I H G G G G F Y ",
", , , , , , Z `  .[ < ..C ! +.@.g #.#.#.$.e ! %.&., , , , , Z `  .! < ..C ! ! %.` Z , , , , , , ",
"~ ~ ~ ~ *.=.-.;.k A z >.,.'.).!.~.!.!.!.~.~.~.{.].^.^.^.^./.(._.:._.<.[.A ! ! ! }.|.~ ~ ~ ~ ~ ~ ",
"[ [ [ ! 1.| 2.3.4.5.6.7.8.9.0.a.b.c.d.d.d.d.d.d.d.d.d.d.e.f.g.h.i.j.k.l.A ! ! ! ! [ [ [ [ [ [ [ ",
"! ! ! ! m.n.o.m.! ! p.s q.r.s.t.u.u.v.v.v.v.v.v.v.v.v.v.w.x.y.z.t.s.A.B.C.D.! ! ! ! ! ! ! ! ! ! ",
"A z z B y y E.y y z F.X G.H.I.J.K.K.L.L.L.L.L.L.L.L.L.L.L.L.K.K.J.I.M.N.O.z z z z z z z z z z P.",
"..O P Q R S Q.R.S.T.U.V.W.X.Y.Z.`.`.`.`.`.`.`.`.`.`.`.`.`.`.`.`. +.+++@+#+$+%+U O O O O O K L M ",
"&+! +.@.g i *+=+-+;+>+,+'+)+!+~+{+{+`.`.`.`.`.`.`.`.`.`.`.`.`.`.]+^+/+(+_+i.:+'.! ! ! ! ! ! ~ * ",
"[ ! ! ! ! <+k k [+}+|+1+2+3+4+5+6+6+`.`.`.`.`.`.`.`.`.`.`.`.`.`.7+8+9+0+a+b+c+).! [ ! ! r d+D.& ",
"! ! ! ! ! ! ! ) e+f+g+h+i+j+k+l+6+6+`.`.`.`.`.`.`.`.`.`.`.`.`.`.`.`.`.m+n+o+p+:+q+*.r+p.s+t+u+v+",
"! ! ! ! ! w+x+y+z+A+B+C+D+E+F+G+6+6+`.`.`.`.`.`.`.`.`.`.`.`.`.`.`.`.`.`.H+I+J+K+L+M+N+O+P+Q+R+S+",
"T+z z z z U+V+W+X+Y+Z+`+ @.@+@@@{+#@`.`.`.`.`.`.`.`.`.`.`.`.`.`.`.`.`.`.$@L.%@&@*@=@-@;@>@,@'@)@",
"V O O O O !@~@{@]@^@/@(@_@:@<@[@`.`.`.`.`.`.`.`.`.`.`.`.`.`.`.`.`.`.`.`.7+}@|@1@2@3@4@R.Q.S U 5@",
"! ! ! ! ! 6@7@8@9@0@a@b@c@d@e@`.{+#@`.`.`.`.`.`.`.`.`.`.`.`.`.`.`.`.`.`.`.`.`.f@g@h@i@=+*+i g ! ",
"j@j@j@j@j@k@l@m@n@o@p@q@r@s@t@#@u@6+#@`.`.`.`.`.`.`.`.`.`.`.`.`.`.`.`.`.`.`.`.f@v@w@9.k k <+! ! ",
": : , x@x@y@z@A@B@C@D@E@F@G@H@I@J@K@`.`.`.`.`.`.`.`.`.`.`.`.`.`.`.`.`.`.`.`.`.f@v@L@M@! ! ! ! ! ",
"N@O@a d , P@Q@R@S@T@U@V@W@X@ @Y@Z@@@[@`.`.`.`.`.`.`.`.`.`.`.`.`.`.`.`.`.`@7+m+ #.#+#@#! ! ! ! ! ",
"##$#%#o &#*#=#-#;#>#,#'#)#!#~#{#]#Y@l+`.{+`.`.`.`.`.`.`.`.`.`.`.`.`.`.`.$@K.^#I./#(#_#P.:#:#:#:#",
"<#W [#}#|#1#2#3#4#5#6#7#8#9#0#a#b#c#d##@6+#@`.`.`.`.`.`.`.`.`.`.`.`.`.`.e#f#g#h#i#j#k#l#m#m#m#m#",
"=.! ! $.#.i n#o#p#q#r#s#t#u#v#w#x#y#_@#@K@{+`.`.`.`.`.`.`.`.`.`.`.`.`.]+z#w.A#B#C#D#E#; ]       ",
"[ ! ! ! <+<+<+! ).F#G#H#I#J#K#L#M#N#_@6+u@{+`.`.`.`.`.`.`.`.`.`.7+m+O#P#Q#R#S#T#, , : _ ( / = 0 ",
"! ! ! ! ! ! ! ! U#V#W#X#Y#Z#`# $M#.$+$u@@$6+`.`.`.`.`.`.`.`.`.`.]+#$$$%$&$a.M@*$, , , d c b p q ",
"! ! ! ! ! ! ! ! r !.=$-$;$>$,$'$v#8#_@6+u@{+`.`.`.`.`.`.`.`.`.`.m+)$t.!$~${$!.|., , , , , , , # ",
"]$y z z z z z z z z z ,.^$/$($_$:$<$[$}$Z@@@`.#@`.`.`.`.`.7+]+$@L.|$1$2$,.z y x w v v v v v E ( ",
"3$T U O O O O O O K L M 4$5$6$7$8$9$0$a$b$c${+J@6+`.`.`.`.$@d$e$f$g$h$i$N K O J I H G G G G F Y ",
"#.#.$.e ! ! ! ! ! ! j$..k$l$m$n$o$p$q$X@r$s$#@u@t$`.`.`.`.u$v$w$x$S#y$z$C ! ! %.` Z , , , , , , ",
"<+<+! ! r A$B$1 C$6 D$E$:#! F$G$H$I$J$V@K$k+c$`.`.`.`.`.]+L$M$N$O$P$D$Q$:#! ! ! }.|.~ ~ ~ ~ ~ ~ ",
"! ! ! ! R$$.#.g k l m S$C.! ! T$U$V$W$X$Y$Z$`$c@d# %.%+%@%#%$%%%{.l m S$C.! ! ! ! [ [ [ [ [ [ [ ",
"! ! ! ! ! ! ! ! ! ! ! K z D.! F$&%*%=%-%;%>%,%y#H@'%)%!%~%L@{%M@]%! ! K z D.! ! ! ! ! ! ! ! ! ! ",
"A z z B z y y y y C.^%/%O.z z (%_%:%<%[%}%|%1%2%3%4%5%6%7%8%9%0%a%C.^%/%O.z z z z z z z z z z P.",
"..O P Q R S Q.R.b%c%d%e%f%O O O O O g%h%i%j%k%l%m%n%o%p%q%r%Q.R.b%c%d%e%f%O O O O O O O O K L M ",
"&+! +.@.g i *+=+n#$.#.$.! ! ! ! ! ! +.s%t%V$u%v%w%x%y%z%A%B%*+=+n#$.#.$.! ! ! ! ! ! ! ! ! ! ~ * ",
"[ ! ! ! ! <+k k <+! <+! ! ! ! ! ! [ ! T$C%D%E%F%G%H%I%V#~.! k k <+! <+! ! ! ! ! ! [ ! ! r d+D.& ",
"! ! ! ! ! ! ! ! ! ! ! ! ! ! ! ! 5 *.;.*$J%K%L%M%N%O%).U#r ! ! ! ! ! ! ! ! ! ! ! 5 *.;.p.s+t+u+v+",
"! ! ! ! ! ! ! ! ! ! ! ! ! ! ! P%< Q%R%O+P+Q+R+S%A D.! ! ! ! ! ! ! ! ! ! ! ! ! P%< Q%R%O+P+Q+R+S+",
"T+z z z z z z z z z z A A z z B z A T%;@>@,@'@U%O.z z z z z z z z z z A A z z B z A T%;@>@,@'@)@",
"V O O O O O O O O K L M N O P Q R T V%R.Q.S U 5@f%O O O O O O O O K L M N O P Q R T V%R.Q.S U 5@",
"! ! ! ! ! ! ! ! ! ! ~ ..C ! +.@.g #.W%=+*+i g ! ! ! ! ! ! ! ! ! ! ! j$..C ! +.@.g #.W%=+*+i g ! ",
"j@j@j@j@j@j@X%~ ! ! ! P A ! ! ! ~ Y%Z%`%Z% & &.&}.! }.+&4 p.@&#&$&%&D$E$:#! ! ! ~ Y%Z%`%Z% & &j@",
": : , x@x@x@x@&&*&! ! O z ! ! *&&&x@x@x@x@, : =&%.! e R%j }.$.n#-&;&m S$C.! ! *&&&x@x@x@x@, : : ",
"O@O@a d , , , , ~ [ ! O z ! [ ~ , , , , d a O@>&,&! ! ! ! ! ! ! ! ! ! O z ! [ ~ , , , , d a O@O@",
"] ] '&)&, , , , ` ! =.!&~&! k ` , , , , )&'&] {&P.! ! ! ! ! ! ! ! [ ]&!&~&! k ` , , , , )&'&] ] "};
