/* XPM */
static char * coindiamond1_xpm[] = {
"48 48 918 2",
"  	c #6D5A67",
". 	c #725B69",
"+ 	c #7D606C",
"@ 	c #7F616D",
"# 	c #7F606D",
"$ 	c #81646F",
"% 	c #856A73",
"& 	c #866B73",
"* 	c #826570",
"= 	c #715B68",
"- 	c #6C5A67",
"; 	c #85626F",
"> 	c #A86F7A",
", 	c #AA707B",
"' 	c #B68386",
") 	c #C09290",
"! 	c #C19390",
"~ 	c #BB8A8A",
"{ 	c #80646F",
"] 	c #6B5966",
"^ 	c #705B68",
"/ 	c #725C69",
"( 	c #775D6B",
"_ 	c #9A6A76",
": 	c #AB707B",
"< 	c #BB8A8B",
"[ 	c #C19490",
"} 	c #BF918F",
"| 	c #B88688",
"1 	c #BA898A",
"2 	c #B37E84",
"3 	c #B47F85",
"4 	c #B37E83",
"5 	c #BE8E8D",
"6 	c #B38A89",
"7 	c #8A6E75",
"8 	c #755F6B",
"9 	c #6F5B68",
"0 	c #6E5A67",
"a 	c #996976",
"b 	c #A56E79",
"c 	c #A66E7A",
"d 	c #A9707B",
"e 	c #C19290",
"f 	c #C29692",
"g 	c #C49A95",
"h 	c #C59C97",
"i 	c #C8A29B",
"j 	c #C39894",
"k 	c #C0928F",
"l 	c #BF928F",
"m 	c #B48687",
"n 	c #82656F",
"o 	c #946774",
"p 	c #9C6B77",
"q 	c #785E6B",
"r 	c #C29491",
"s 	c #896B74",
"t 	c #A36D79",
"u 	c #986976",
"v 	c #A46E79",
"w 	c #A36E79",
"x 	c #AD7C81",
"y 	c #B88C8B",
"z 	c #B88D8C",
"A 	c #B98E8C",
"B 	c #B88D8B",
"C 	c #B18285",
"D 	c #936774",
"E 	c #9B6A77",
"F 	c #81616E",
"G 	c #83626E",
"H 	c #82626E",
"I 	c #84636F",
"J 	c #886A73",
"K 	c #8B6E76",
"L 	c #876972",
"M 	c #79606C",
"N 	c #846670",
"O 	c #8B6E75",
"P 	c #8B6F76",
"Q 	c #8D7379",
"R 	c #8D7278",
"S 	c #8F777C",
"T 	c #8F767B",
"U 	c #8C7077",
"V 	c #896C74",
"W 	c #846972",
"X 	c #81626E",
"Y 	c #7E606D",
"Z 	c #AB717C",
"` 	c #B58084",
" .	c #BF918E",
"..	c #866771",
"+.	c #C19491",
"@.	c #C59B96",
"#.	c #C8A19A",
"$.	c #C39793",
"%.	c #BF908E",
"&.	c #AC737D",
"*.	c #BB898A",
"=.	c #B98789",
"-.	c #BA8789",
";.	c #BE8F8D",
">.	c #896D75",
",.	c #C1928F",
"'.	c #C0918F",
").	c #BC8B8B",
"!.	c #C39893",
"~.	c #BA8B8C",
"{.	c #BC8C8C",
"].	c #B8898A",
"^.	c #907278",
"/.	c #886B73",
"(.	c #7B626D",
"_.	c #BE8D8C",
":.	c #896B73",
"<.	c #C59A95",
"[.	c #C49894",
"}.	c #C8A099",
"|.	c #BD8D8D",
"1.	c #B98D8C",
"2.	c #C19291",
"3.	c #BF9191",
"4.	c #BF9193",
"5.	c #C09294",
"6.	c #C29595",
"7.	c #C39997",
"8.	c #C49B98",
"9.	c #C59C98",
"0.	c #C59B98",
"a.	c #C49997",
"b.	c #C29696",
"c.	c #BF9292",
"d.	c #BF9493",
"e.	c #C39D98",
"f.	c #C29C97",
"g.	c #C6A19B",
"h.	c #BF9192",
"i.	c #BC8C8E",
"j.	c #896B75",
"k.	c #C29390",
"l.	c #B78B8A",
"m.	c #B08185",
"n.	c #A67780",
"o.	c #B28590",
"p.	c #AE8094",
"q.	c #AD7F99",
"r.	c #B388A0",
"s.	c #BD99A9",
"t.	c #C9ADB2",
"u.	c #CFB9B8",
"v.	c #D2BCBA",
"w.	c #D2BAB9",
"x.	c #CDB0B5",
"y.	c #C39DAC",
"z.	c #B78AA3",
"A.	c #AF819C",
"B.	c #AC849B",
"C.	c #AD949D",
"D.	c #AFA6A0",
"E.	c #AFA9A1",
"F.	c #AE999E",
"G.	c #AD889C",
"H.	c #AF8196",
"I.	c #AC7B8B",
"J.	c #816171",
"K.	c #A7797F",
"L.	c #BA8E8C",
"M.	c #927D82",
"N.	c #927E83",
"O.	c #8F787D",
"P.	c #8C7177",
"Q.	c #8E757A",
"R.	c #866C74",
"S.	c #876778",
"T.	c #886386",
"U.	c #895D94",
"V.	c #8F62A2",
"W.	c #A07AB0",
"X.	c #B89FC0",
"Y.	c #D0C5D0",
"Z.	c #DDD9D8",
"`.	c #E1DEDB",
" +	c #E0DADA",
".+	c #D5C9D3",
"++	c #BDA3C3",
"@+	c #A67BB3",
"#+	c #9567A7",
"$+	c #8E70A5",
"%+	c #9193AA",
"&+	c #95B7B0",
"*+	c #97BEB2",
"=+	c #95A3AF",
"-+	c #937FAA",
";+	c #8F66A3",
">+	c #8D6097",
",+	c #8E6A8C",
"'+	c #876A7A",
")+	c #886B74",
"!+	c #B98688",
"~+	c #CDADA5",
"{+	c #CEAEA6",
"]+	c #C9A39C",
"^+	c #C29994",
"/+	c #C7A49C",
"(+	c #C19C96",
"_+	c #BA8F99",
":+	c #AD7FA1",
"<+	c #A170AB",
"[+	c #A06FB7",
"}+	c #B28BC6",
"|+	c #CDB6D9",
"1+	c #E7E0E9",
"2+	c #F3F4F2",
"3+	c #F6FAF4",
"4+	c #F2F5F1",
"5+	c #E5E2E9",
"6+	c #CBBAD8",
"7+	c #B08DC6",
"8+	c #9C71B8",
"9+	c #947BB5",
"0+	c #969FBA",
"a+	c #9BC3C0",
"b+	c #9DC9C1",
"c+	c #9BADBE",
"d+	c #9789B9",
"e+	c #976EB3",
"f+	c #A070AB",
"g+	c #B286A6",
"h+	c #BB8E9A",
"i+	c #C09191",
"j+	c #C09291",
"k+	c #BE9D94",
"l+	c #BAA699",
"m+	c #B7AEA0",
"n+	c #B3A8AA",
"o+	c #AF99B3",
"p+	c #AE8EBF",
"q+	c #B391CB",
"r+	c #C5A8D6",
"s+	c #DBC9E4",
"t+	c #ECE8EF",
"u+	c #F1F6F3",
"v+	c #ECF9F1",
"w+	c #E0F4EB",
"x+	c #D2E5E2",
"y+	c #BEC8D5",
"z+	c #A8A6C7",
"A+	c #988DBD",
"B+	c #918CB9",
"C+	c #919ABB",
"D+	c #94AABE",
"E+	c #95ADBE",
"F+	c #94A2BD",
"G+	c #9393BB",
"H+	c #9185B9",
"I+	c #9A7FB2",
"J+	c #A47EA9",
"K+	c #AE82A1",
"L+	c #B5869A",
"M+	c #BA8A97",
"N+	c #BE9093",
"O+	c #C39491",
"P+	c #BBA899",
"Q+	c #B2B8A5",
"R+	c #ABC6B1",
"S+	c #ACCBBD",
"T+	c #B7C5C8",
"U+	c #C5C1D5",
"V+	c #D3C4DF",
"W+	c #E0D0E7",
"X+	c #EBE0EE",
"Y+	c #F0EEF2",
"Z+	c #EAF4F0",
"`+	c #DAF3E7",
" @	c #C6EEDD",
".@	c #B6E5D4",
"+@	c #A9D8CC",
"@@	c #9FC7C6",
"#@	c #98B7C1",
"$@	c #93A7BD",
"%@	c #9195BA",
"&@	c #9189B9",
"*@	c #9188B9",
"=@	c #9294BA",
"-@	c #93A6BD",
";@	c #94ADBE",
">@	c #98A1BA",
",@	c #9B8AB3",
"'@	c #9F77AD",
")@	c #A775A5",
"!@	c #B07F9E",
"~@	c #BA8B96",
"{@	c #AF8687",
"]@	c #A88284",
"^@	c #A47B80",
"/@	c #7C616D",
"(@	c #BE9495",
"_@	c #B7A7A1",
":@	c #ADC2B1",
"<@	c #A8D7C0",
"[@	c #AFE3CE",
"}@	c #C3E6D9",
"|@	c #DBE9E6",
"1@	c #ECECF0",
"2@	c #F5F0F5",
"3@	c #F8F2F6",
"4@	c #F4F4F4",
"5@	c #E6F2EE",
"6@	c #D0EEE2",
"7@	c #B8EAD5",
"8@	c #A8E6CD",
"9@	c #A1E5CA",
"0@	c #A1E4C9",
"a@	c #A0DBC8",
"b@	c #9EC1C4",
"c@	c #9A9BBF",
"d@	c #977BBB",
"e@	c #9777BA",
"f@	c #9A94BE",
"g@	c #9DBBC4",
"h@	c #9FCFC6",
"i@	c #9DBCC2",
"j@	c #9994BC",
"k@	c #956EB4",
"l@	c #9A65AD",
"m@	c #A772A4",
"n@	c #B4849B",
"o@	c #BE9094",
"p@	c #BA888D",
"q@	c #B68489",
"r@	c #C19592",
"s@	c #BF9290",
"t@	c #A98C8B",
"u@	c #97777C",
"v@	c #97767B",
"w@	c #79626D",
"x@	c #AE7D82",
"y@	c #B68B8D",
"z@	c #B28690",
"A@	c #AE8194",
"B@	c #AC809B",
"C@	c #AC96AA",
"D@	c #AFBBBE",
"E@	c #B7DCD0",
"F@	c #C3ECDB",
"G@	c #D5F3E5",
"H@	c #E8F7EE",
"I@	c #F5F9F5",
"J@	c #FBF9F8",
"K@	c #FAF8F8",
"L@	c #F5F6F5",
"M@	c #EAF3EF",
"N@	c #D8EFE6",
"O@	c #C5ECDC",
"P@	c #BAEAD6",
"Q@	c #B7EDD5",
"R@	c #B9F0D7",
"S@	c #BBEBD7",
"T@	c #B9D7D4",
"U@	c #B6B6D0",
"V@	c #B39ACC",
"W@	c #B397CB",
"X@	c #B6B2CF",
"Y@	c #BAD5D4",
"Z@	c #B9E3D5",
"`@	c #B0CACE",
" #	c #A29AC3",
".#	c #966DB9",
"+#	c #935CB0",
"@#	c #9A64A8",
"##	c #A473A1",
"$#	c #AC7E9A",
"%#	c #B08396",
"&#	c #B48992",
"*#	c #BA9091",
"=#	c #BA918E",
"-#	c #BD9591",
";#	c #BB8F8D",
">#	c #B38386",
",#	c #7E616D",
"'#	c #8B6C7B",
")#	c #896586",
"!#	c #885E93",
"~#	c #8E62A1",
"{#	c #9F80B4",
"]#	c #B6B0CA",
"^#	c #CFDBDE",
"/#	c #DEF1E9",
"(#	c #E9F8EF",
"_#	c #F0F8F3",
":#	c #F6F8F6",
"<#	c #F8F8F7",
"[#	c #F8F7F7",
"}#	c #F5F5F5",
"|#	c #F0F4F2",
"1#	c #E8F2EE",
"2#	c #DFF1EA",
"3#	c #DAF0E7",
"4#	c #D9F2E7",
"5#	c #DAF4E7",
"6#	c #DBF2E8",
"7#	c #DAE8E7",
"8#	c #D9D9E4",
"9#	c #D8CCE3",
"0#	c #D8CBE3",
"a#	c #DBDBE6",
"b#	c #DDECE8",
"c#	c #D8EDE6",
"d#	c #C8CEDB",
"e#	c #B09CCA",
"f#	c #9A6EBB",
"g#	c #8F57B1",
"h#	c #8C54AB",
"i#	c #8D5AA7",
"j#	c #8E61A2",
"k#	c #8E6697",
"l#	c #8F6F8D",
"m#	c #907683",
"n#	c #856972",
"o#	c #BC8E95",
"p#	c #B1819E",
"q#	c #A371A9",
"r#	c #9E6DB6",
"s#	c #AD87C4",
"t#	c #C5B2D6",
"u#	c #DDDCE6",
"v#	c #EDF4F1",
"w#	c #F2F9F4",
"x#	c #F4F7F5",
"y#	c #F6F5F5",
"z#	c #F3F5F4",
"A#	c #F0F4F3",
"B#	c #EBF3F0",
"C#	c #EBF4F0",
"D#	c #EBF0EF",
"E#	c #EAEBEF",
"F#	c #EAE6EE",
"G#	c #EAE5EE",
"H#	c #ECEAF0",
"I#	c #EDEDF0",
"J#	c #E6E4EC",
"K#	c #B797CD",
"L#	c #9D6DBC",
"M#	c #8F56B3",
"N#	c #8E53B0",
"O#	c #9057B1",
"P#	c #9761B0",
"Q#	c #A473AA",
"R#	c #B68CA4",
"S#	c #C49EA0",
"T#	c #B07981",
"U#	c #B07B8D",
"V#	c #B07EA2",
"W#	c #B287B9",
"X#	c #B28FC9",
"Y#	c #BAA3D0",
"Z#	c #C5C0D8",
"`#	c #D2DFE2",
" $	c #E8F6EE",
".$	c #F0F6F3",
"+$	c #F8F6F6",
"@$	c #F8F5F6",
"#$	c #E9F3EF",
"$$	c #E1F1EB",
"%$	c #DCF0E8",
"&$	c #DAF1E7",
"*$	c #DBF1E8",
"=$	c #DBEFE7",
"-$	c #DAE7E6",
";$	c #D9DBE5",
">$	c #D8CFE3",
",$	c #D8C7E2",
"'$	c #D9C5E2",
")$	c #D9C4E2",
"!$	c #D3BBDF",
"~$	c #C4A3D5",
"{$	c #AE83C7",
"]$	c #9A66BA",
"^$	c #8D52B1",
"/$	c #8E54B2",
"($	c #9057B3",
"_$	c #9E6AAB",
":$	c #AF7E9F",
"<$	c #BC8C94",
"[$	c #AA6F7B",
"}$	c #B07D8D",
"|$	c #BE96AE",
"1$	c #CCB0CC",
"2$	c #D2C2DE",
"3$	c #CCCBDC",
"4$	c #C2D6D9",
"5$	c #BCE3D7",
"6$	c #C1EBDA",
"7$	c #D3F0E3",
"8$	c #E7F3EE",
"9$	c #FAF6F8",
"0$	c #D9F0E7",
"a$	c #C8ECDE",
"b$	c #BCEAD8",
"c$	c #B9ECD6",
"d$	c #BAEDD7",
"e$	c #BAE7D7",
"f$	c #B9D5D4",
"g$	c #B6BAD0",
"h$	c #B49ECC",
"i$	c #B28DCA",
"j$	c #B388CA",
"k$	c #B387C9",
"l$	c #B083C8",
"m$	c #A979C3",
"n$	c #9E6ABC",
"o$	c #945DB6",
"p$	c #8E55B3",
"q$	c #AF7F9F",
"r$	c #BC8D95",
"s$	c #8C6571",
"t$	c #8B6571",
"u$	c #B4868F",
"v$	c #CAABB4",
"w$	c #DDCDD4",
"x$	c #E6E2E6",
"y$	c #D9E7E4",
"z$	c #C3E6DA",
"A$	c #B1E6D1",
"B$	c #B1E8D2",
"C$	c #DBF0E8",
"D$	c #EDF3F1",
"E$	c #F8F6F7",
"F$	c #F4F5F4",
"G$	c #E5F2ED",
"H$	c #CDEDE0",
"I$	c #B4E9D3",
"J$	c #A3E6CB",
"K$	c #9EE8C9",
"L$	c #9FE9C9",
"M$	c #A1E1C9",
"N$	c #9EC7C5",
"O$	c #9B9FC0",
"P$	c #9778BA",
"Q$	c #9561B7",
"R$	c #955EB7",
"S$	c #9562B7",
"T$	c #9565B7",
"U$	c #9462B7",
"V$	c #925DB5",
"W$	c #9059B4",
"X$	c #8F57B3",
"Y$	c #9057B2",
"Z$	c #9159B2",
"`$	c #9660AF",
" %	c #A270A8",
".%	c #6A5966",
"+%	c #6A5866",
"@%	c #745B69",
"#%	c #A36C78",
"$%	c #AD8189",
"%%	c #C1A4A9",
"&%	c #D4C3C4",
"*%	c #DFD9D6",
"=%	c #DAE3DA",
"-%	c #CBE6D8",
";%	c #BDE8D7",
">%	c #BCEAD7",
",%	c #C3EBDB",
"'%	c #CEEDE1",
")%	c #D9F0E6",
"!%	c #E4F2EC",
"~%	c #EEF4F1",
"{%	c #F1F4F3",
"]%	c #CAEDDF",
"^%	c #AEE7D0",
"/%	c #9CE4C7",
"(%	c #96E8C5",
"_%	c #97EAC5",
":%	c #99E2C5",
"<%	c #96C4C1",
"[%	c #9295BA",
"}%	c #8E69B4",
"|%	c #8C56B2",
"1%	c #8D5EB3",
"2%	c #8E70B5",
"3%	c #907CB7",
"4%	c #9077B7",
"5%	c #906AB5",
"6%	c #8F5DB4",
"7%	c #955EAF",
"8%	c #9A65AB",
"9%	c #9F6DA7",
"0%	c #A778A0",
"a%	c #AF8298",
"b%	c #B68A90",
"c%	c #BA8E8D",
"d%	c #7F626E",
"e%	c #836972",
"f%	c #886C75",
"g%	c #8D737A",
"h%	c #947D82",
"i%	c #A19094",
"j%	c #AE9FA2",
"k%	c #B8B0AF",
"l%	c #C4C6C2",
"m%	c #CED9D3",
"n%	c #D4E9E1",
"o%	c #D2EEE3",
"p%	c #C0EBD9",
"q%	c #BEEBD9",
"r%	c #CCEDE0",
"s%	c #E0F1EA",
"t%	c #AFE8D1",
"u%	c #9DE5C7",
"v%	c #97E8C5",
"w%	c #99ECC6",
"x%	c #9AE4C6",
"y%	c #97C5C2",
"z%	c #9394BB",
"A%	c #8F69B5",
"B%	c #8E5DB3",
"C%	c #9074B6",
"D%	c #9397BB",
"E%	c #95ACBE",
"F%	c #949FBD",
"G%	c #9281B9",
"H%	c #9065B5",
"I%	c #8E58AF",
"J%	c #8E5AA4",
"K%	c #8D6199",
"L%	c #8A628C",
"M%	c #876283",
"N%	c #86637B",
"O%	c #836373",
"P%	c #78606C",
"Q%	c #745F6A",
"R%	c #C9A39D",
"S%	c #C69F9A",
"T%	c #C6A19E",
"U%	c #D4BBB8",
"V%	c #E0D1D1",
"W%	c #E8E6E4",
"X%	c #E2EFE9",
"Y%	c #CBEBDD",
"Z%	c #B3E7D2",
"`%	c #AAE7CE",
" &	c #D5EFE5",
".&	c #CEEEE1",
"+&	c #9EE4C8",
"@&	c #99E4C5",
"#&	c #9AE3C6",
"$&	c #9BD9C5",
"%&	c #99BEC2",
"&&	c #9596BC",
"*&	c #9274B7",
"=&	c #916EB6",
"-&	c #948BBA",
";&	c #97B2C0",
">&	c #99C7C3",
",&	c #99B6C0",
"'&	c #9690BA",
")&	c #946DB4",
"!&	c #A773A4",
"~&	c #B4839B",
"{&	c #B3808B",
"]&	c #A96F7E",
"^&	c #AA707C",
"/&	c #A76F7B",
"(&	c #CCA8A6",
"_&	c #DBC0C1",
":&	c #E3D3D3",
"<&	c #DBDDD8",
"[&	c #C3E0D1",
"}&	c #ACE3CB",
"|&	c #A2E5CA",
"1&	c #B5E9D4",
"2&	c #D3EFE3",
"3&	c #CEEFE1",
"4&	c #B0E9D1",
"5&	c #9CE0C7",
"6&	c #96D4C3",
"7&	c #96C7C1",
"8&	c #98B9C1",
"9&	c #97AABF",
"0&	c #959ABD",
"a&	c #948FBB",
"b&	c #948EBB",
"c&	c #959BBD",
"d&	c #97ACBF",
"e&	c #99A5BB",
"f&	c #9D8CB4",
"g&	c #A078AD",
"h&	c #BA8C96",
"i&	c #C69D9B",
"j&	c #CDAAA9",
"k&	c #D3B5B4",
"l&	c #CBC2BB",
"m&	c #B8CEBE",
"n&	c #A6DBC3",
"o&	c #B6E9D4",
"p&	c #D4EFE4",
"q&	c #CEF1E1",
"r&	c #AFEAD1",
"s&	c #9BDBC6",
"t&	c #94C1BF",
"u&	c #93A2BC",
"v&	c #969FBD",
"w&	c #97B0C0",
"x&	c #98B3C0",
"y&	c #96A7BE",
"z&	c #9597BC",
"A&	c #9488BA",
"B&	c #9B81B4",
"C&	c #A581AA",
"D&	c #B98A97",
"E&	c #C29592",
"F&	c #C39795",
"G&	c #C49A97",
"H&	c #BEA79F",
"I&	c #B2BCAB",
"J&	c #A7D1B9",
"K&	c #A5DFC5",
"L&	c #B7E6D3",
"M&	c #D2EDE2",
"N&	c #E5F1EC",
"O&	c #E3F3EC",
"P&	c #CEF2E1",
"Q&	c #B4EBD4",
"R&	c #A2D9C9",
"S&	c #9388BA",
"T&	c #916DB6",
"U&	c #9277B8",
"V&	c #99C5C3",
"W&	c #98AABE",
"X&	c #9586B9",
"Y&	c #966CB2",
"Z&	c #9F6EAB",
"`&	c #AD7DA1",
" *	c #C19392",
".*	c #AD7C82",
"+*	c #B5968F",
"@*	c #AEAA9D",
"#*	c #A9BEAA",
"$*	c #AACDB8",
"%*	c #B4D8C6",
"&*	c #C5E4D5",
"**	c #CDF2E1",
"=*	c #C2EEDB",
"-*	c #B8DCD4",
";*	c #AAB3C9",
">*	c #9D82BE",
",*	c #9362B6",
"'*	c #9067B5",
")*	c #9287B9",
"!*	c #96A6BE",
"~*	c #98ADBE",
"{*	c #999AB8",
"]*	c #9B7EB0",
"^*	c #9E6EA8",
"/*	c #A572A0",
"(*	c #AE7E97",
"_*	c #B68A8F",
":*	c #8D747A",
"<*	c #836C72",
"[*	c #8B8481",
"}*	c #8E958D",
"|*	c #94A79C",
"1*	c #9DBDAD",
"2*	c #AAD4C2",
"3*	c #B5E5D2",
"4*	c #BFECD9",
"5*	c #CBF2E0",
"6*	c #D4F2E4",
"7*	c #D3E1E2",
"8*	c #C2B9D6",
"9*	c #AA87C5",
"0*	c #9663B8",
"a*	c #8E5CB3",
"b*	c #8F6AB5",
"c*	c #927CB8",
"d*	c #9381B6",
"e*	c #917AAC",
"f*	c #8E6E9C",
"g*	c #8C678F",
"h*	c #8C6687",
"i*	c #88657C",
"j*	c #7A5F6F",
"k*	c #BA8A8A",
"l*	c #B18386",
"m*	c #C09692",
"n*	c #C09893",
"o*	c #C1A69D",
"p*	c #B8B6A7",
"q*	c #AFCDB7",
"r*	c #A9DCC3",
"s*	c #B1E6D0",
"t*	c #C8EFDC",
"u*	c #DDF2E8",
"v*	c #E1E4E9",
"w*	c #CEBDDC",
"x*	c #B18CC9",
"y*	c #9865B9",
"z*	c #8E56B2",
"A*	c #8E57B1",
"B*	c #925FB2",
"C*	c #9969AF",
"D*	c #A677A7",
"E*	c #B3859D",
"F*	c #B9898B",
"G*	c #866772",
"H*	c #B68387",
"I*	c #B88588",
"J*	c #8A6D75",
"K*	c #7C646E",
"L*	c #C09591",
"M*	c #B9A59A",
"N*	c #B0B8A6",
"O*	c #ABC7B2",
"P*	c #B0D6C0",
"Q*	c #C0E5D1",
"R*	c #CFEDDE",
"S*	c #D2E1E2",
"T*	c #C2BBD6",
"U*	c #AA8CC6",
"V*	c #9664B8",
"W*	c #9057B0",
"X*	c #965DAB",
"Y*	c #9E67AA",
"Z*	c #A068A2",
"`*	c #A9739B",
" =	c #B38192",
".=	c #BD8C8D",
"+=	c #C59C96",
"@=	c #866972",
"#=	c #BD9B95",
"$=	c #B9A69B",
"%=	c #B6AFA2",
"&=	c #B5C0AF",
"*=	c #B7D6C0",
"==	c #B8E4CF",
"-=	c #B5DCD3",
";=	c #ACB7CB",
">=	c #9F8AC0",
",=	c #9364B6",
"'=	c #965DAE",
")=	c #A16BA7",
"!=	c #AF80A3",
"~=	c #B6879D",
"{=	c #BF959F",
"]=	c #C09598",
"^=	c #C09792",
"/=	c #BF9994",
"(=	c #BBAB9F",
"_=	c #B3C5AF",
":=	c #AAD8BE",
"<=	c #A3D3C4",
"[=	c #9DB1C0",
"}=	c #9889B9",
"|=	c #9669B2",
"1=	c #AB78A1",
"2=	c #B78898",
"3=	c #BF9092",
"4=	c #B08184",
"5=	c #80626E",
"6=	c #B59A93",
"7=	c #AFB2A1",
"8=	c #A8C2AD",
"9=	c #A3C1B3",
"0=	c #A1A8B0",
"a=	c #A089AC",
"b=	c #9F74A8",
"c=	c #A473A2",
"d=	c #AD7D98",
"e=	c #B48890",
"f=	c #8B777A",
"g=	c #8D8A84",
"h=	c #8E988F",
"i=	c #8C9691",
"j=	c #82828D",
"k=	c #88728D",
"l=	c #8D6B8D",
"m=	c #8C6988",
"n=	c #8D6E83",
"o=	c #8D717B",
"p=	c #B9908E",
"q=	c #876D77",
"r=	c #B08289",
"s=	c #BF9293",
"t=	c #C39995",
"u=	c #826670",
"v=	c #C29490",
"w=	c #B78588",
"x=	c #7F6670",
"y=	c #BB928F",
"z=	c #81636E",
"A=	c #90787D",
"B=	c #C9A49D",
"C=	c #B27B82",
"D=	c #B17B81",
"E=	c #B07880",
"F=	c #AF787F",
"G=	c #B07980",
"H=	c #B27C82",
"I=	c #B47F84",
"J=	c #BD8E8D",
"K=	c #BB8B8B",
"L=	c #BD928F",
"M=	c #907379",
"N=	c #AF767F",
"O=	c #BD8D8C",
"P=	c #AD737D",
"Q=	c #C49995",
"R=	c #906974",
"S=	c #BC8F8D",
"T=	c #765D6A",
"U=	c #9A6976",
"V=	c #846470",
"W=	c #AE7E82",
"X=	c #735E6A",
"Y=	c #B98788",
"        . + @ # $ % & & & & & & & & & & & & * =         . + @ # $ % & & & & % $ # @ + .         ",
"      - ; > , , ' ) ! ! ! ! ! ! ! ! ! ! ! ! ~ { ]     - ; > , , ' ) ! ! ! ! ) ' , , > ; -       ",
"^ / / ( _ : , , < [ ! ! ! ! } | 1 2 3 4 5 6 7 8 9 / / ( _ : , , < [ ! ! ! ! [ < , , : _ ( / = 0 ",
"a b b c d , , , ~ [ ! ! ! ! e f g h i j k l m n o b b c d , , , ~ [ ! ! ! ! [ ~ , , , d c b p q ",
", , , , , , , , ~ r ! ! ! ! ! ! ! ! ! ! ! ! ! s t : , , , , , , ~ r ! ! ! ! r ~ , , , , , , , # ",
"u v v v v v v w x y z A A z z B z y y y z A C @ D v v v v v v w x y z A A z y x w v v v v v E ( ",
"F G G G G G H I J K L M N O P Q R S T T U O V W X G G G G G H I J K L M N K O J I H G G G G F Y ",
", , , , , , Z `  .[ < ..C ! +.@.g #.#.#.$.e ! %.&., , , , , Z `  .! < ..C ! ! %.` Z , , , , , , ",
"~ ~ ~ ~ *.=.-.;.k A z >.A ! ! ! ! ,.,.,.! ! ! ) < ~ ~ ~ *.=.-.;.e } z >.A ! ! ! '.).~ ~ ~ ~ ~ ~ ",
"[ [ [ ! !.| ~.{.].^./.(.A ! ! ! ! ! ! ! ! ! ! ! [ [ [ ! !.| ~.{._.6 :.(.A ! ! ! ! [ [ [ [ [ [ [ ",
"! ! ! ! <.[.}.<.! ! |.s 1.2.3.4.5.6.7.8.9.0.a.b.5.4.c.d.e.f.g.7.h.h.i.j.1.k.! ! ! ! ! ! ! ! ! ! ",
"A z z B y y l.y y z m.X n.o.p.q.r.s.t.u.v.w.x.y.z.A.B.C.D.E.F.G.q.H.I.J.K.z z z z z z z z z z L.",
"..O P Q R S M.N.O.P.Q.R.S.T.U.V.W.X.Y.Z.`. +.+++@+#+$+%+&+*+=+-+;+>+,+'+)+O O O O O O O O K L M ",
"!+! +.@.g i ~+{+]+^+/+(+_+:+<+[+}+|+1+2+3+4+5+6+7+8+9+0+a+b+c+d+e+f+g+h+h.i+j+! ! ! ! ! ! ! ~ * ",
"[ ! ! ! ! ,.k k ,.k+l+m+n+o+p+q+r+s+t+u+v+w+x+y+z+A+B+C+D+E+F+G+H+I+J+K+L+M+N+! ! [ ! ! r O+k.& ",
"! ! ! ! ! ! ! ! ! P+Q+R+S+T+U+V+W+X+Y+Z+`+ @.@+@@@#@$@%@&@*@=@-@;@>@,@'@)@!@~@! 5 *.;.|.{@]@^@/@",
"! ! ! ! ! ! j+3.(@_@:@<@[@}@|@1@2@3@4@5@6@7@8@9@0@a@b@c@d@e@f@g@h@i@j@k@l@m@n@o@p@q@r@s@t@u@v@w@",
"x@z z z z y@z@A@B@C@D@E@F@G@H@I@J@K@L@M@N@O@P@Q@R@S@T@U@V@W@X@Y@Z@`@ #.#+#@###$#%#&#*#=#-#;#>#,#",
"V O O O O '#)#!#~#{#]#^#/#(#_#:#<#[#}#|#1#2#3#4#5#6#7#8#9#0#a#b#c#d#e#f#g#h#i#j#k#l#m#N.M.S U n#",
"! ! ! ! ! o#p#q#r#s#t#u#v#w#x#}#y#y#}#z#A#v#B#B#C#B#D#E#F#G#H#I#J#V+K#L#M#N#O#P#Q#R#S#{+~+i g ! ",
"T#T#T#T#T#U#V#W#X#Y#Z#`#/# $.$y#+$@$}#A##$$$%$&$*$=$-$;$>$,$'$)$!$~${$]$M#^$/$($_$:$<$k k ,.! ! ",
": : , [$[$}$|$1$2$3$4$5$6$7$8$}#9$9$}#M@0$a$b$c$d$e$f$g$h$i$j$k$l$m$n$o$M#/$p$($_$q$r$! ! ! ! ! ",
"s$t$a d , u$v$w$x$y$z$A$B$F@C$D$y#E$F$G$H$I$J$K$L$M$N$O$P$Q$R$S$T$U$V$W$X$Y$Z$`$ %p#o#! ! ! ! ! ",
".%+%@%o #%$%%%&%*%=%-%;%>%,%'%)%!%~%{%!%]%^%/%(%_%:%<%[%}%|%1%2%3%4%5%6%Y$7%8%9%0%a%b%L.c%c%c%c%",
"d%W e%f%g%h%i%j%k%l%m%n%o%a$p%q%r%s%D$G$r%t%u%v%w%x%y%z%A%B%C%D%E%F%G%H%I%J%K%L%M%N%O%P%Q%Q%Q%Q%",
"=.! ! $.#.i R%S%T%U%V%W%X%Y%Z%`%P@ &M@G$.&B$+&@&#&$&%&&&*&=&-&;&>&,&'&)&l@!&~&{&]&^&/&; ]       ",
"[ ! ! ! ,.,.,.! ! (&_&:&<&[&}&|&1&2&M@8$3&4&5&6&7&8&9&0&a&b&c&d&;&e&f&g&)@!@h&< , , : _ ( / = 0 ",
"! ! ! ! ! ! ! ! ! i&j&k&l&m&n&|&o&p&B#8$q&r&s&t&u&b&a&v&w&x&y&z&A&B&C&K+L+D&N+~ , , , d c b p q ",
"! ! ! ! ! ! ! ! +.E&F&G&H&I&J&K&L&M&N&O&P&Q&R&x&S&T&U&c&%&V&W&X&Y&Z&`&D&h.i+ *~ , , , , , , , # ",
".*y z z z z z z z z z A +*@*#*$*%*&*M&7$**=*-*;*>*,*'*)*!*~*{*]*^*/*(*_*A z y x w v v v v v E ( ",
":*T U O O O O O O K L M <*[*}*|*1*2*3*4*5*6*7*8*9*0*a*b*c*d*e*f*g*h*i*j*N K O J I H G G G G F Y ",
"#.#.$.e ! ! ! ! ! ! k*..l*m*n*o*p*q*r*s*t*u*v*w*x*y*z*A*B*C*D*E*o#h.F*G*C ! ! %.` Z , , , , , , ",
",.,.! ! r H*I*1 _.6 J*K*c%! ! L*M*N*O*P*Q*R*S*T*U*V*W*X*Y*Z*`* =.=6 J*K*c%! ! ! '.).~ ~ ~ ~ ~ ~ ",
"! ! ! ! +=$.#.g k l m @=1.! ! ! #=$=%=&=*===-=;=>=,='=)=!=~={=]=k l m @=1.! ! ! ! [ [ [ [ [ [ [ ",
"! ! ! ! ! ! ! ! ! ! ! K z k.! ! L*^=/=(=_=:=<=[=}=|=Y*1=2=3=i+j+! ! ! K z k.! ! ! ! ! ! ! ! ! ! ",
"A z z B z y y y y 1.4=5=K.z z z z z z 6=7=8=9=0=a=b=c=d=e=y y y y 1.4=5=K.z z z z z z z z z z L.",
"..O P Q R S M.N.O.P.Q.R.)+O O O O O O f=g=h=i=j=k=l=m=n=o=S M.N.O.P.Q.R.)+O O O O O O O O K L M ",
"!+! +.@.g i ~+{+]+$.#.$.! ! ! ! ! ! ! +.^=n*p=q=r=h.s=a.t=i ~+{+]+$.#.$.! ! ! ! ! ! ! ! ! ! ~ * ",
"[ ! ! ! ! ,.k k ,.! ,.! ! ! ! ! ! [ ! ! r O+k.K A ! ! ! ! ,.k k ,.! ,.! ! ! ! ! ! [ ! ! r O+k.& ",
"! ! ! ! ! ! ! ! ! ! ! ! ! ! ! ! 5 *.;.|.{@]@^@u=A ! ! ! ! ! ! ! ! ! ! ! ! ! ! ! 5 *.;.|.{@]@^@/@",
"! ! ! ! ! ! ! ! ! ! ! ! ! ! ! v=< w=r@s@t@u@v@x=A k.! ! ! ! ! ! ! ! ! ! ! ! ! v=< w=r@s@t@u@v@w@",
"x@z z z z z z z z z z A A z z B z A y==#-#;#>#z=K.z z z z z z z z z z A A z z B z A y==#-#;#>#,#",
"V O O O O O O O O K L M N O P Q R T A=N.M.S U n#)+O O O O O O O O K L M N O P Q R T A=N.M.S U n#",
"! ! ! ! ! ! ! ! ! ! ~ ..C ! +.@.g #.B={+~+i g ! ! ! ! ! ! ! ! ! ! ! k*..C ! +.@.g #.B={+~+i g ! ",
"T#T#T#T#T#T#C=~ ! ! ! P A ! ! ! ~ D=E=F=E=G=G=H='.! '.I=4 |.J=K=L=M=J*K*c%! ! ! ~ D=E=F=E=G=G=T#",
": : , [$[$[$[$N=O=! ! O z ! ! O=N=[$[$[$[$, : P=%.! e r@j '.$.]+Q=/=m @=1.! ! O=N=[$[$[$[$, : : ",
"t$t$a d , , , , ~ [ ! O z ! [ ~ , , , , d a t$R=S=! ! ! ! ! ! ! ! ! ! O z ! [ ~ , , , , d a t$t$",
"] ] T=U=, , , , ` ! =.V=W=! k ` , , , , U=T=] X=L.! ! ! ! ! ! ! ! [ Y=V=W=! k ` , , , , U=T=] ] "};
