/* XPM */
static char * coindiamond2_xpm[] = {
"48 48 935 2",
"  	c #6D5A67",
". 	c #725B69",
"+ 	c #7D606C",
"@ 	c #7F616D",
"# 	c #7F606D",
"$ 	c #81646F",
"% 	c #856A73",
"& 	c #866B73",
"* 	c #826570",
"= 	c #715B68",
"- 	c #6C5A67",
"; 	c #85626F",
"> 	c #A86F7A",
", 	c #AA707B",
"' 	c #B68386",
") 	c #C09290",
"! 	c #C19390",
"~ 	c #BB8A8A",
"{ 	c #80646F",
"] 	c #6B5966",
"^ 	c #705B68",
"/ 	c #725C69",
"( 	c #775D6B",
"_ 	c #9A6A76",
": 	c #AB707B",
"< 	c #BB8A8B",
"[ 	c #C19490",
"} 	c #BF918F",
"| 	c #B88688",
"1 	c #BA898A",
"2 	c #B37E84",
"3 	c #B47F85",
"4 	c #B37E83",
"5 	c #BE8E8D",
"6 	c #B38A89",
"7 	c #8A6E75",
"8 	c #755F6B",
"9 	c #6F5B68",
"0 	c #6E5A67",
"a 	c #996976",
"b 	c #A56E79",
"c 	c #A66E7A",
"d 	c #A9707B",
"e 	c #C19290",
"f 	c #C29692",
"g 	c #C49A95",
"h 	c #C59C97",
"i 	c #C8A29B",
"j 	c #C39894",
"k 	c #C0928F",
"l 	c #BF928F",
"m 	c #B48687",
"n 	c #82656F",
"o 	c #946774",
"p 	c #9C6B77",
"q 	c #785E6B",
"r 	c #C29491",
"s 	c #896B74",
"t 	c #A36D79",
"u 	c #986976",
"v 	c #A46E79",
"w 	c #A36E79",
"x 	c #AD7C81",
"y 	c #B88C8B",
"z 	c #B88D8C",
"A 	c #B98E8C",
"B 	c #B88D8B",
"C 	c #B18285",
"D 	c #936774",
"E 	c #9B6A77",
"F 	c #81616E",
"G 	c #83626E",
"H 	c #82626E",
"I 	c #84636F",
"J 	c #886A73",
"K 	c #8B6E76",
"L 	c #876972",
"M 	c #79606C",
"N 	c #846670",
"O 	c #8B6E75",
"P 	c #8B6F76",
"Q 	c #8D7379",
"R 	c #8D7278",
"S 	c #8F777C",
"T 	c #8F767B",
"U 	c #8C7077",
"V 	c #896C74",
"W 	c #846972",
"X 	c #81626E",
"Y 	c #7E606D",
"Z 	c #AB717C",
"` 	c #B58084",
" .	c #BF918E",
"..	c #866771",
"+.	c #C19491",
"@.	c #C59B96",
"#.	c #C8A19A",
"$.	c #C39793",
"%.	c #BF908E",
"&.	c #AC737D",
"*.	c #BB898A",
"=.	c #B98789",
"-.	c #BA8789",
";.	c #BE8F8D",
">.	c #896D75",
",.	c #C1928F",
"'.	c #C0918F",
").	c #BC8B8B",
"!.	c #C39893",
"~.	c #BA8B8C",
"{.	c #BC8C8C",
"].	c #B8898A",
"^.	c #907278",
"/.	c #886B73",
"(.	c #7B626D",
"_.	c #BE8D8C",
":.	c #896B73",
"<.	c #C59A95",
"[.	c #C49894",
"}.	c #C8A099",
"|.	c #BD8D8D",
"1.	c #B98D8C",
"2.	c #C29390",
"3.	c #B78B8A",
"4.	c #B08185",
"5.	c #A77880",
"6.	c #B68B8E",
"7.	c #B5898F",
"8.	c #B58991",
"9.	c #B78C94",
"0.	c #BA9298",
"a.	c #BE9A9B",
"b.	c #C19E9D",
"c.	c #C1A09E",
"d.	c #C19F9D",
"e.	c #BF9B9C",
"f.	c #BC9498",
"g.	c #B88D95",
"h.	c #B58992",
"i.	c #B48A92",
"j.	c #B48F92",
"k.	c #B59593",
"l.	c #B59693",
"m.	c #B49091",
"n.	c #B48B91",
"o.	c #B48890",
"p.	c #B58990",
"q.	c #AF7F87",
"r.	c #81626F",
"s.	c #A7797F",
"t.	c #BA8E8C",
"u.	c #927D82",
"v.	c #927E83",
"w.	c #8F787D",
"x.	c #8C7177",
"y.	c #8E757A",
"z.	c #866C74",
"A.	c #876976",
"B.	c #89677E",
"C.	c #896387",
"D.	c #8D6691",
"E.	c #97749A",
"F.	c #A78DA6",
"G.	c #B8A8B1",
"H.	c #C0B7B7",
"I.	c #C3BABA",
"J.	c #C1B8B8",
"K.	c #B8A9B2",
"L.	c #A48BA6",
"M.	c #98719B",
"N.	c #906995",
"O.	c #8D6F94",
"P.	c #8F8898",
"Q.	c #92A19C",
"R.	c #94A79E",
"S.	c #94959F",
"T.	c #927E9C",
"U.	c #8F6D95",
"V.	c #8D678B",
"W.	c #8E6F84",
"X.	c #866B77",
"Y.	c #886B74",
"Z.	c #B98688",
"`.	c #CDADA5",
" +	c #CEAEA6",
".+	c #C9A39C",
"++	c #BD8D92",
"@+	c #B18198",
"#+	c #A673A1",
"$+	c #A270AB",
"%+	c #B185B8",
"&+	c #C8AAC9",
"*+	c #DED0D9",
"=+	c #EAE2E0",
"-+	c #EEE8E4",
";+	c #EBE4E1",
">+	c #E0D2DA",
",+	c #C0A8C7",
"'+	c #B183B9",
")+	c #A473AF",
"!+	c #9F7CAD",
"~+	c #A39FB3",
"{+	c #A6C1B8",
"]+	c #A9C9BB",
"^+	c #A8B0B9",
"/+	c #A68EB4",
"(+	c #A477AD",
"_+	c #AA77A4",
":+	c #B98DA1",
"<+	c #BF9296",
"[+	c #C1938F",
"}+	c #C09591",
"|+	c #C09692",
"1+	c #BF9A94",
"2+	c #B9909A",
"3+	c #AD80A2",
"4+	c #A171AD",
"5+	c #A071B9",
"6+	c #B48DC8",
"7+	c #CEB9DA",
"8+	c #E8E1EB",
"9+	c #F5F5F3",
"0+	c #FAFBF6",
"a+	c #F6F7F4",
"b+	c #EBE4EC",
"c+	c #D0BDDB",
"d+	c #B290C8",
"e+	c #9B74BA",
"f+	c #937BB6",
"g+	c #959FBB",
"h+	c #9AC1C0",
"i+	c #9CC7C1",
"j+	c #99ACBD",
"k+	c #9587B9",
"l+	c #966DB3",
"m+	c #9F6EAB",
"n+	c #AD7CA1",
"o+	c #B88A98",
"p+	c #BE9093",
"q+	c #BF9192",
"r+	c #C09291",
"s+	c #C39491",
"t+	c #BE9E94",
"u+	c #B9A79B",
"v+	c #B6AFA1",
"w+	c #B3AAAA",
"x+	c #AF9AB3",
"y+	c #AF90BF",
"z+	c #B492CB",
"A+	c #C5A9D6",
"B+	c #DACAE3",
"C+	c #EDE8F0",
"D+	c #F7F7F6",
"E+	c #FBFCF9",
"F+	c #F8F9F7",
"G+	c #ECEBEF",
"H+	c #D3CDE0",
"I+	c #B3A9CD",
"J+	c #9A8FBE",
"K+	c #908CB9",
"L+	c #909ABA",
"M+	c #94A9BD",
"N+	c #95ACBE",
"O+	c #94A2BD",
"P+	c #9393BB",
"Q+	c #9186B9",
"R+	c #9981B3",
"S+	c #A47FA9",
"T+	c #AE81A2",
"U+	c #B5859B",
"V+	c #B98A97",
"W+	c #BE8F93",
"X+	c #AF8687",
"Y+	c #A88284",
"Z+	c #A47B80",
"`+	c #7C616D",
" @	c #BBA899",
".@	c #B2B8A5",
"+@	c #ACC6B0",
"@@	c #ADCABC",
"#@	c #B6C3C7",
"$@	c #C5C0D4",
"%@	c #D2C2DF",
"&@	c #DECEE6",
"*@	c #E8DFED",
"=@	c #F1EEF2",
"-@	c #F6F6F6",
";@	c #FAF9F8",
">@	c #ECEFF0",
",@	c #D4DFE2",
"'@	c #B6CBD2",
")@	c #9DB7C3",
"!@	c #92A5BC",
"~@	c #8F95B9",
"{@	c #908AB8",
"]@	c #9189B9",
"^@	c #9295BA",
"/@	c #93A5BD",
"(@	c #94ACBE",
"_@	c #98A0B9",
":@	c #9C89B2",
"<@	c #A077AC",
"[@	c #A776A5",
"}@	c #B17F9E",
"|@	c #BB8B96",
"1@	c #C29490",
"2@	c #B78588",
"3@	c #C19592",
"4@	c #BF9290",
"5@	c #A98C8B",
"6@	c #97777C",
"7@	c #97767B",
"8@	c #79626D",
"9@	c #AE7D82",
"0@	c #B78C8D",
"a@	c #B68F91",
"b@	c #B0A49E",
"c@	c #A9BFAF",
"d@	c #A6D6BE",
"e@	c #ADE1CC",
"f@	c #C2E4D8",
"g@	c #D8E7E5",
"h@	c #EBEAEF",
"i@	c #F2EDF3",
"j@	c #F4F1F4",
"k@	c #F4F4F5",
"l@	c #F6F5F5",
"m@	c #F8F6F7",
"n@	c #F7F6F6",
"o@	c #EDF3F1",
"p@	c #D8EFE6",
"q@	c #BDE8D8",
"r@	c #A6DACB",
"s@	c #9ABFC3",
"t@	c #9699BD",
"u@	c #957BBA",
"v@	c #9676B9",
"w@	c #9893BD",
"x@	c #9CB9C3",
"y@	c #9DCDC5",
"z@	c #9CBAC2",
"A@	c #9893BA",
"B@	c #956FB4",
"C@	c #9965AC",
"D@	c #A370A2",
"E@	c #AE8098",
"F@	c #B58A8F",
"G@	c #B88D8D",
"H@	c #BB928F",
"I@	c #BA918E",
"J@	c #BD9591",
"K@	c #BB8F8D",
"L@	c #B38386",
"M@	c #7E616D",
"N@	c #8B6D77",
"O@	c #8A6A7C",
"P@	c #8A6881",
"Q@	c #8C6C8B",
"R@	c #958BA0",
"S@	c #A0B6B6",
"T@	c #AFDACC",
"U@	c #BFEBD9",
"V@	c #D2F1E3",
"W@	c #E6F6ED",
"X@	c #F5F8F5",
"Y@	c #F9F9F7",
"Z@	c #F8F7F7",
"`@	c #F6F6F5",
" #	c #F7F5F6",
".#	c #F6F5F6",
"+#	c #EFF4F2",
"@#	c #E0F5EA",
"##	c #CCF3E0",
"$#	c #BCEBD7",
"%#	c #B2D3D1",
"&#	c #AEB0CB",
"*#	c #AD93C8",
"=#	c #AE8FC8",
"-#	c #B1ACCC",
";#	c #B4D0D1",
">#	c #B4E1D3",
",#	c #ACC8CC",
"'#	c #A099C2",
")#	c #956DB8",
"!#	c #8E58AE",
"~#	c #8C59A2",
"{#	c #8C6296",
"]#	c #8E6C8D",
"^#	c #8D6D86",
"/#	c #8F7382",
"(#	c #90777F",
"_#	c #856972",
":#	c #BE8F92",
"<#	c #B58597",
"[#	c #AB7A9D",
"}#	c #A676A5",
"|#	c #AC8BB5",
"1#	c #B9B4C9",
"2#	c #CADCDB",
"3#	c #D9F0E6",
"4#	c #E5F7ED",
"5#	c #EFF8F2",
"6#	c #F6F9F6",
"7#	c #F8F8F7",
"8#	c #F5F6F5",
"9#	c #F5F5F5",
"0#	c #F2F5F4",
"a#	c #EAF6F0",
"b#	c #E0F6EB",
"c#	c #D8F1E6",
"d#	c #D3E5E3",
"e#	c #D1D1E0",
"f#	c #D0C1DE",
"g#	c #D1C0DE",
"h#	c #D4D3E1",
"i#	c #D6E8E4",
"j#	c #D2ECE3",
"k#	c #C3CED8",
"l#	c #AD9CC9",
"m#	c #996EBB",
"n#	c #9058B2",
"o#	c #965EAC",
"p#	c #9E6AA9",
"q#	c #A879A8",
"r#	c #B083A2",
"s#	c #BD94A0",
"t#	c #C6A09F",
"u#	c #B07981",
"v#	c #AD7687",
"w#	c #A66E94",
"x#	c #A06CA4",
"y#	c #9E6BB1",
"z#	c #AB85C0",
"A#	c #C4B1D3",
"B#	c #DCDCE6",
"C#	c #EBF3F0",
"D#	c #F2F9F4",
"E#	c #F4F7F4",
"F#	c #F4F5F4",
"G#	c #F1F5F3",
"H#	c #EEF4F1",
"I#	c #E9EFEE",
"J#	c #E8E9EE",
"K#	c #E8E4ED",
"L#	c #E8E3ED",
"M#	c #ECF0F0",
"N#	c #E5E9EC",
"O#	c #D2C9DF",
"P#	c #B699CD",
"Q#	c #9D6DBC",
"R#	c #9057B2",
"S#	c #8F55B0",
"T#	c #925AB0",
"U#	c #9963AE",
"V#	c #A472A7",
"W#	c #B2819D",
"X#	c #BD8D93",
"Y#	c #AA6F7B",
"Z#	c #A97086",
"`#	c #A66F9A",
" $	c #A774B1",
".$	c #A97FC1",
"+$	c #B497CC",
"@$	c #C6BAD8",
"#$	c #D9DEE5",
"$$	c #E6F2ED",
"%$	c #EDF8F1",
"&$	c #F2F6F4",
"*$	c #F3F5F4",
"=$	c #EFF5F2",
"-$	c #EAF4EF",
";$	c #E5F1ED",
">$	c #E3ECEB",
",$	c #E2E3EA",
"'$	c #E1DBE9",
")$	c #E1D6E8",
"!$	c #E3D7E9",
"~$	c #E3D6E9",
"{$	c #DDCCE5",
"]$	c #CBB1DA",
"^$	c #B28BCA",
"/$	c #9B69BB",
"($	c #8F56B3",
"_$	c #8C52B1",
":$	c #8E54B2",
"<$	c #9159B2",
"[$	c #9F6CAA",
"}$	c #AF7F9F",
"|$	c #BC8D95",
"1$	c #8C6571",
"2$	c #8B6571",
"3$	c #AE798B",
"4$	c #B68AA9",
"5$	c #BF9CC4",
"6$	c #C5AED6",
"7$	c #C5BAD7",
"8$	c #C4CDD9",
"9$	c #C5E1DB",
"0$	c #CDEDE0",
"a$	c #DBF3E8",
"b$	c #EBF4F0",
"c$	c #F9F6F7",
"d$	c #F8F6F6",
"e$	c #F1F4F3",
"f$	c #E6F4ED",
"g$	c #D8F2E6",
"h$	c #CCEBE0",
"i$	c #C6DDDB",
"j$	c #C4C7D8",
"k$	c #C3B3D6",
"l$	c #C2A5D4",
"m$	c #C3A1D4",
"n$	c #C39FD4",
"o$	c #BF99D1",
"p$	c #B489CA",
"q$	c #A574C1",
"r$	c #9760B8",
"s$	c #8D54B2",
"t$	c #8E55B3",
"u$	c #9E6AAB",
"v$	c #AE7EA0",
"w$	c #BB8D95",
"x$	c #6A5966",
"y$	c #6A5866",
"z$	c #745B69",
"A$	c #A36C78",
"B$	c #AD818D",
"C$	c #C2A3B2",
"D$	c #D6C2D2",
"E$	c #DED7E5",
"F$	c #D4DEE3",
"G$	c #C2E1DA",
"H$	c #B3E5D3",
"I$	c #B6E9D4",
"J$	c #C9EDDE",
"K$	c #E1F2EB",
"L$	c #F2F4F3",
"M$	c #F8F5F6",
"N$	c #EEF4F2",
"O$	c #DCF3E8",
"P$	c #C5F0DC",
"Q$	c #B1E5D2",
"R$	c #A7CCCA",
"S$	c #A3A8C5",
"T$	c #A186C1",
"U$	c #A072BE",
"V$	c #A06CBE",
"W$	c #A06EBE",
"X$	c #9F6EBD",
"Y$	c #9B68BB",
"Z$	c #9661B8",
"`$	c #925AB5",
" %	c #925AB1",
".%	c #9D6AA9",
"+%	c #AA7C9D",
"@%	c #BA8E8D",
"#%	c #7F626E",
"$%	c #836972",
"%%	c #886C75",
"&%	c #8D737A",
"*%	c #9D888E",
"=%	c #BBADB1",
"-%	c #D5CDCF",
";%	c #E1E1E0",
">%	c #D7E7DF",
",%	c #C4E6D8",
"'%	c #B3E7D3",
")%	c #B3E8D3",
"!%	c #C1EBDA",
"~%	c #D6EFE5",
"{%	c #E5F2ED",
"]%	c #EDF4F1",
"^%	c #D7F3E6",
"/%	c #BBEFD7",
"(%	c #A3E2CA",
"_%	c #97C3C1",
":%	c #9298BB",
"<%	c #906FB6",
"[%	c #8F59B3",
"}%	c #9063B5",
"|%	c #916AB6",
"1%	c #9067B5",
"2%	c #9060B4",
"3%	c #8F5AB3",
"4%	c #8F56B2",
"5%	c #8F57B0",
"6%	c #8E59AD",
"7%	c #8D5AA8",
"8%	c #8B5D9C",
"9%	c #88608A",
"0%	c #846378",
"a%	c #78606C",
"b%	c #745F6A",
"c%	c #CCA9A2",
"d%	c #D5BAB5",
"e%	c #DCC8C4",
"f%	c #DFD4CF",
"g%	c #DCDFD6",
"h%	c #D2E4D9",
"i%	c #C9EADB",
"j%	c #C5ECDC",
"k%	c #C8ECDE",
"l%	c #CEEEE1",
"m%	c #D8F0E6",
"n%	c #F0F4F2",
"o%	c #FAF6F7",
"p%	c #D6F3E5",
"q%	c #B9EFD6",
"r%	c #A1E1C9",
"s%	c #94C0C0",
"t%	c #8E91B8",
"u%	c #8D67B3",
"v%	c #8C57B2",
"w%	c #8D65B4",
"x%	c #907FB7",
"y%	c #918FBA",
"z%	c #9187B9",
"A%	c #9073B6",
"B%	c #8F60B4",
"C%	c #925AB2",
"D%	c #9A63AD",
"E%	c #A26EA8",
"F%	c #A36EA0",
"G%	c #A16793",
"H%	c #A56B89",
"I%	c #A66E7F",
"J%	c #C39693",
"K%	c #C79F9C",
"L%	c #CCA9A6",
"M%	c #CFB3AF",
"N%	c #D5C5C1",
"O%	c #DCDAD6",
"P%	c #DFEBE4",
"Q%	c #D9F0E7",
"R%	c #CAEDDF",
"S%	c #BBEAD7",
"T%	c #C2EBDB",
"U%	c #ECF3F1",
"V%	c #FBF6F8",
"W%	c #BAEFD7",
"X%	c #A3E1CA",
"Y%	c #96C1C1",
"Z%	c #9193BA",
"`%	c #8F6BB5",
" &	c #8F62B4",
".&	c #917DB8",
"+&	c #95A4BD",
"@&	c #97B9C1",
"#&	c #96AABF",
"$&	c #9388BA",
"%&	c #955FB0",
"&&	c #A16CA8",
"*&	c #AE7DA0",
"=&	c #B28096",
"-&	c #A66D85",
";&	c #A86E81",
">&	c #AA6F7D",
",&	c #C29592",
"'&	c #C49B98",
")&	c #D0B2B1",
"!&	c #E0CDCD",
"~&	c #E9E2E1",
"{&	c #E1EBE5",
"]&	c #C9E9DB",
"^&	c #B0E6D1",
"/&	c #A7E6CD",
"(&	c #B5E9D4",
"_&	c #D1EEE2",
":&	c #EAF3F0",
"<&	c #D7F2E6",
"[&	c #BBEED7",
"}&	c #A4E2CB",
"|&	c #97C6C2",
"1&	c #939EBC",
"2&	c #927CB8",
"3&	c #9275B7",
"4&	c #948FBB",
"5&	c #97B2C0",
"6&	c #99C5C3",
"7&	c #99B4BF",
"8&	c #9791B9",
"9&	c #9670B3",
"0&	c #9D69AB",
"a&	c #A976A2",
"b&	c #B68799",
"c&	c #B9888D",
"d&	c #AA707C",
"e&	c #CAA5A4",
"f&	c #D8BBBC",
"g&	c #D8D8D3",
"h&	c #C1DCCD",
"i&	c #AAE1C9",
"j&	c #A2E5CA",
"k&	c #D0EEE2",
"l&	c #ECF3F0",
"m&	c #FDF6F9",
"n&	c #D5F1E5",
"o&	c #B9ECD6",
"p&	c #A2E3CA",
"q&	c #97D1C2",
"r&	c #94B8BF",
"s&	c #95A1BD",
"t&	c #9597BC",
"u&	c #969CBD",
"v&	c #96A6BE",
"w&	c #97AABF",
"x&	c #9A9DBA",
"y&	c #9E8AB2",
"z&	c #A37AAB",
"A&	c #AA79A3",
"B&	c #B2819C",
"C&	c #BC8D96",
"D&	c #AD7C82",
"E&	c #BD9696",
"F&	c #C4A2A3",
"G&	c #CBADAD",
"H&	c #C4BBB4",
"I&	c #B3CAB9",
"J&	c #A4D9C0",
"K&	c #A2E4CA",
"L&	c #D5F0E5",
"M&	c #B9EBD6",
"N&	c #98DDC4",
"O&	c #96D4C3",
"P&	c #98C8C2",
"Q&	c #98B9C1",
"R&	c #96A5BE",
"S&	c #9492BB",
"T&	c #9382B9",
"U&	c #997CB2",
"V&	c #A27CA8",
"W&	c #AB809D",
"X&	c #B18496",
"Y&	c #B38692",
"Z&	c #B6898E",
"`&	c #8D747A",
" *	c #8D7179",
".*	c #8B6F78",
"+*	c #806A75",
"@*	c #8C8987",
"#*	c #92AD9E",
"$*	c #96CAB3",
"%*	c #A0DCC3",
"&*	c #B3E5D1",
"**	c #CDECDF",
"=*	c #E4F1EC",
"-*	c #AAE6CE",
";*	c #9FE2C8",
">*	c #9CE0C6",
",*	c #9BD8C6",
"'*	c #96A4BC",
")*	c #9380B6",
"!*	c #8F66B0",
"~*	c #8E5FA4",
"{*	c #8A6092",
"]*	c #7D5E7C",
"^*	c #846573",
"/*	c #8B6D78",
"(*	c #BA8A8A",
"_*	c #AE8B89",
":*	c #B5AD9F",
"<*	c #AEBFAC",
"[*	c #AFD0BA",
"}*	c #B6D9C6",
"|*	c #C4E4D5",
"1*	c #D1EDE2",
"2*	c #DDF0E9",
"3*	c #E9F3EF",
"4*	c #E4F3EC",
"5*	c #D1F0E2",
"6*	c #BEE9D9",
"7*	c #B1DFD1",
"8*	c #A6D1CA",
"9*	c #9EC1C4",
"0*	c #99AFBF",
"a*	c #9994B7",
"b*	c #9E7DAF",
"c*	c #A272A9",
"d*	c #AB77A1",
"e*	c #AF7C96",
"f*	c #876577",
"g*	c #B68387",
"h*	c #B88588",
"i*	c #8A6D75",
"j*	c #7C646E",
"k*	c #B8918E",
"l*	c #BBA097",
"m*	c #B8AB9E",
"n*	c #B6B7A8",
"o*	c #B5C7B5",
"p*	c #B4D7C4",
"q*	c #B8E6D3",
"r*	c #EAF3EF",
"s*	c #F1F6F3",
"t*	c #E7F5EE",
"u*	c #D8EDE6",
"v*	c #C7D7DB",
"w*	c #B1B8CD",
"x*	c #9F9AC2",
"y*	c #9686B8",
"z*	c #9A7BAC",
"A*	c #A479A3",
"B*	c #AF7D9C",
"C*	c #AB7E94",
"D*	c #8A687F",
"E*	c #7D6371",
"F*	c #C59C96",
"G*	c #866972",
"H*	c #B98E8D",
"I*	c #BF9994",
"J*	c #BDA199",
"K*	c #B6B4A5",
"L*	c #ADCAB5",
"M*	c #A9DCC4",
"N*	c #B2E6D0",
"O*	c #C8EBDD",
"P*	c #E0F0E9",
"Q*	c #F5F9F5",
"R*	c #D9D3E3",
"S*	c #BDA6D0",
"T*	c #A37EBF",
"U*	c #9A6DB1",
"V*	c #A67BA9",
"W*	c #B3889F",
"X*	c #BB8C94",
"Y*	c #BD8F91",
"Z*	c #B38589",
"`*	c #866973",
" =	c #C09691",
".=	c #B9A79C",
"+=	c #AFBBA8",
"@=	c #A9CCB5",
"#=	c #AED7C2",
"$=	c #BDE1CF",
"%=	c #CEEBDE",
"&=	c #DDF1E9",
"*=	c #EAF5EF",
"==	c #F2F8F4",
"-=	c #F3F2F4",
";=	c #E3D5E7",
">=	c #C8A8D0",
",=	c #AE7FB9",
"'=	c #A470A8",
")=	c #AB799E",
"!=	c #B78896",
"~=	c #B08184",
"{=	c #80626E",
"]=	c #B49892",
"^=	c #B0A69A",
"/=	c #ADB2A3",
"(=	c #AEC1B0",
"_=	c #B1D2BF",
":=	c #B8E2D0",
"<=	c #C3ECDB",
"[=	c #D4F0E4",
"}=	c #F1F3F3",
"|=	c #E9DDE8",
"1=	c #D1B4CE",
"2=	c #B78CB0",
"3=	c #AC7B9B",
"4=	c #AE7F94",
"5=	c #B4868F",
"6=	c #8B6F75",
"7=	c #8B7478",
"8=	c #8C7B7C",
"9=	c #8D8281",
"0=	c #919B92",
"a=	c #96BAA8",
"b=	c #9FD3BD",
"c=	c #ADE4CD",
"d=	c #D9EFE6",
"e=	c #EAEFEE",
"f=	c #E3DDE1",
"g=	c #C8B9C4",
"h=	c #A58D9E",
"i=	c #907585",
"j=	c #917A86",
"k=	c #927D85",
"l=	c #BCA098",
"m=	c #B2B5A5",
"n=	c #AAC9B3",
"o=	c #A9D4BD",
"p=	c #B1D7C6",
"q=	c #CEDED5",
"r=	c #E3E1DF",
"s=	c #E5D7D7",
"t=	c #DCC5C2",
"u=	c #CDACA8",
"v=	c #BE9993",
"w=	c #B9A89C",
"x=	c #B4B5A5",
"y=	c #B3BEAC",
"z=	c #A1B5AB",
"A=	c #C6C3BC",
"B=	c #D6C7C3",
"C=	c #D8C0BE",
"D=	c #D0B0AE",
"E=	c #C59C9A",
"F=	c #BC908F",
"G=	c #AD8F8C",
"H=	c #A6928E",
"I=	c #A4928F",
"J=	c #8D8787",
"K=	c #BEA39F",
"L=	c #C8A7A4",
"M=	c #C9A4A1",
"N=	c #C69E9B",
"O=	c #C39794",
"P=	c #7F6670",
"Q=	c #81636E",
"R=	c #90787D",
"S=	c #C9A49D",
"T=	c #B27B82",
"U=	c #B17B81",
"V=	c #B07880",
"W=	c #AF787F",
"X=	c #B07980",
"Y=	c #B27C82",
"Z=	c #B47F84",
"`=	c #BD8E8D",
" -	c #BB8B8B",
".-	c #BD928F",
"+-	c #907379",
"@-	c #AF767F",
"#-	c #BD8D8C",
"$-	c #AD737D",
"%-	c #C49995",
"&-	c #906974",
"*-	c #BC8F8D",
"=-	c #765D6A",
"--	c #9A6976",
";-	c #846470",
">-	c #AE7E82",
",-	c #735E6A",
"'-	c #B98788",
"        . + @ # $ % & & & & & & & & & & & & * =         . + @ # $ % & & & & % $ # @ + .         ",
"      - ; > , , ' ) ! ! ! ! ! ! ! ! ! ! ! ! ~ { ]     - ; > , , ' ) ! ! ! ! ) ' , , > ; -       ",
"^ / / ( _ : , , < [ ! ! ! ! } | 1 2 3 4 5 6 7 8 9 / / ( _ : , , < [ ! ! ! ! [ < , , : _ ( / = 0 ",
"a b b c d , , , ~ [ ! ! ! ! e f g h i j k l m n o b b c d , , , ~ [ ! ! ! ! [ ~ , , , d c b p q ",
", , , , , , , , ~ r ! ! ! ! ! ! ! ! ! ! ! ! ! s t : , , , , , , ~ r ! ! ! ! r ~ , , , , , , , # ",
"u v v v v v v w x y z A A z z B z y y y z A C @ D v v v v v v w x y z A A z y x w v v v v v E ( ",
"F G G G G G H I J K L M N O P Q R S T T U O V W X G G G G G H I J K L M N K O J I H G G G G F Y ",
", , , , , , Z `  .[ < ..C ! +.@.g #.#.#.$.e ! %.&., , , , , Z `  .! < ..C ! ! %.` Z , , , , , , ",
"~ ~ ~ ~ *.=.-.;.k A z >.A ! ! ! ! ,.,.,.! ! ! ) < ~ ~ ~ *.=.-.;.e } z >.A ! ! ! '.).~ ~ ~ ~ ~ ~ ",
"[ [ [ ! !.| ~.{.].^./.(.A ! ! ! ! ! ! ! ! ! ! ! [ [ [ ! !.| ~.{._.6 :.(.A ! ! ! ! [ [ [ [ [ [ [ ",
"! ! ! ! <.[.}.<.! ! |.s 1.2.! ! ! ! ! ! ! ! ! ! ! ! ! ! <.[.}.<.! ! |.s 1.2.! ! ! ! ! ! ! ! ! ! ",
"A z z B y y 3.y y z 4.X 5.6.7.8.9.0.a.b.c.d.e.f.g.h.i.j.k.l.m.n.o.p.q.r.s.z z z z z z z z z z t.",
"..O P Q R S u.v.w.x.y.z.A.B.C.D.E.F.G.H.I.J.K.L.M.N.O.P.Q.R.S.T.U.V.W.X.Y.O O O O O O O O K L M ",
"Z.! +.@.g i `. +.+$.#.$.++@+#+$+%+&+*+=+-+;+>+,+'+)+!+~+{+]+^+/+(+_+:+<+! ! ! ! ! ! ! ! ! ! ~ * ",
"[ ! ! ! ! ,.k k [+}+|+1+2+3+4+5+6+7+8+9+0+a+b+c+d+e+f+g+h+i+j+k+l+m+n+o+p+q+r+! ! [ ! ! r s+2.& ",
"! ! ! ! ! ! ! ! ! t+u+v+w+x+y+z+A+B+C+D+E+F+G+H+I+J+K+L+M+N+O+P+Q+R+S+T+U+V+W+! 5 *.;.|.X+Y+Z+`+",
"! ! ! ! ! ! ! ! !  @.@+@@@#@$@%@&@*@=@-@;@D+>@,@'@)@!@~@{@]@^@/@(@_@:@<@[@}@|@1@< 2@3@4@5@6@7@8@",
"9@z z z z z 0@0@a@b@c@d@e@f@g@h@i@j@k@l@m@n@o@p@q@r@s@t@u@v@w@x@y@z@A@B@C@D@E@F@0@G@H@I@J@K@L@M@",
"V O O O O N@O@P@Q@R@S@T@U@V@W@X@Y@Z@`@l@ #.#+#@###$#%#&#*#=#-#;#>#,#'#)#!#~#{#]#^#/#(#v.u.S U _#",
"! ! ! ! ! :#<#[#}#|#1#2#3#4#5#6#7#D+8#9#l@l@0#a#b#c#d#e#f#g#h#i#j#k#l#m#n#o#p#q#r#s#t# +`.i g ! ",
"u#u#u#u#u#v#w#x#y#z#A#B#C#D#E#9#l@9#9#9#9#9#F#G#H#C#I#J#K#L#h@M#N#O#P#Q#R#S#T#U#V#W#X#k k ,.! ! ",
": : , Y#Y#Z#`# $.$+$@$#$$$%$&$9#.#l@9#9#l@9#*$=$-$;$>$,$'$)$!$~${$]$^$/$($_$:$<$[$}$|$! ! ! ! ! ",
"1$2$a d , 3$4$5$6$7$8$9$0$a$b$l@c$d$l@9#.#l@e$f$g$h$i$j$k$l$m$n$o$p$q$r$($s$t$($u$v$w$! ! ! ! ! ",
"x$y$z$o A$B$C$D$E$F$G$H$I$J$K$L$M$ #9#l@ #.#N$O$P$Q$R$S$T$U$V$W$X$Y$Z$`$($t$($ %.%+%8.t.@%@%@%@%",
"#%W $%%%&%*%=%-%;%>%,%'%)%!%~%{%o@e$F#.#c$ #]%^%/%(%_%:%<%[%[%}%|%1%2%3%4%5%6%7%8%9%0%a%b%b%b%b%",
"=.! ! $.#.c%d%e%f%g%h%i%j%j%k%l%m%{%n%.#o% #]%p%q%r%s%t%u%v%w%x%y%z%A%B%C%D%E%F%G%H%I%; ]       ",
"[ ! ! ! ,.J%K%L%M%N%O%P%Q%R%S%I$T%m%U% #V%d$]%p%W%X%Y%Z%`% &.&+&@&#&$&1%%&&&*&=&-&;&>&_ ( / = 0 ",
"! ! ! ! ! ! r ,&'&)&!&~&{&]&^&/&(&_&:& #V%m@]%<&[&}&|&1&2&3&4&5&6&7&8&9&0&a&b&c&d&d&, d c b p q ",
"! ! ! ! ! ! ! ! ! e&f&!&g&h&i&j&)%k&l&c$m&c$]%n&o&p&q&r&s&t&u&v&w&x&y&z&A&B&C&~ , , , , , , , # ",
"D&y z z z z z z z E&F&G&H&I&J&K&(&_&l&c$m&c$o@L&M&K&N&O&P&Q&R&S&T&U&V&W&X&Y&Z&x w v v v v v E ( ",
"`&T U O O O O O O  *.*+*@*#*$*%*&***=*e$ #.#]%Q%U@-*;*>*,*6&'*)*!*~*{*]*^*/*K J I H G G G G F Y ",
"#.#.$.e ! ! ! ! ! ! (*.._*:*<*[*}*|*1*2*3*e$e$4*5*6*7*8*9*0*a*b*c*d*e*f*C ! ! %.` Z , , , , , , ",
",.,.! ! r g*h*1 _.6 i*j*k*l*m*n*o*p*q*j%p@r**$s*t*u*v*w*x*y*z*A*B*C*D*E*@%! ! ! '.).~ ~ ~ ~ ~ ~ ",
"! ! ! ! F*$.#.g k l m G*H*|+I*J*K*L*M*N*O*P*+#X@Q*M#R*S*T*U*V*W*X*Y*Z*`*1.! ! ! ! [ [ [ [ [ [ [ ",
"! ! ! ! ! ! ! ! ! ! ! K z 2.!  =.=+=@=#=$=%=&=*===-=;=>=,='=)=!=r+! ! K z 2.! ! ! ! ! ! ! ! ! ! ",
"A z z B z y y y y 1.~={=s.z z z ]=^=/=(=_=:=<=[=f$}=|=1=2=3=4=5=y 1.~={=s.z z z z z z z z z z t.",
"..O P Q R S u.v.w.x.y.z.Y.O O 6=7=8=9=0=a=b=c=!%d=e=f=g=h=i=j=k=w.x.y.z.Y.O O O O O O O O K L M ",
"Z.! +.@.g i `. +.+$.#.$.! ! ! ! ! ! ! l=m=n=o=p=q=r=s=t=u=i `. +.+$.#.$.! ! ! ! ! ! ! ! ! ! ~ * ",
"[ ! ! ! ! ,.k k ,.! ,.! ! ! ! ! ! [ ! v=w=x=y=z=A=B=C=D=E=,.k k ,.! ,.! ! ! ! ! ! [ ! ! r s+2.& ",
"! ! ! ! ! ! ! ! ! ! ! ! ! ! ! ! 5 *.;.F=G=H=I=J=K=L=M=N=O=! ! ! ! ! ! ! ! ! ! ! 5 *.;.|.X+Y+Z+`+",
"! ! ! ! ! ! ! ! ! ! ! ! ! ! ! 1@< 2@3@4@5@6@7@P=A 2.! ! ! ! ! ! ! ! ! ! ! ! ! 1@< 2@3@4@5@6@7@8@",
"9@z z z z z z z z z z A A z z B z A H@I@J@K@L@Q=s.z z z z z z z z z z A A z z B z A H@I@J@K@L@M@",
"V O O O O O O O O K L M N O P Q R T R=v.u.S U _#Y.O O O O O O O O K L M N O P Q R T R=v.u.S U _#",
"! ! ! ! ! ! ! ! ! ! ~ ..C ! +.@.g #.S= +`.i g ! ! ! ! ! ! ! ! ! ! ! (*..C ! +.@.g #.S= +`.i g ! ",
"u#u#u#u#u#u#T=~ ! ! ! P A ! ! ! ~ U=V=W=V=X=X=Y='.! '.Z=4 |.`= -.-+-i*j*@%! ! ! ~ U=V=W=V=X=X=u#",
": : , Y#Y#Y#Y#@-#-! ! O z ! ! #-@-Y#Y#Y#Y#, : $-%.! e 3@j '.$..+%-I*m G*1.! ! #-@-Y#Y#Y#Y#, : : ",
"2$2$a d , , , , ~ [ ! O z ! [ ~ , , , , d a 2$&-*-! ! ! ! ! ! ! ! ! ! O z ! [ ~ , , , , d a 2$2$",
"] ] =---, , , , ` ! =.;->-! k ` , , , , --=-] ,-t.! ! ! ! ! ! ! ! [ '-;->-! k ` , , , , --=-] ] "};
