/* XPM */
static char *_c135f6c9ead4502b29c73fd265f3c8a9Jml8o4D7BbKeWDc[] = {
/* columns rows colors chars-per-pixel */
"48 48 2 1 ",
"  c None",
". c #252241",
/* pixels */
"                                                ",
"                                                ",
"                                                ",
".   .   .   .   .   .   .   .   .   .   .   .   ",
"                                                ",
"  .   .   .   .   .   .   .   .   .   .   .   . ",
"                                                ",
". . . . . . . . . . . . . . . . . . . . . . . . ",
"                                                ",
". . . . . . . . . . . . . . . . . . . . . . . . ",
" .   .   .   .   .   .   .   .   .   .   .   .  ",
". . . . . . . . . . . . . . . . . . . . . . . . ",
"   .   .   .   .   .   .   .   .   .   .   .   .",
". . . . . . . . . . . . . . . . . . . . . . . . ",
" . . . . . . . . . . . . . . . . . . . . . . . .",
"... . . ... . . ... . . ... . . ... . . ... . . ",
" . . . . . . . . . . . . . . . . . . . . . . . .",
". . . ... . . ... . . ... . . ... . . ... . . ..",
" . . . . . . . . . . . . . . . . . . . . . . . .",
"... ....... ....... ....... ....... ....... ....",
" . . . . . . . . . . . . . . . . . . . . . . . .",
"................................................",
".. . . ... . . ... . . ... . . ... . . ... . . .",
"................................................",
" . . ... . . ... . . ... . . ... . . ... . . ...",
"................................................",
".. ....... ....... ....... ....... ....... .....",
"................................................",
".... ....... ....... ....... ....... ....... ...",
"................................................",
"................................................",
"................................................",
"................................................",
"................................................",
"................................................",
"................................................",
"................................................",
"................................................",
"................................................",
"................................................",
"................................................",
"................................................",
"................................................",
"................................................",
"................................................",
"................................................",
"................................................",
"................................................"
};
