/* XPM */
static char *_f1f28b4e0674cf5d93a376b7230d7ff7jxmUuQymqNVcIB6[] = {
/* columns rows colors chars-per-pixel */
"48 48 5 1 ",
"  c None",
". c #151327",
"X c #433067",
"o c #5D48A3",
"O c #A46DC0",
/* pixels */
"                                                ",
"                                                ",
"                                                ",
"                                                ",
"                                                ",
"                                                ",
"                                                ",
"                                                ",
"                                                ",
"                                                ",
"                                                ",
"                                                ",
"                                                ",
"                                                ",
"                                                ",
"                                                ",
"                                                ",
"                                                ",
"                                                ",
"                                                ",
"                                                ",
"                                                ",
"                                                ",
"                                                ",
"                                                ",
"                                                ",
"                                                ",
"                                                ",
"                                                ",
"                                                ",
"                                                ",
"                                                ",
"                                                ",
"     .           .            .           .     ",
"    .O.         .O.          .O.         .O.    ",
"    .O.         .O.          .O.         .O.    ",
"    .O.    .    .O.    .     .O.    .    .O.    ",
"    .O.    .    .O.    .     .O.    .    .O.    ",
"   .ooO.  ...  .ooO.  ...   .ooO.  ...  .ooO.   ",
"   .ooo.  ...  .ooo.  ...   .ooo.  ...  .ooo.   ",
"   .ooo.  ...  .ooo.  ...   .ooo.  ...  .ooo.   ",
"   .ooo. ..... .ooo. .....  .ooo. ..... .ooo.   ",
"   .ooo. ..... .ooo. .....  .ooo. ..... .ooo.   ",
"   .Xoo. ..... .Xoo. .....  .Xoo. ..... .Xoo.   ",
"  .XXXXX.......XXXXX...... .XXXXX.......XXXXX.  ",
"  .XXXXX.......XXXXX...... .XXXXX.......XXXXX.  ",
"  .XXXXX.......XXXXX........XXXXX.......XXXXX.  ",
"  .XXXXX.......XXXXX........XXXXX.......XXXXX.  "
};
