/* XPM */
static char *result[] = {
/* columns rows colors chars-per-pixel */
"64 64 7 1 ",
"  c #6D5A67",
". c #906574",
"X c #AA707B",
"o c #B47E83",
"O c #C19390",
"+ c #CFAFA4",
"@ c #DBC9BD",
/* pixels */
"                                                                ",
"      .XXXXoOOOOOOOOOOOOOOOOOOX       .XXXXoOOOOOOOOoXXXX.      ",
"      XXXXXOOOOOOOOOOOOOOOOOOOO       XXXXXOOOOOOOOOOXXXXX      ",
"     .XXXXXOOOOOOOOOXOXXXXXOO        .XXXXXOOOOOOOOOOXXXXX.     ",
".XXXXXXXXXXOOOOOOOOOO+O+++OOOOo .XXXXXXXXXXOOOOOOOOOOXXXXXXXXX. ",
"XXXXXXXXXXXOOOOOOOOOOOOOOOOOOOO XXXXXXXXXXXOOOOOOOOOOXXXXXXXXXX ",
"XXXXXXXXXXXOOOOOOOOOOOOOOOOOOOO XXXXXXXXXXXOOOOOOOOOOXXXXXXXXXX ",
".XXXXXXXXXXoOOOOOOOOOOOOOOOOOOX .XXXXXXXXXXoOOOOOOOOoXXXXXXXXX. ",
"                                                                ",
"XXXXXXXXXXoOOOX XOOO+O+++++OOOOOXXXXXXXXXXoOOOX XOOOOoXXXXXXXXXX",
"XXXXXXXXXoOOOOO OOOOOOOOOOOOOOOOXXXXXXXXXoOOOOO OOOOOOoXXXXXXXXX",
"OOOOOOOOOOOOOOO OOOOOOOOOOOOOOOOOOOOOOOOOOOOOOO OOOOOOOOOOOOOOOO",
"OOOOOOOXXOXO    OOOOOOOOOOOOOOOOOOOOOOOXXOXOO   OOOOOOOOOOOOOOOO",
"OOOOOO+O++OOOOo OOOOOOOOOOOOOOOOOOOOOO+O++OOOOo OOOOOOOOOOOOOOOO",
"OOOOOOOOOOOOOOO OOOOOOOOOOOOOOOOOOOOOOOOOOOOOOO OOOOOOOOOOOOOOOO",
"OOOOOOOOOOOOOOX XOOOOOOOOOOOOOOOOOOOOOOOOOOOOOX XOOOOOOOOOOOOOOO",
"                                                                ",
"XOOO+O++@@@+O++OOOOOOOOOOOOOOOX XOOO+O++@@@+O++OOOOOOOOOOOOOOOX ",
"OOOOOOOOOOOOOOOOOOOOOOOOOOOOOOO OOOOOOOOOOOOOOOOOOOOOOOOOOOOOOO ",
"OOOOOOOOOOOOOOOOOOOOOOOOOOOOOOO OOOOOOOOOOOOOOOOOOOOOOOOOOOOOOO ",
"OOOOOOOOOOOOOOOOOOOOOOOOOOOOOOo OOOOOOOOOOOOOOOOOOOOOOOOOOOOOOo ",
"OOOOOOOOOOOOOOOOOOOOOOXXOXO     OOOOOOOOOOOOOOOOOOOOOOXXOXO     ",
"OOOOOOOOOOOOOOOOOOOOOOOO+O++OOO OOOOOOOOOOOOOOOOOOOOOOOO+O++OOO ",
"XOOOOOOOOOOOOOOOOOOOOOOOOOOOOOX XOOOOOOOOOOOOOOOOOOOOOOOOOOOOOX ",
"                                                                ",
"OOOOOOOOOOOOOOX XOOO+O+++@@@++OOOOOOOOOOOOOOOOX XOOO+O+++@@@++OO",
"OOOOOOOOOOOOOOO OOOOOOOOOOOOOOOOOOOOOOOOOOOOOOO OOOOOOOOOOOOOOOO",
"XXXXXXXXXoOOOOO OOOOOOOOOOOOOOOOOOOOXXXOOXOO    OOOOOOOOOOOOOOOO",
"XXXXXXXXXXoOOOO OOOOOOOOOOOOOOOOOOOOO+OOO++O+Oo OOOOOOOOOOOOOOOO",
"XXXXXXXXXXXOOOO OOOOOOOOOOOOOOOOOOOOOOOOOOOOOOO OOOOOOOOOOOOOOOO",
"   .XXXXXXXOOOO OOOOOOOOOOOOOOOOOOOOOOOOOOOOOOO OOOOOOOOOOOOOOOO",
"    .XXXXXXoOOX XOOOOOOOOOOOOOOOOOOOOOOOOOOOOOX XOOOOOOOOOOOOOOO",
"                                                                ",
"XOOOO+++++OO+OOOOOOOOOOOOOOOOOX XOOOO+++++OO+OOOOOOOoXXXX.      ",
"OOOOOOOOOOOOOOOOOOOOOOOOOOOOOOO OOOOOOOOOOOOOOOOOOOOOXXXXX      ",
"OOOOOOOOOOOOOOOOOOOOXOXXXXXOO   OOOOOOOOOOOOOOOOOOOOOXXXXX.     ",
"OOOOOOOOOOOOOOOOOOOOO+O+++OOOOo OOOOOOOOOOOOOOOOOOOOOXXXXXXXXX. ",
"OOOOOOOOOOOOOOOOOOOOOOOOOOOOOOO OOOOOOOOOOOOOOOOOOOOOXXXXXXXXXX ",
"OOOOOOOOOOOOOOOOOOOOOOOOOOOOOOO OOOOOOOOOOOOOOOOOOOOOXXXXXXXXXX ",
"XOOOOOOOOOOOOOOOOOOOOOOOOOOOOOX XOOOOOOOOOOOOOOOOOOOoXXXXXXXXX. ",
"                                                                ",
"+++OOOOOOOOOOOX XOOO+O+++++OOOOO+++OOOOOOOOOOOX XOOOOoXXXXXXXXXX",
"OOOOOOOOOOOOOOO OOOOOOOOOOOOOOOOOOOOOOOOOOOOOOO OOOOOOoXXXXXXXXX",
"OOOOOOOXXOXOO   OOOOOOOOOOOOOOOOOOOOOOOXXOXOO   OOOOOOOOOOOOOOOO",
"OOOOOO+O++OOOOo OOOOOOOOOOOOOOOOOOOOOO+O++OOOOo OOOOOOOOOOOOOOOO",
"OOOOOOOOOOOOOOO OOOOOOOOOOOOOOOOOOOOOOOOOOOOOOO OOOOOOOOOOOOOOOO",
"OOOOOOOOOOOOOOO OOOOOOOOOOOOOOOOOOOOOOOOOOOOOOO OOOOOOOOOOOOOOOO",
"OOOOOOOOOOOOOOX XOOOOOOOOOOOOOOOOOOOOOOOOOOOOOX XOOOOOOOOOOOOOOO",
"                                                                ",
"XOOO+O++@@@+O++OOOOOOOOOOOOOOOX XOOO+O++@@@+O++OOOOOOOOOOOOOOOX ",
"OOOOOOOOOOOOOOOOOOOOOOOOOOOOOOO OOOOOOOOOOOOOOOOOOOOOOOOOOOOOOO ",
"OOOOOOOOOOOOOOOOOOOOOOOOOOOOOOO OOOOOOOOOOOOOOOOOOOOOOOOOOOOOOO ",
"OOOOOOOOOOOOOOOOOOOOOOOOOOOOOOo OOOOOOOOOOOOOOOOOOOOOOOOOOOOOOo ",
"OOOOOOOOOOOOOOOOOOOOOOXXOXO     OOOOOOOOOOOOOOOOOOOOOOXXOXO     ",
"OOOOOOOOOOOOOOOOOOOOOOOO+O++OOO OOOOOOOOOOOOOOOOOOOOOOOO+O++OOO ",
"XOOOOOOOOOOOOOOOOOOOOOOOOOOOOOX XOOOOOOOOOOOOOOOOOOOOOOOOOOOOOX ",
"                                                                ",
"OOOOOOOOOOOOOOX XOOO+O+++@@@++OOOOOOOOOOOOOOOOX XOOO+O+++@@@++OO",
"OOOOOOOOOOOOOOO OOOOOOOOOOOOOOOOOOOOOOOOOOOOOOO OOOOOOOOOOOOOOOO",
"XXXXXXXXXoOOOOO OOOOOOoXXXXXXXXXOOOOXXXOOXOO    OOOOOOoXXXXXXXXX",
"XXXXXXXXXXoOOOO OOOOOoXXXXXXXXXXOOOOO+OOO++O+Oo OOOOOoXXXXXXXXXX",
"XXXXXXXXXXXOOOO OOOOOXXXXXXXXXXXOOOOOOOOOOOOOOO OOOOOXXXXXXXXXXX",
"   .XXXXXXXOOOO OOOOOXXXXXXX.   OOOOOOOOOOOOOOO OOOOOXXXXXXX.   ",
"    .XXXXXXoOOX XOOOoXXXXXX.    OOOOOOOOOOOOOOX XOOOoXXXXXX.    "
};
