/* XPM */
static char * player_xpm[] = {
"48 48 228 2",
"  	c #6D5A67",
". 	c #725B69",
"+ 	c #7D606C",
"@ 	c #7F616D",
"# 	c #7F606D",
"$ 	c #81646F",
"% 	c #856A73",
"& 	c #866B73",
"* 	c #826570",
"= 	c #715B68",
"- 	c #6C5A67",
"; 	c #85626F",
"> 	c #A86F7A",
", 	c #AA707B",
"' 	c #B68386",
") 	c #C09290",
"! 	c #C19390",
"~ 	c #BB8A8A",
"{ 	c #80646F",
"] 	c #6B5966",
"^ 	c #705B68",
"/ 	c #725C69",
"( 	c #775D6B",
"_ 	c #9A6A76",
": 	c #AB707B",
"< 	c #BB8A8B",
"[ 	c #C19490",
"} 	c #BF918F",
"| 	c #B88688",
"1 	c #BA898A",
"2 	c #B37E84",
"3 	c #B47F85",
"4 	c #B37E83",
"5 	c #BE8E8D",
"6 	c #B38A89",
"7 	c #8A6E75",
"8 	c #755F6B",
"9 	c #6F5B68",
"0 	c #6E5A67",
"a 	c #996976",
"b 	c #A56E79",
"c 	c #A66E7A",
"d 	c #A9707B",
"e 	c #C19290",
"f 	c #C29692",
"g 	c #C49A95",
"h 	c #C59C97",
"i 	c #C8A29B",
"j 	c #C39894",
"k 	c #C0928F",
"l 	c #BF928F",
"m 	c #B48687",
"n 	c #82656F",
"o 	c #946774",
"p 	c #9C6B77",
"q 	c #785E6B",
"r 	c #C29491",
"s 	c #896B74",
"t 	c #A36D79",
"u 	c #986976",
"v 	c #A46E79",
"w 	c #A36E79",
"x 	c #AD7C81",
"y 	c #B88C8B",
"z 	c #B88D8C",
"A 	c #B98E8C",
"B 	c #B88D8B",
"C 	c #B18285",
"D 	c #936774",
"E 	c #9B6A77",
"F 	c #81616E",
"G 	c #83626E",
"H 	c #82626E",
"I 	c #84636F",
"J 	c #886A73",
"K 	c #8B6E76",
"L 	c #876972",
"M 	c #79606C",
"N 	c #846670",
"O 	c #8B6E75",
"P 	c #8B6F76",
"Q 	c #8D7379",
"R 	c #8D7278",
"S 	c #8F777C",
"T 	c #8F767B",
"U 	c #8C7077",
"V 	c #896C74",
"W 	c #846972",
"X 	c #81626E",
"Y 	c #7E606D",
"Z 	c #AB717C",
"` 	c #B58084",
" .	c #BF918E",
"..	c #866771",
"+.	c #C19491",
"@.	c #C59B96",
"#.	c #C8A19A",
"$.	c #C39793",
"%.	c #BF908E",
"&.	c #AC737D",
"*.	c #BB898A",
"=.	c #B98789",
"-.	c #BA8789",
";.	c #BE8F8D",
">.	c #896D75",
",.	c #C1928F",
"'.	c #C0918F",
").	c #BC8B8B",
"!.	c #C39893",
"~.	c #BA8B8C",
"{.	c #BC8C8C",
"].	c #B8898A",
"^.	c #907278",
"/.	c #886B73",
"(.	c #7B626D",
"_.	c #BE8D8C",
":.	c #896B73",
"<.	c #C59A95",
"[.	c #C49894",
"}.	c #C8A099",
"|.	c #BD8D8D",
"1.	c #B98D8C",
"2.	c #C29390",
"3.	c #B78B8A",
"4.	c #B08185",
"5.	c #A7797F",
"6.	c #BA8E8C",
"7.	c #927D82",
"8.	c #927E83",
"9.	c #8F787D",
"0.	c #8C7177",
"a.	c #8E757A",
"b.	c #866C74",
"c.	c #886B74",
"d.	c #B98688",
"e.	c #CDADA5",
"f.	c #CEAEA6",
"g.	c #C9A39C",
"h.	c #353540",
"i.	c #C39491",
"j.	c #5C699F",
"k.	c #AF8687",
"l.	c #A88284",
"m.	c #A47B80",
"n.	c #7C616D",
"o.	c #C29490",
"p.	c #B78588",
"q.	c #C19592",
"r.	c #BF9290",
"s.	c #A98C8B",
"t.	c #97777C",
"u.	c #97767B",
"v.	c #79626D",
"w.	c #AE7D82",
"x.	c #BB928F",
"y.	c #BA918E",
"z.	c #BD9591",
"A.	c #BB8F8D",
"B.	c #B38386",
"C.	c #7E616D",
"D.	c #90787D",
"E.	c #856972",
"F.	c #C9A49D",
"G.	c #EDE4DA",
"H.	c #918D8D",
"I.	c #BA8A8A",
"J.	c #B07981",
"K.	c #B27B82",
"L.	c #BD8E8D",
"M.	c #BB8B8B",
"N.	c #BD928F",
"O.	c #907379",
"P.	c #8A6D75",
"Q.	c #7C646E",
"R.	c #BA8E8D",
"S.	c #AA6F7B",
"T.	c #AF767F",
"U.	c #BD8D8C",
"V.	c #C49995",
"W.	c #BF9994",
"X.	c #866972",
"Y.	c #8C6571",
"Z.	c #8B6571",
"`.	c #6A5966",
" +	c #6A5866",
".+	c #745B69",
"++	c #A36C78",
"@+	c #A36D78",
"#+	c #7F626E",
"$+	c #836972",
"%+	c #886C75",
"&+	c #8D737A",
"*+	c #8D747A",
"=+	c #8B6F77",
"-+	c #856A72",
";+	c #8D7479",
">+	c #876871",
",+	c #846570",
"'+	c #856570",
")+	c #83646F",
"!+	c #78606C",
"~+	c #745F6A",
"{+	c #C59C96",
"]+	c #A76F7A",
"^+	c #EEB551",
"/+	c #AD7C82",
"(+	c #B68387",
"_+	c #B88588",
":+	c #B08184",
"<+	c #80626E",
"[+	c #826670",
"}+	c #7F6670",
"|+	c #81636E",
"1+	c #B17B81",
"2+	c #B07880",
"3+	c #AF787F",
"4+	c #B07980",
"5+	c #B27C82",
"6+	c #B47F84",
"7+	c #AD737D",
"8+	c #906974",
"9+	c #BC8F8D",
"0+	c #765D6A",
"a+	c #9A6976",
"b+	c #846470",
"c+	c #AE7E82",
"d+	c #735E6A",
"e+	c #B98788",
"        . + @ # $ % & & & & & & & & & & & & * =         . + @ # $ % & & & & % $ # @ + .         ",
"      - ; > , , ' ) ! ! ! ! ! ! ! ! ! ! ! ! ~ { ]     - ; > , , ' ) ! ! ! ! ) ' , , > ; -       ",
"^ / / ( _ : , , < [ ! ! ! ! } | 1 2 3 4 5 6 7 8 9 / / ( _ : , , < [ ! ! ! ! [ < , , : _ ( / = 0 ",
"a b b c d , , , ~ [ ! ! ! ! e f g h i j k l m n o b b c d , , , ~ [ ! ! ! ! [ ~ , , , d c b p q ",
", , , , , , , , ~ r ! ! ! ! ! ! ! ! ! ! ! ! ! s t : , , , , , , ~ r ! ! ! ! r ~ , , , , , , , # ",
"u v v v v v v w x y z A A z z B z y y y z A C @ D v v v v v v w x y z A A z y x w v v v v v E ( ",
"F G G G G G H I J K L M N O P Q R S T T U O V W X G G G G G H I J K L M N K O J I H G G G G F Y ",
", , , , , , Z `  .[ < ..C ! +.@.g #.#.#.$.e ! %.&., , , , , Z `  .! < ..C ! ! %.` Z , , , , , , ",
"~ ~ ~ ~ *.=.-.;.k A z >.A ! ! ! ! ,.,.,.! ! ! ) < ~ ~ ~ *.=.-.;.e } z >.A ! ! ! '.).~ ~ ~ ~ ~ ~ ",
"[ [ [ ! !.| ~.{.].^./.(.A ! ! ! ! ! ! ! ! ! ! ! [ [ [ ! !.| ~.{._.6 :.(.A ! ! ! ! [ [ [ [ [ [ [ ",
"! ! ! ! <.[.}.<.! ! |.s 1.2.! ! ! ! ! ! ! ! ! ! ! ! ! ! <.[.}.<.! ! |.s 1.2.! ! ! ! ! ! ! ! ! ! ",
"A z z B y y 3.y y z 4.X 5.z z z z z z z z z z A A z z B y y 3.y y z 4.X 5.z z z z z z z z z z 6.",
"..O P Q R S 7.8.9.0.a.b.c.O O O O O O O O K L M N O P Q R S 7.8.9.0.a.b.c.O O O O O O O O K L M ",
"d.! +.@.g i e.f.g.$.#.$.! ! ! ! ! ! ! ! ! ! ~ ..C ! +.@.g i e.f.g.$.#.$.! ! ! ! ! ! ! ! ! ! ~ * ",
"[ ! ! ! ! ,.k k ,.! ,.! ! ! ! ! ! [ h.h.h.i.2.K A ! ! ! ! ,.k k ,.! ,.! ! ! ! ! ! [ ! ! r i.2.& ",
"! ! ! ! ! ! ! ! ! ! ! ! ! ! ! ! 5 *.h.j.h.h.h.h.h.h.! ! ! ! ! ! ! ! ! ! ! ! ! ! 5 *.;.|.k.l.m.n.",
"! ! ! ! ! ! ! ! ! ! ! ! ! ! ! o.< p.h.h.j.j.j.j.j.h.h.! ! ! ! ! ! ! ! ! ! ! ! o.< p.q.r.s.t.u.v.",
"w.z z z z z z z z z z A A z z B z A x.h.h.h.j.j.j.j.h.z z z z z z z z A A z z B z A x.y.z.A.B.C.",
"V O O O O O O O O K L M N O P Q R T D.8.h.h.h.j.j.h.h.h.h.h.O O O K L M N O P Q R T D.8.7.S U E.",
"! ! ! ! ! ! ! ! ! ! ~ ..C ! +.@.g #.F.f.h.G.G.G.H.H.H.H.H.h.! ! ! ! I...C ! +.@.g #.F.f.e.i g ! ",
"J.J.J.J.J.J.K.~ ! ! ! P A ! ! ! ! ,.,.k h.G.H.H.H.H.H.H.H.h.L.M.N.O.P.Q.R.! ! ! ! ,.,.k k ,.! ! ",
": : , S.S.S.S.T.U.! ! O z ! ! ! ! ! ! ! h.H.H.H.H.H.H.H.H.h.$.g.V.W.m X.1.! ! ! ! ! ! ! ! ! ! ! ",
"Y.Z.a d , , , , ~ r ! K z 2.! ! ! ! ! ! h.H.H.H.H.H.H.H.H.h.! ! ! 2.! K z 2.! ! ! ! ! ! ! ! ! ! ",
"`. +.+o ++++++@+x y C X 5.z z z z z z z h.H.H.h.h.h.h.h.h.h.y z z z C X 5.z z z A A A 6.R.R.R.R.",
"#+W $+%+&+&+*+=+P.Q V -+c.O O O O O O O h.H.H.H.H.H.h.h.H.h.S R P ;+V -+c.K 7 >+,+'+)+!+~+~+~+~+",
"=.! ! $.#.#.#.g +.{+! ! ! ! ! ! ! ! ! ! h.H.H.H.H.H.h.h.H.h.#.g +.{+! ! ! ! ) ' , , ]+; ]       ",
"[ ! ! ! ,.,.,.! ! ! ! ! ! ! } | 1 2 3 4 h.H.H.H.H.H.h.h.H.h.,.! ! ! ! ! ! ! [ < , , : _ ( / = 0 ",
"! ! ! ! ! ! ! ! ! ! ! ! ! ! e f g h i j h.h.h.h.h.h.h.h.h.h.! ! ! ! ! ! ! ! [ ~ , , , d c b p q ",
"! ! ! ! ! ! ! ! ! ! ! ! ! ! ! ! ! ! ! ! h.j.j.^+^+^+^+^+^+h.! ! ! ! ! ! ! ! r ~ , , , , , , , # ",
"/+y z z z z z z z z z A A z z B z y y y h.j.j.^+h.h.h.h.h.h.z z z z z A A z y x w v v v v v E ( ",
"*+T U O O O O O O K L M N O P Q R S T T h.j.j.^+h.H.H.H.H.h.O O O K L M N K O J I H G G G G F Y ",
"#.#.$.e ! ! ! ! ! ! I...C ! +.@.g #.#.#.h.j.j.^+h.H.H.H.H.h.! ! ! ! I...C ! ! %.` Z , , , , , , ",
",.,.! ! r (+_+1 _.6 P.Q.R.! ! ! ! ,.,.,.h.^+^+^+h.H.H.H.H.h._+1 _.6 P.Q.R.! ! ! '.).~ ~ ~ ~ ~ ~ ",
"! ! ! ! {+$.#.g k l m X.1.! ! ! ! ! ! ! h.h.h.h.h.h.h.h.h.h.#.g k l m X.1.! ! ! ! [ [ [ [ [ [ [ ",
"! ! ! ! ! ! ! ! ! ! ! K z 2.! ! ! ! ! ! ! ! ! ! ! ! ! ! ! ! ! ! ! ! ! K z 2.! ! ! ! ! ! ! ! ! ! ",
"A z z B z y y y y 1.:+<+5.z z z z z z z z z z A A z z B z y y y y 1.:+<+5.z z z z z z z z z z 6.",
"..O P Q R S 7.8.9.0.a.b.c.O O O O O O O O K L M N O P Q R S 7.8.9.0.a.b.c.O O O O O O O O K L M ",
"d.! +.@.g i e.f.g.$.#.$.! ! ! ! ! ! ! ! ! ! ~ ..C ! +.@.g i e.f.g.$.#.$.! ! ! ! ! ! ! ! ! ! ~ * ",
"[ ! ! ! ! ,.k k ,.! ,.! ! ! ! ! ! [ ! ! r i.2.K A ! ! ! ! ,.k k ,.! ,.! ! ! ! ! ! [ ! ! r i.2.& ",
"! ! ! ! ! ! ! ! ! ! ! ! ! ! ! ! 5 *.;.|.k.l.m.[+A ! ! ! ! ! ! ! ! ! ! ! ! ! ! ! 5 *.;.|.k.l.m.n.",
"! ! ! ! ! ! ! ! ! ! ! ! ! ! ! o.< p.q.r.s.t.u.}+A 2.! ! ! ! ! ! ! ! ! ! ! ! ! o.< p.q.r.s.t.u.v.",
"w.z z z z z z z z z z A A z z B z A x.y.z.A.B.|+5.z z z z z z z z z z A A z z B z A x.y.z.A.B.C.",
"V O O O O O O O O K L M N O P Q R T D.8.7.S U E.c.O O O O O O O O K L M N O P Q R T D.8.7.S U E.",
"! ! ! ! ! ! ! ! ! ! ~ ..C ! +.@.g #.F.f.e.i g ! ! ! ! ! ! ! ! ! ! ! I...C ! +.@.g #.F.f.e.i g ! ",
"J.J.J.J.J.J.K.~ ! ! ! P A ! ! ! ~ 1+2+3+2+4+4+5+'.! '.6+4 |.L.M.N.O.P.Q.R.! ! ! ~ 1+2+3+2+4+4+J.",
": : , S.S.S.S.T.U.! ! O z ! ! U.T.S.S.S.S., : 7+%.! e q.j '.$.g.V.W.m X.1.! ! U.T.S.S.S.S., : : ",
"Z.Z.a d , , , , ~ [ ! O z ! [ ~ , , , , d a Z.8+9+! ! ! ! ! ! ! ! ! ! O z ! [ ~ , , , , d a Z.Z.",
"] ] 0+a+, , , , ` ! =.b+c+! k ` , , , , a+0+] d+6.! ! ! ! ! ! ! ! [ e+b+c+! k ` , , , , a+0+] ] "};
