/* XPM */
static char *_dfc87149b2c43e8a4b9f0980b2eb67fJyTffhIDhpXxaxof[] = {
/* columns rows colors chars-per-pixel */
"48 48 10 1 ",
"  c #151327",
". c #7D2730",
"X c #433067",
"o c #822437",
"O c #B65656",
"+ c #E16767",
"@ c #5D48A3",
"# c #A46DC0",
"$ c #F6AF81",
"% c white",
/* pixels */
"                                                ",
"                             ooooooooooooooooo  ",
"                            ooooooooooooooooooo ",
"                            oooooo+OOOOOOOOO+oo ",
"                            ooooo+OOOOOOOOOOO+o ",
"                            ooooo+OOOOOOOOOOOOo ",
"                            ooooo+OOOOOOOOOOOOo ",
"                            ooooo+OOOOOOOOOOOOo ",
"                            ooooo+OOOOOOOOOOOOo ",
"                            ooooo+OOOOOOOOOOOOo ",
"                            ooooo+OOOOOOOOOOOOo ",
"                            ooooo+OOOOOOOOOOOOo ",
"                            ooooo+OOOOOOOOOOOOo ",
"                            ooooo+OOOOOOOOOOOOo ",
"                            ooooo+OOOOOOOOOOOOo ",
"                            ooooo+OOOOOOOOOOOOo ",
"                            ooooo+OOOOOOOOOOOOo ",
"                            ooooo+OOOOOOOOOOOOo ",
"                            ooooo+OOOOOOOOOOOOo ",
"                            ooooo+OOOOOOOOOOOOo ",
"                            ooooo+OOOOOOOOOOOOo ",
"         XXXXXXXXXXXXXXXXX  ooooo+OOOOOOOOOOOOo ",
"        XX#@@@@@@@@@@@@@XXX ooooo+OOOOOOOOOOOOo ",
"        X#@@@@@@@@@@@@@@@XX ooooo+OOOOOOOOOOOOo ",
"        X#@@@@@@@@@@@@@@@XX ooooo+OOOOOOOOOOOOo ",
"        X#@@@@@@@@@@@@@@@XX ooooo+OOOOOOOOOOOOo ",
"        X#@@@@@@@@@@@@@@@XX ooooo+OOOOOOOOOOOOo ",
"        X#@@@@@@@@@@@@@@@XX ooooo+OOOOOOOOOOOOo ",
"        X#@@@@@@@@@@@@@@@XX ooooo+OOOOOOOOOOOOo ",
"        X#@@@@@@@@@@@@@@@XX ooooo+OOOOOOOOOOOOo ",
"        X#@@@@@@@@@@@@@@@XX ooooo+OOOOOOOOOOOOo ",
"        X#@@@@@@@@@@@@@@@XX ooooo+OOOOOOOOOOOOo ",
"        X#@@@@@@@@@@@@@@@XX ooooo+OOOOOOOOOOOOo ",
"        XX#@@@@@@@@@@@@@XXX ooooo+OOOOOOOOOOOOo ",
"         XXXXXXXXXXXXXXXXX  ooooo+OOOOOOOOOOOOo ",
"                            ooooo+OOOOOOOOOOOOo ",
"  oooooooooooooooooooooooo  ooooo+OOOOOOOOOOOOo ",
" oooooooooooooooooooooooooo ooooo+OOOOOOOOOOOOo ",
" oooooooooooooooooooooooooo ooooo+OOOOOOOOOOOOo ",
" oo++++++++++++++++++++++oo ooooo+OOOOOOOOOOOOo ",
" o+OOOOOOOOOOOOOOOOOOOOOO+o ooooo+OOOOOOOOOOOOo ",
" oOOOOOOOOOOOOOOOOOOOOOOOOo ooooo+OOOOOOOOOOOOo ",
" oOOOOOOOOOOOOOOOOOOOOOOOOo ooooo+OOOOOOOOOOOOo ",
" oOOOOOOOOOOOOOOOOOOOOOOOOo ooooo+OOOOOOOOOOO+o ",
" oOOOOOOOOOOOOOOOOOOOOOOOOo oooooo+OOOOOOOOO+oo ",
" o$OOOOOOOOOOOOOOOOOOOOOO$o ooooooooooooooooooo ",
"  .$$$$%%%%%%%$$$$$%$$$$$.   ooooooooooooooooo  ",
"                                                "
};
