/* XPM */
static char * tile_xpm[] = {
"16 16 5 1",
" 	c #963057",
".	c #EB7060",
"+	c #D74459",
"@	c #FFB383",
"#	c #4F1E45",
" ............. +",
"..............@+",
"..............@+",
"..............@+",
"..............@+",
"..............@+",
"..............@+",
"..............@+",
"..............@+",
"..............@+",
"..............@+",
"..............@+",
"..............@+",
"@.............@+",
" @@@@@@@@@@@@@#+",
"++++++++++++++++"};
