/* XPM */
static char *e885f3c87bd7415de292a9e7cd0f54cfm2DuGd3gk61mVdPK[] = {
/* columns rows colors chars-per-pixel */
"60 60 226 2 ",
"   c None",
".  c #000000",
"X  c #060A03",
"o  c #090D04",
"O  c #0D1305",
"+  c #0E1904",
"@  c #111607",
"#  c #121B06",
"$  c #111608",
"%  c #141C08",
"&  c #181F09",
"*  c #142305",
"=  c #152904",
"-  c #16220A",
";  c #1A250A",
":  c #1D2B0B",
">  c #182B0A",
",  c #1B3307",
"<  c #1D330D",
"1  c #1E3B0B",
"2  c #1A3504",
"3  c #1B2E11",
"4  c #1C3312",
"5  c #212E0D",
"6  c #202E0B",
"7  c #22320C",
"8  c #25360E",
"9  c #22340C",
"0  c #26390E",
"q  c #243C0D",
"w  c #28390F",
"e  c #233611",
"r  c #243C13",
"t  c #293E11",
"y  c #293C12",
"u  c #273F18",
"i  c #21430C",
"p  c #254B0E",
"a  c #29450F",
"s  c #244314",
"d  c #2A4413",
"f  c #254C14",
"g  c #2A4B16",
"h  c #25431A",
"j  c #2A461A",
"k  c #27491C",
"l  c #2B4C1A",
"z  c #2A5217",
"x  c #2D541C",
"c  c #2E5A1C",
"v  c #305C1F",
"b  c #31551F",
"n  c #2C4F21",
"m  c #274820",
"M  c #2D5323",
"N  c #2E5724",
"B  c #315621",
"V  c #325C23",
"C  c #335D2B",
"Z  c #395E2C",
"A  c #346325",
"S  c #366C27",
"D  c #35642B",
"F  c #376B29",
"G  c #3A6B2D",
"H  c #3A642D",
"J  c #3B712E",
"K  c #3B6231",
"L  c #3C6B33",
"P  c #376330",
"I  c #3D7333",
"U  c #3F7439",
"Y  c #3D7832",
"T  c #405F16",
"R  c #416017",
"E  c #45641C",
"W  c #46691F",
"Q  c #4A6A1D",
"!  c #48661D",
"~  c #547C1E",
"^  c #54761F",
"/  c #4F741B",
"(  c #496723",
")  c #476A22",
"_  c #4C6B23",
"`  c #4B6A28",
"'  c #506F26",
"]  c #526F29",
"[  c #4E7124",
"{  c #4F702A",
"}  c #537424",
"|  c #547B23",
" . c #52732A",
".. c #5A7C29",
"X. c #587C27",
"o. c #416A35",
"O. c #426E3A",
"+. c #436437",
"@. c #536F33",
"#. c #427236",
"$. c #417936",
"%. c #43743B",
"&. c #4B753D",
"*. c #427B3B",
"=. c #4F7C3B",
"-. c #5C7B32",
";. c #5A753F",
":. c #57793B",
">. c #607F32",
",. c #4C7343",
"<. c #467C40",
"1. c #4D7B42",
"2. c #517C45",
"3. c #547B49",
"4. c #5B7C4D",
"5. c #597743",
"6. c #5D7954",
"7. c #536E4C",
"8. c #617B49",
"9. c #617D45",
"0. c #627D55",
"q. c #5C8324",
"w. c #5C842A",
"e. c #5F8929",
"r. c #5A8525",
"t. c #46813D",
"y. c #49813D",
"u. c #5C8232",
"i. c #5F8835",
"p. c #608425",
"a. c #618C27",
"s. c #638B2B",
"d. c #6A8F2F",
"f. c #66922B",
"g. c #6A932E",
"h. c #628437",
"j. c #698B3C",
"k. c #648839",
"l. c #679131",
"z. c #6B9631",
"x. c #6E9A32",
"c. c #6C923F",
"v. c #719435",
"b. c #478443",
"n. c #4A8443",
"m. c #4C8945",
"M. c #4D8C49",
"N. c #4A8648",
"B. c #54844A",
"V. c #5C844B",
"C. c #538C4C",
"Z. c #5A8A4E",
"A. c #548443",
"S. c #53924C",
"D. c #58974E",
"F. c #5C8252",
"G. c #5C8D53",
"H. c #549551",
"J. c #5B9552",
"K. c #5C9B55",
"L. c #5F9F5A",
"P. c #64824C",
"I. c #6B8A4D",
"U. c #668347",
"Y. c #6E934E",
"T. c #759949",
"R. c #658453",
"E. c #6A8355",
"W. c #6B8C54",
"Q. c #6E845C",
"!. c #6B8C5B",
"~. c #638B53",
"^. c #728C54",
"/. c #738C5C",
"(. c #788F59",
"). c #6B935B",
"_. c #639C5A",
"`. c #689858",
"'. c #749354",
"]. c #76975A",
"[. c #5FA15A",
"{. c #63A25B",
"}. c #67A95E",
"|. c #65A057",
" X c #72A85E",
".X c #6F8E60",
"XX c #718462",
"oX c #748C65",
"OX c #798D68",
"+X c #6E9961",
"@X c #739463",
"#X c #7C9C6A",
"$X c #799A68",
"%X c #7E8E75",
"&X c #7F9D72",
"*X c #6BA461",
"=X c #6DAB64",
"-X c #65A761",
";X c #72A463",
":X c #73AD65",
">X c #77AB69",
",X c #7CAC6B",
"<X c #79A767",
"1X c #76B16A",
"2X c #7AB56C",
"3X c #76B569",
"4X c #7FAC70",
"5X c #7EB670",
"6X c #7EB971",
"7X c #7FC074",
"8X c #82986F",
"9X c #80A76F",
"0X c #83BD74",
"qX c #89BE79",
"wX c #84B772",
"eX c #84AF74",
"rX c #8AC379",
"tX c #89C378",
"yX c #91CB7E",
"uX c #8FC880",
"iX c #94CD83",
"pX c #9CD58B",
"aX c #95D083",
"sX c #A2DD92",
"dX c #A6E294",
"fX c #ADEC9B",
/* pixels */
"    . . . . . . . . . . . . . . . . . . . . . . . . . . . . . . . . . . . . . . . . . . . . . . . . . . . . . . . .     ",
"    . . . . . . . . . . . . . . . . . . . . . . . . . . . . . . . . . . . . . . . . . . . . . . . . . . . . . . . X     ",
"    . . . . . . . . . . . . . . . . . . . . . . . . . . . . . . . . . . . . . . . . . . . . . . . . . . . . . . . .     ",
"    . . . . . . . . . . . . . . . . . . . . . . . . . . . . . . . . . . . . . . . . . . . . . . . . . . . . . . . .     ",
"    . . . . . . . . . . . . . . . . . . . . . . . . . . . . . . . . . . . . . . . . . . . . . . . . . . . . . . . .     ",
"    . . . . . . . . . . . . . . . . . . . . . . . . . . . . . . . . . . . . . . . . . . . . . . . . . . . . . . . X     ",
"    . . . . . . . . . . . . . . . . . . . . . . . . . . . . . . . . . . . . . . . . . . . . . . . . . . . . . . . .     ",
"    . . . . . . . . . . . . . . . . . . . . . . . . . . . . . . . . . . . . . . . . . . . . . . . . . . . . . . . X     ",
"    . . . . . . . . . . . . . . . . . . . . . . . . . . . . . . . . . . . . . . . . . . . . . . . . . . . . . . . .     ",
"    . . . . . . . . . . . . . . . . . . . . . . . . . . . . . . . . . . . . . . . . . . . . . . . . . . . . . . . X     ",
"    . . . . . . . . . . . . . . . . . . . . . . . . . . . . . . . . . . . . . . . . . . . . . . . . . . . . . . . .     ",
"    X . . . . . . . . . . . . . . . . . . . . . . . . . . . . . . . . . . . . . . . . . . . . . . . . . . . . . . X     ",
"    X X . . . . . . . . . . . . . . . . . . . . . . . . . . . . . . . . . . . . . . . . . . . . . . . . . . . . . X     ",
"    X . . . . . . . . . . . . . . . . . . . . . . . . . . . . . . . . . . . . . . . . . . . . . . . . . . . . . . X     ",
"    X . . . . . . . . . . . . . . . . . . . . . . . . . . . . . . . . . . . . . . . . . . . . . . . . . . . . . . .     ",
"    X . . . . . . . . . . . . . . . . . . . . . . . . . . . . . . . . . . . . . . . . . . . . . . . . . . . . . . X     ",
"    . . . . . . . . . . . . . . . . . . . . . . . . . . . . . . . . . . . . . . . . . . . . . . . . . . . . . . . .     ",
"    . . . . . . . . . . . . . . . . . . . . . . . . . . . . . . . . . . . . . . . . . . . . . . . . . . . . . . . X     ",
"    . . . . . . . . . . . . . . . . . . . . . . . . . . . . . . . . . . . . . . . . . . . . . . . . . . . . . . . X     ",
"    . . . . . . . . . . . . . . . . . . . . . . . . . . . . . . . . . . . . . . . . . . . . . . . . . . . . . . . .     ",
"    . . . . . . . . . . . . . . . . . . . . . . . . . . . . . . . . . . . . . . . . . . . . . . . . . . . . . . . X     ",
"    . . . . . . . . . . . . . . . . . . . . . . . . . . . . . . . . . . . . . . . . . . . . . . . . . . . . . . . X     ",
"    . . . . . . . . . . . . . . . . . . . . . . . . . . . . . . . . . . . . . . . . . . . . . . . . . . . . . . . X     ",
"    . . . . . . . . . . . . . . . . . . . . . . . . . . . . . . . . . . . . . . . . . . . . . . . . . . . . . . . .     ",
"    . . . . . . . . . . . . . . . . . . . . . . . . . . . . . . . . . . . . . . . . . . . . . . . . . . . . . . . .     ",
"    . . . . . . . . . . . . . . . . . . . . . . . . . . . . . . . . . . . . . . . . . . . . . . . . . . . . . . . X     ",
"    . . . . . . . . . . . . . . . . . . . . . . . . . . . . . . . . . . . . . . . . . . . . . . . . . . . . . . . .     ",
"    . . . . . . . . . . . . . . . . . . . . . . . . . . . . . . . . . . . . . . . . . . . . . . . . . . . . . . . .     ",
"    . . . . . . . . . . . . . . . . . . . . . . . . . . . . . . X . . . . . . . . . . . . . . . . . . . . . . . . .     ",
"    . . . . . . X . . . . . . . . . . . . . . . . . . . . X X . . . . . . . . . . . . . . . . . . . . . . X . . . .     ",
"    . . . . X . . . . . . . . . . . . . . . . . . . . . . X X X . . . . . . . . . . . . X . X . . . . . X . X . . X     ",
"    . . . . . X . X X X . . . . . . . . . . X . . . . . X O o X X X X X . . . . . . . X . . . . . X . . X X X X X O     ",
"    . . . X o o X X o o . . . . . . . . . . . . . . . . o $ $ O o o o X . . . . . . . X X X . X X . . X $ o X o o &     ",
"    . . . O @ O O O $ O X . . X . . . . . . X . X . . X o 6 & $ $ $ $ o . . . . . . X o o o o o o . . o & % O $ % 5     ",
"    . . . $ & % % % & $ o . X o X X . . X . X X X o o o @ 5 & & $ & & o X . . . . . o # @ $ $ $ @ X X $ 5 % $ $ 5 y     ",
"    . X . & ; ; ; ; 5 % O o O O O X . . . X O O o o O O @ 8 6 ; ; 6 5 o . . . . . . O ; % % % & % X X ; y 6 6 & 5 d     ",
"    . X X : 6 : : 6 e - $ $ $ & # X . . X X % # % $ % % O e 8 6 5 6 5 O . . . . . . ; 6 ; ; ; 6 & X O y w 5 : : y w     ",
"    X X O 8 9 7 6 w u ; & & - ; - X X X X O : ; ; ; ; > O 6 u 6 5 5 w $ X o X X . o 6 w 6 6 9 8 % o : j y e e y y 6     ",
"    o X : d y y w d u : : : 6 7 % X X X X # 7 > : : 7 9 % ; j 0 7 8 d ; o o X X X $ t d 9 9 y e $ ; j j d y h l 5 :     ",
"    + O u j d d t b r 7 , 7 q 9 * O O o O > q 9 < 7 q 9 > > j l y y g e + o o o X 3 l d 0 0 u 3 & u b l l l M h 5 y     ",
"    + - x l g d g B r r q q d < * # + O # r a q q q l 4 1 < h V g f s h # O O o O k V l s l j - 4 C V x M V M 3 d a     ",
"    + 4 V x x l V B s d f g l < * * # + > l g d a g x < s 1 h P V x M N > + # o 3 C F N V V h > M L D D D G 4 > V a     ",
"    * N V V c V G n k x x V k > > > * * 1 c l f g x x 4 z s k U D A A D 3 # # + M U L D I N 4 s P <.I U U N # 4 V z     ",
"    3 G A A V G L n D A D D 1 , , , = < N V x x c A k a x g n b.I L I U 4 * + 4 U N.U t.U n s x *.N.b.N.<.4 * 4 G V     ",
"    M U G F G t.D D U U *.N < 1 1 2 2 s A A v v A L k c c x C H.b.U b.U < = * L H.M.M.N.D n M C N.H.H.H.D 2 1 s $.G     ",
"    U t.U G U b.P *.m.M.U s 1 i i 1 1 N J A A D Y C M I A x L L.H.M.H.<.1 * M J.-X{.K.U M G J L H.[.L.H.n i q h n.y.    ",
"    H.m.b.I b.L <.J.L.M.M p p p p i l I *.G J $.b.m M n.I c 1.=X[.K.-XU i 2 K -X=XL.1.P U M.b.U H.=X*XC.k z p f C.S.    ",
"    {.D.C.H.C.,.*X=X_.,.x z c z c x V m.t.$.*.M.1.C C n.M.N Z.5X=X1X*XV f p k ,.+XF.O.M.K.L.N.n 3.6X2XC.c A z f C.|.    ",
"    :X{.L.=X1.3.:X`.).Q.o.A A S A x O.K.m.m.S.S.L C.<.L _.U 1.qX0X6XB.B x v x l P.oX_.{.=X=X,.1 C >XwX2.D J A V &. X    ",
"    2X1X:X>XC P o.R.].#X&.S $.J L +.G.}.J.K.|.B.,.1XL.L J.J.o.*X>X;X6.P F F S &.u.Y.;X:X6X;Xo.f x O.V.%.t.t.*.*.o.].    ",
"    :XtXtX>XB V c ~.Y.^.=.Y t.Y 5.oX<X1X*X*X*X0..X6X3X~.,.1XJ.B.1.XX8XI $.$.Y 2.u.Y. X2XyX;XL F G l K K.K.S.D.y.5.W.    ",
"    ).iXpX<XA $.J !.k.^.2.*.m.$.4.8X,X0X6X2X+X%XeXtXtX0X,.;X0X5X:X#X].5.y.m.y.B.i.Y.].wXpX;XG $.I o.*X2X}. X_.9.p.^.    ",
"    oX2XdX,XG t.Y !.h.^.B.y.H.1.:.W.,XrXiX0X).OX8XyXpXqX6.+XyXuXqX#Xk.P.A.D.S.Z.u.k.Y.<XyX).L t.#.).yXqX0X:XP.^.X.p.    ",
"    ].R.0X~.I C.t.!.h.U.5.m.H.Z.:.U.#XrXdXiXW.5.%X0XfX;X0.oXiXsXrX#Xh.^.y.J.D.~.u.r.T.].].oX6.t.A.qXsXaXqXW.^.q.p.q.    ",
"    w.I.XXK m.K.b.@Xj...U.B.y.V.9.h.E.eXfXpXW.` Q./.9X0.@.OXqXfX<X/.>.p.U.V.=.I.s.r.e.f.g.T.+Xn.B.+XaXeXI.8X| X.p.q.    ",
"    r.~ ^.3.K.{.B./.h.} X.I.OXE.;. .5.XX5XpXW.} >.0.0.8.@.0.R.,XE...} } | 9.W...r.r.r.f.f.T.Y.S.S.o.0.(.'.p.~ p.p.p.    ",
"    w.| | E.J._.F.-.} } } ..] ( _  .[ 5.OXoXQ. .{ ) W [ X. .8.Q.-. .} ^ ..X.| | ~ r.w.s.a.f.c.Z.U.I.u./ X.s.s.p.d.a.    ",
"    w.X.Q /.8.4.oX-./ ^ / _ ! E _ { _  . .` ]  .} _ W ) Q ' _ ! T Q ' } } | | q.w.s.l.s.a.a.f.T.T.j.q.~ q.f.v.d.g.v.    ",
"    X.j.} ' @.;.] } _ Q Q T T ! Q ( _ ` ( _  . ._ _ ' ' _ ! ! ( ( ( ' ( ) W } X.w.w.e.r.r.r.s.z.z.l.s.p.r.q.g.z.g.x.    ",
"    ^ -._ ( ` ] ] ` E T T T R '  .] ( E ( ] ] ] ' ' ] ' ' _ ( ( ( ( ( ( ) E W _ [ X.s.l.e.e.e.s.l.g.z.x.g.f.z.x.x.x.    "
};
