/* XPM */
static char *f6dfd33eed25481cb9d4fe3244285d48jTEhHltY93P8gBdq[] = {
/* columns rows colors chars-per-pixel */
"48 48 9 1 ",
"  c #151327",
". c #520D1B",
"X c #7D2730",
"o c #822437",
"O c #93293E",
"+ c #B65656",
"@ c #E16767",
"# c #F6AF81",
"$ c white",
/* pixels */
"                                                ",
"  X####$$$$$$$#$#####X    X####$$$$$$$#$#####X  ",
" o#++++++++++++++++++#o  o#++++++++++++++++++#o ",
" o++++++++++++++++++++o  o++++++++++++++++++++o ",
" o++++++++++++++++++++o  o++++++++++++++++++++o ",
" o++++++++++++++++++++o  o++++++++++++++++++++o ",
" o++++++++++++++++++++o  o++++++++++++++++++++o ",
" o@++++++++++++++++++@o  o@++++++++++++++++++@o ",
" oo@@@@@@@@@@@@@@@@@@oo  oo@@@@@@@@@@@@@@@@@@oo ",
" oooooooooooooooooooooo  oooooooooooooooooooooo ",
" oooooooooooooooooooooo  oooooooooooooooooooooo ",
"  oooooooooooooooooooo    oooooooooooooooooooo  ",
"                                                ",
"                                                ",
"  .ooooooooooo.   .ooooooooooo.   .ooooooooooo. ",
" .ooooooooooooo. .ooooooooooooo. .ooooooooooooo.",
" ooooooooooooooo ooooooooooooooo ooooooooooooooo",
" ooooooooooooooo ooooooooooooooo ooooooooooooooo",
" ooooooooooooooo ooooooooooooooo ooooooooooooooo",
" .ooooooooooooo. .ooooooooooooo. .ooooooooooooo.",
"  .ooooooooooo.   .ooooooooooo.   .ooooooooooo. ",
"                                                ",
"oooooo.   .ooooooooooo.   .OOOOOOOOOOO.   .ooooo",
"ooooooo. .ooooooooooooo. .OOOOOOOOOOOOO. .oooooo",
"oooooooo ooooooooooooooo OOOOOOOOOOOOOOO ooooooo",
"oooooooo ooooooooooooooo OOOOOOOOOOOOOOO ooooooo",
"ooooooo. .ooooooooooooo. .OOOOOOOOOOOOO. .oooooo",
"oooooo.. ..ooooooooooo.. ..OOOOOOOOOOO.. ..ooooo",
".......   .............   .............   ......",
"                                                ",
"  .OOOOOOOOOOO.   .OOOOOOOOOOO.   .OOOOOOOOOOO. ",
" .OOOOOOOOOOOOO. .OOOOOOOOOOOOO. .OOOOOOOOOOOOO.",
" OOOOOOOOOOOOOOO OOOOOOOOOOOOOOO OOOOOOOOOOOOOOO",
" OOOOOOOOOOOOOOO OOOOOOOOOOOOOOO OOOOOOOOOOOOOOO",
" .OOOOOOOOOOOOO. .OOOOOOOOOOOOO. .OOOOOOOOOOOOO.",
" ............... ............... ...............",
"  .............   .............   ............. ",
"                                                ",
"oooooo.   .ooooooooooo.   .ooooooooooo.   .ooooo",
"ooooooo. .ooooooooooooo. .ooooooooooooo. .oooooo",
"oooooooo ooooooooooooooo ooooooooooooooo ooooooo",
"oooooooo ooooooooooooooo ooooooooooooooo ooooooo",
"oooooooo ooooooooooooooo ooooooooooooooo ooooooo",
"ooooooo. .ooooooooooooo. .ooooooooooooo. .oooooo",
"oooooo.   .ooooooooooo.   .ooooooooooo.   .ooooo",
"                                                ",
"                                                ",
"                                                "
};
