/* XPM */
static char *e8dfa78d069840d58e531d144d51e7bfCmhf6Y73YF70qPFl[] = {
/* columns rows colors chars-per-pixel */
"60 60 217 2 ",
"   c None",
".  c #000000",
"X  c #060903",
"o  c #090D04",
"O  c #0D1206",
"+  c #0E1905",
"@  c #101607",
"#  c #121B06",
"$  c #111608",
"%  c #141C09",
"&  c #142405",
"*  c #152904",
"=  c #16230A",
"-  c #1A240A",
";  c #1C2B0B",
":  c #182C09",
">  c #1A3207",
",  c #1D330D",
"<  c #1E3B0B",
"1  c #1B3605",
"2  c #1C2F12",
"3  c #1D3411",
"4  c #1F3A16",
"5  c #212E0C",
"6  c #23340D",
"7  c #253B0E",
"8  c #243511",
"9  c #253C14",
"0  c #293D12",
"q  c #243F18",
"w  c #21430B",
"e  c #254B0E",
"r  c #244313",
"t  c #2A4413",
"y  c #264D13",
"u  c #2B4B16",
"i  c #26441A",
"p  c #2B471B",
"a  c #27491B",
"s  c #2B4C1B",
"d  c #304915",
"f  c #2D541C",
"g  c #2E5A1D",
"h  c #2B5517",
"j  c #3B5B17",
"k  c #31561D",
"l  c #305C1E",
"z  c #3D5C1B",
"x  c #3E6615",
"c  c #2A4E21",
"v  c #264720",
"b  c #2D5423",
"n  c #2F5923",
"m  c #2E5528",
"M  c #305522",
"N  c #325C23",
"B  c #335D2C",
"V  c #35572A",
"C  c #346325",
"Z  c #35632A",
"A  c #3A642E",
"S  c #376B28",
"D  c #396B2C",
"F  c #376925",
"G  c #3B712E",
"H  c #376530",
"J  c #3C6431",
"K  c #3C6C32",
"L  c #3E6E39",
"P  c #3D7333",
"I  c #3D7832",
"U  c #3F7539",
"Y  c #415E1B",
"T  c #44631D",
"R  c #466A1C",
"E  c #496C1E",
"W  c #416817",
"Q  c #4E741F",
"!  c #47711A",
"~  c #456421",
"^  c #4B6D22",
"/  c #46612C",
"(  c #4D6A2D",
")  c #516F2B",
"_  c #4E7123",
"`  c #42732E",
"'  c #527425",
"]  c #557A25",
"[  c #537629",
"{  c #567A2B",
"}  c #597D2A",
"|  c #416C35",
" . c #436D39",
".. c #496637",
"X. c #536E34",
"o. c #51693D",
"O. c #417437",
"+. c #417936",
"@. c #44743C",
"#. c #48743D",
"$. c #437B3B",
"%. c #4C7A3B",
"&. c #5B7E33",
"*. c #577139",
"=. c #5B763D",
"-. c #597735",
";. c #4C6C43",
":. c #4C7441",
">. c #477C40",
",. c #4D7A42",
"<. c #5D7343",
"1. c #537D44",
"2. c #597948",
"3. c #5C7D53",
"4. c #5C7254",
"5. c #647C4C",
"6. c #637C47",
"7. c #647B54",
"8. c #677B58",
"9. c #598626",
"0. c #5C8A26",
"q. c #5B842A",
"w. c #5D8A2A",
"e. c #568224",
"r. c #45823D",
"t. c #4A823E",
"y. c #5D8233",
"u. c #618D2C",
"i. c #64922D",
"p. c #68972E",
"a. c #628535",
"s. c #628D31",
"d. c #64853A",
"f. c #658A3D",
"g. c #669332",
"h. c #689631",
"j. c #6C9934",
"k. c #6E9A3A",
"l. c #709D36",
"z. c #478342",
"x. c #4A8443",
"c. c #4C8944",
"v. c #4D8C49",
"b. c #4B8749",
"n. c #548349",
"m. c #5A864D",
"M. c #528C4A",
"N. c #578849",
"B. c #54924D",
"V. c #59954D",
"C. c #56994D",
"Z. c #5A8A51",
"A. c #539551",
"S. c #5A9452",
"D. c #5C9B55",
"F. c #5E9C58",
"G. c #6B8C4F",
"H. c #668848",
"J. c #708A4F",
"K. c #6D9148",
"L. c #72984B",
"P. c #6B8455",
"I. c #648C54",
"U. c #698C52",
"Y. c #6B845C",
"T. c #698957",
"R. c #71895D",
"E. c #728F57",
"W. c #6D9454",
"Q. c #6C945B",
"!. c #669B58",
"~. c #74945C",
"^. c #769757",
"/. c #5FA15B",
"(. c #62A25C",
"). c #67A85E",
"_. c #67A255",
"`. c #78A55A",
"'. c #6D8262",
"]. c #6F8A62",
"[. c #728463",
"{. c #738B64",
"}. c #798D66",
"|. c #719B63",
" X c #7D9C6C",
".X c #769568",
"XX c #6C9860",
"oX c #6CA461",
"OX c #6CAB63",
"+X c #66A861",
"@X c #73A264",
"#X c #73AC65",
"$X c #76AC68",
"%X c #7AA86A",
"&X c #76B16A",
"*X c #7AB56D",
"=X c #76B569",
"-X c #7FB871",
";X c #81A35C",
":X c #839C6B",
">X c #839675",
",X c #85A777",
"<X c #84BC74",
"1X c #85B875",
"2X c #84BA6F",
"3X c #84C176",
"4X c #8AC37A",
"5X c #8CC57B",
"6X c #91CB7E",
"7X c #8FC780",
"8X c #93CB82",
"9X c #96D285",
"0X c #9BD48A",
"qX c #A1DD8F",
"wX c #A3DD92",
"eX c #A6E294",
"rX c #ADED9A",
/* pixels */
"    u.0.e.w.u.9.e.w.w.w.w.w.e._ x x _ } ' ' E E Q [ { [ E E ^ E _ { { [ ^ [ [ { [ ^ ^ [ [ ' E E ^ ) ) Y Y Y Y Y T R     ",
"    0.0.0.p.i.9.9.w.w.q.q.s.s.q.! W _ } ' ' ' ' [ ' ' E E ' [ ^ ^ ^ _ _ _ _ _ _ R ^ [ { } _ T Y T ~ ( ~ ~ o./ Y Y E     ",
"    0.u.p.g.u.w.g.w.w.q.H.f.s.g.q._ ] } } ' } [ E E E Q [ ] _ R E ^ _ E R ^ ^ ^ E [ { { ] _ E T T ~ T ( 8.2.4.>X&.}     ",
"    w.i.h.p.i.p.h.w.s.H.Z.m.K.k.w.] q.s.} Q } [ ! E Q ' } R.2.^ Q _ _ ~ T Q P.{.{.6.Q ' ' ' ^ E ~ ~ Y / 3.!.H.4.d.}     ",
"    u.h.h.i.p.p.^.:XU.| M.S.W.L.w.w.s.u.E a.E.d._ ] ] [ P.%XT.P.[ 6.R.P._ E T.9X<X{.=.R -.5.[.5.~ ~ ( 3.x.(.!.1.~.a.    ",
"    h.i.p.i.p.^.E.1X9X@Xn.z.XXL.9.u.u.e.a.J.%.n.G.y.&.R.$XrX4X{.[ 7.*XR.P.' G.0XrX1XP.=.<.P.z.2.<.Y ( Y.z.D.v.J [.J.    ",
"    h.h.p.p.^.Q.<X9XqX4Xn.$.3.Y.W.~.K.] y.I.C.V.1.U.-. X5XwX9X.X[.|.eX<X.XH.W.6XeX4X X5.=.m.C.v.;.<.X.'.$.M.L U.1X7.    ",
"    h.j.j.;XU.$X<X<X8XQ.O.r.L !.6X%XG.f.d.Z.B.B.x.2.}  X5X7X5X|.7.<XqX5X,X>X~.<X6X5X%X5...x.C.x.2.8.X.Y.P r.S $XeX<X    ",
"    k.`.j.G._.).oX*X#X| D $.K ~.0X2X^.E.a.m.r.c.t. .E. X#X*X<X#X;.<X4X3X,X>X|.&X-X-X%X[.2.+.c.r.:.8.=.R.G +.N @X0X0X    ",
"    k.W.<.c.V.B.C.D.J a D D D @X6X*X@XG.y.x.I $.+.| >XY.%.n.S.&X,.I.&X-XXXY.oXOXoX&X%X8.:.I r.I #.7.=.P.g N M $X<X5X    ",
"    u.W.J $.+.r.$. .m. .g y | oX<X#X|.G.{  .S S F Z 4.|.%XoXK S.S.K D.&X:.n.(.S.A.+XI...H P G S ;.8.5.7.| B V $X#X&X    ",
"    0.`.%.n F G C ,.1X&XJ ,  .OX).).!.R.7.M h l l g n.<X<X3X1.L !.L >.M. .Z.A.c.b.D.@.s C F C C J 8.3.!.#Xn.:.OXF.(.    ",
"    g._.M.a h F g N.*X-Xn.m x.(.D.v. .m.XX:.a w y M +X&XOX*XZ.N c.z.Z B $.M.r.I z.c.B s g h g h c ;.(.OXOX@.M.A.B.A.    ",
"    h.V.B.r e h a N.+XOXS.L r.v.$.A :.!.OXoXJ > 7 K +XD./.OXx.n G c.m v >.+.D D I U a e e e e e m n./.S.:.K z.P z.c.    ",
"    h.t.x.a w w c M.F./.A.L K K m L D./.+XD.m * < U A.v.A./. .f C P b B +.S C C P n < w w w < r U v.b.z.B z.U D +.$.    ",
"    g.` U i 1 > H A.A.A.b.B n a B v.v.v.A.U = * 3 U z.$.z.A.Z s k n a D C N g C Z i > 1 < 1 > b @.P P H H z.D D S $.    ",
"    g.x D 9 & 3 U b.z.b.U n 9 c U r.U z.U 4 + * 3 P P K P b.b y f r a B f f f l n : = 1 1 : 4 Z Z C Z c K D N N Z P     ",
"    g.g N 3 + m U U P $.K r , N K Z P U b + + & : H C B Z U a r h 3 f g u u u g 9 & & : * ; r C f g s c D g k N C N     ",
"    u.d n = 2 H K Z Z K b : i N g n Z Z 2 X + + = b b f n D i 7 e , s e e t e u : + + & = , u u e t i b N f k s N q     ",
"    u.u p : M B n g N B 4 = i s a s n v + X O + # i r u u N i , 6 8 u 7 7 0 t 7 # + + % & 6 u w 7 7 9 M u u u u f =     ",
"    u.t 5 p M s u u M i % ; i 7 7 t s 3 X X o O @ 8 u 0 0 u p - * 6 t 6 6 6 7 ; O O O O # 3 7 5 , 5 9 s 0 t t p q O     ",
"    q.7 2 p t 0 t p p - @ 8 0 6 6 0 t % . X X X o % t 7 6 7 a - # 5 6 ; ; ; 6 % X X o X = 6 ; ; : ; i t 7 0 0 t - o     ",
"    } ; 0 0 6 5 0 t 2 o $ 7 6 5 ; 7 5 o . X X X . + 7 5 5 5 0 3 @ ; - - & - ; O X X X X % ; = % % - 0 0 5 6 7 0 O X     ",
"    *.0 0 5 5 5 0 0 @ X % 5 - - ; 5 - . . . . X . o 6 5 - 5 8 8 O % $ # # # % X X . . X + % @ + $ % 8 5 5 - 5 ; X X     ",
"    ) d 8 - - - 0 - o . % - % $ % - @ . . . . . . o ; - - 5 5 8 @ @ O O o @ @ X . . . X o @ O o O % 5 5 % 5 - % . X     ",
"    ~ 0 - % % % 6 $ . X $ $ @ $ $ # o . . . X . . o - % % % % 5 @ X X X X X X . X . . X X X X X X $ % % % % % $ . .     ",
"    X.8 $ $ $ $ - X . X o o o o o o X . . . . . . o $ $ $ $ % 5 + . . X . X . X . . . . . X X . X @ @ O $ o $ o . .     ",
"    *.- o o o o @ X . . X X X . X X . . . . . . . o o o O O $ $ O . . . . . . . . . . . . . . . . X o o X o o X . .     ",
"    *.$ X X . X o X . . . X . X . X . . . . . . . X X X X X o O X . . . . . . . . . . . . . . . . X X X X X X . . .     ",
"    *.o . X . X . X . . . . . . . . . . . . . . . . . X X X X X . . . . . . . . . . . . . . . . . . . . . . . . . .     ",
"    -.X X . . . . . . . . . . . . . . . . . . . . . . . . X X X . . . . . . . . . . . . . . . . . . . . X . . . . .     ",
"    6.o . . . . . . . . . . . . . . . . . . . . . . . . . . . . . . . . . . . . . . . . . . . . . . . . . . . . . .     ",
"    K.o . . . . . . . . . . . . . . . . . . . . . . . . . . . . . . . . . . . . . . . . . . . . . . . . . . . . . .     ",
"    K.o . . . . . . . . . . . . . . . . . . . . . . . . . . . . . . . . . . . . . . . . . . . . . . . . . . . . . .     ",
"    a.o . . . . . . . . . . . . . . . . . . . . . . . . . . . . . . . . . . . . . . . . . . . . . . . . . . . . . .     ",
"    y.o . . . . . . . . . . . . . . . . . . . . . . . . . . . . . . . . . . . . . . . . . . . . . . . . . . . . . .     ",
"    &.o . . . . . . . . . . . . . . . . . . . . . . . . . . . . . . . . . . . . . . . . . . . . . . . . . . . . . .     ",
"    a.o . . . . . . . . . . . . . . . . . . . . . . . . . . . . . . . . . . . . . . . . . . . . . . . . . . . . . .     ",
"    a.O . . . . . . . . . . . . . . . . . . . . . . . . . . . . . . . . . . . . . . . . . . . . . . . . . . . . . .     ",
"    &.O . . . . . . . . . . . . . . . . . . . . . . . . . . . . . . . . . . . . . . . . . . . . . . . . . . . . . .     ",
"    d.O . . . . . . . . . . . . . . . . . . . . . . . . . . . . . . . . . . . . . . . . . . . . . . . . . . . . . .     ",
"    d.O . . . . . . . . . . . . . . . . . . . . . . . . . . . . . . . . . . . . . . . . . . . . . . . . . . . . . .     ",
"    d.o . . . . . . . . . . . . . . . . . . . . . . . . . . . . . . . . . . . . . . . . . . . . . . . . . . . . . .     ",
"    d.O . . . . . . . . . . . . . . . . . . . . . . . . . . . . . . . . . . . . . . . . . . . . . . . . . . . . . .     ",
"    d.@ . . . . . . . . . . . . . . . . . . . . . . . . . . . . . . . . . . . . . . . . . . . . . . . . . . . . . .     ",
"    d.O . . . . . . . . . . . . . . . . . . . . . . . . . . . . . . . . . . . . . . . . . . . . . . . . . . . . . .     ",
"    d.O . . . . . . . . . . . . . . . . . . . . . . . . . . . . . . . . . . . . . . . . . . . . . . . . . . . . . .     ",
"    d.O . . . . . . . . . . . . . . . . . . . . . . . . . . . . . . . . . . . . . . . . . . . . . . . . . . . . . .     ",
"    d.O . . . . . . . . . . . . . . . . . . . . . . . . . . . . . . . . . . . . . . . . . . . . . . . . . . . . . .     ",
"    d.O . . . . . . . . . . . . . . . . . . . . . . . . . . . . . . . . . . . . . . . . . . . . . . . . . . . . . .     ",
"    H.O . . . . . . . . . . . . . . . . . . . . . . . . . . . . . . . . . . . . . . . . . . . . . . . . . . . . . .     ",
"    f.+ . . . . . . . . . . . . . . . . . . . . . . . . . . . . . . . . . . . . . . . . . . . . . . . . . . . . . .     ",
"    y.O . . . . . . . . . . . . . . . . . . . . . . . . . . . . . . . . . . . . . . . . . . . . . . . . . . . . . .     ",
"    H.o . . . . . . . . . . . . . . . . . . . . . . . . . . . . . . . . . . . . . . . . . . . . . . . . . . . . . .     ",
"    y.o . . . . . . . . . . . . . . . . . . . . . . . . . . . . . . . . . . . . . . . . . . . . . . . . . . . . . .     ",
"    { o . . . . . . . . . . . . . . . . . . . . . . . . . . . . . . . . . . . . . . . . . . . . . . . . . . . . . .     ",
"    q.o . . . . . . . . . . . . . . . . . . . . . . . . . . . . . . . . . . . . . . . . . . . . . . . . . . . . . .     ",
"    q.o . . . . . . . . . . . . . . . . . . . . . . . . . . . . . . . . . . . . . . . . . . . . . . . . . . . . . .     ",
"    ^ o . . . . . . . . . . . . . . . . . . . . . . . . . . . . . . . . . . . . . . . . . . . . . . . . . . . . . .     ",
"    E o . . . . . . . . . . . . . . . . . . . . . . . . . . . . . . . . . . . . . . . . . . . . . . . . . . . . . .     "
};
