/* XPM */
static char *_018b5ab959f471aa810a24a75a2a734jYKNzp78Cy3pQcWL[] = {
/* columns rows colors chars-per-pixel */
"60 60 210 2 ",
"   c #000000",
".  c #060903",
"X  c #090D04",
"o  c #0D1305",
"O  c #0F1A05",
"+  c #0F1A09",
"@  c #101607",
"#  c #121B06",
"$  c #111608",
"%  c #141C08",
"&  c #181F09",
"*  c #132305",
"=  c #162C05",
"-  c #182C05",
";  c #16230A",
":  c #1A240A",
">  c #1C2B0B",
",  c #162B0C",
"<  c #1B3307",
"1  c #1D330C",
"2  c #1E3B09",
"3  c #1B2D10",
"4  c #172A11",
"5  c #1E3411",
"6  c #1F3B12",
"7  c #1E3818",
"8  c #202D0C",
"9  c #23330D",
"0  c #253B0E",
"q  c #243511",
"w  c #243C14",
"e  c #293D12",
"r  c #223E19",
"t  c #1F410A",
"y  c #24440D",
"u  c #28410E",
"i  c #244313",
"p  c #2A4314",
"a  c #264B14",
"s  c #2A4C16",
"d  c #25441B",
"f  c #2A471A",
"g  c #27491C",
"h  c #2B4C1B",
"j  c #295315",
"k  c #2D531C",
"l  c #2F5B1D",
"z  c #30531E",
"x  c #305C1E",
"c  c #31601F",
"v  c #2A4E20",
"b  c #274922",
"n  c #2E5423",
"m  c #2F5926",
"M  c #2F5129",
"N  c #305624",
"B  c #325C23",
"V  c #325C2A",
"C  c #395D2E",
"Z  c #346324",
"A  c #356926",
"S  c #35632B",
"D  c #376929",
"F  c #396B2D",
"G  c #3A662F",
"H  c #3B712E",
"J  c #3C6533",
"K  c #3B6C33",
"L  c #356330",
"P  c #3E7334",
"I  c #3E7539",
"U  c #3D7832",
"Y  c #476C1D",
"T  c #52781F",
"R  c #4D6B2C",
"E  c #537B24",
"W  c #55742B",
"Q  c #577D2A",
"!  c #5B7E2D",
"~  c #587B27",
"^  c #416435",
"/  c #426C35",
"(  c #426C3A",
")  c #46673C",
"_  c #546B3C",
"`  c #427536",
"'  c #417A36",
"]  c #44743B",
"[  c #4A763D",
"{  c #437B3B",
"}  c #4A793D",
"|  c #5B7D34",
" . c #5D7E3C",
".. c #56793B",
"X. c #4C6B43",
"o. c #576C4C",
"O. c #4D7442",
"+. c #457F42",
"@. c #4C7B43",
"#. c #517345",
"$. c #537C45",
"%. c #5B7C4E",
"&. c #587B42",
"*. c #627C4B",
"=. c #61795A",
"-. c #5B8127",
";. c #5D822A",
":. c #5F8B28",
">. c #46813D",
",. c #4B873F",
"<. c #53803F",
"1. c #5E8436",
"2. c #61832A",
"3. c #69932D",
"4. c #638433",
"5. c #63853C",
"6. c #638D3A",
"7. c #6E9A34",
"8. c #68933A",
"9. c #468342",
"0. c #4B8443",
"q. c #4D8A46",
"w. c #4D8649",
"e. c #4D8D4A",
"r. c #538349",
"t. c #5C824D",
"y. c #548C4C",
"u. c #5A894E",
"i. c #518047",
"p. c #4F914F",
"a. c #53934D",
"s. c #58954C",
"d. c #5F8653",
"f. c #5E8D51",
"g. c #559651",
"h. c #5B9552",
"j. c #5B9B55",
"k. c #5D9E59",
"l. c #579952",
"z. c #648344",
"x. c #6A8943",
"c. c #69854C",
"v. c #728F4F",
"b. c #6C9045",
"n. c #6A8553",
"m. c #628B53",
"M. c #6C8A54",
"N. c #668459",
"B. c #6B8459",
"V. c #6C8D5D",
"C. c #658756",
"Z. c #748E5D",
"A. c #738D50",
"S. c #639356",
"D. c #659659",
"F. c #629D59",
"G. c #6B9D5E",
"H. c #739359",
"J. c #7A925C",
"K. c #7D9C5A",
"L. c #709B5F",
"P. c #78994C",
"I. c #5FA25A",
"U. c #64A35C",
"Y. c #6BA35D",
"T. c #6AAA5F",
"R. c #6D8364",
"E. c #758C64",
"W. c #798F63",
"Q. c #758B69",
"!. c #75896B",
"~. c #6F9E61",
"^. c #749363",
"/. c #7B9364",
"(. c #749D63",
"). c #7C946D",
"_. c #7A9C6A",
"`. c #67A560",
"'. c #6CA560",
"]. c #6DAA64",
"[. c #73A464",
"{. c #71AD65",
"}. c #7BA36C",
"|. c #75AE68",
" X c #7BAB6B",
".X c #79AE67",
"XX c #75B269",
"oX c #7BB46D",
"OX c #7FBC71",
"+X c #7EB370",
"@X c #81996E",
"#X c #889F7A",
"$X c #81AD6F",
"%X c #80B76E",
"&X c #83B472",
"*X c #83BC74",
"=X c #8BBC79",
"-X c #88B676",
";X c #86C076",
":X c #89C477",
">X c #8CC57C",
",X c #8EC97D",
"<X c #86C379",
"1X c #92CB82",
"2X c #96D285",
"3X c #9CD68A",
"4X c #9ED98C",
"5X c #A1DD8F",
"6X c #A4DF94",
"7X c #A9E996",
/* pixels */
"      .   .   .   . . .   . . .   . .       .   .               . X $ : 8 e e 8 & > e u i s x A ` 0.g.G.Y.m.N.*.W | 4.! ",
"                                                                    X @ & 8 q e q 8 9 p l B F P >.y.a.r./ ) _ R W ! 4.4.",
"                                                            .   . . . X $ & 8 8 p f r 3 4 5 i g k k k k F } [ *.c.E ~ ! ",
"                                                                  . . X $ & 8 8 q h n g 4 O * < 2 y a k F ,.s.m.C.A.;.2.",
"                                                                  . X o & & : 8 0 e z C N d , < 2 j l A H ,.j.T.G.V.v.2.",
"                                                                . . o % : 8 9 q e p h B K ` L b a a k Z P 0.l.{.OX}.Z.x.",
"                                                              .   . X $ & 8 q e e f h z V ` e.w.` J J / K 0.U.{.:X1X^.@X",
"                                                                        . X & 9 f f z z Z K 9.g.I.`.Y.[.t.[ h.oX>X3X,X@X",
"                                                                            . X ; r N B S I 9.p.l.I.XX<X&XJ C G.>X5X,X*.",
"                                                                    . . X X X X X + q m H I 9.p.k.`.{.oX@.l k V r. Xd.C ",
"                                                                    . X @ & : : : & o ; 7 V K { 9.w.@.M g Z ' ' ` { w.U.",
"                                                                    . . @ $ : 8 e r w , , 5 a n V P J 7 t k F { 9.,.9.i.",
"                                                                    . . X @ % > 9 0 e h g i 6 k P { a.y.i.] ( G ^ =.^.V.",
"                                                                    . . o @ % : > 9 0 s m S m g n 9.l.U.]. X.X.X(.B.x.5.",
"                                                                  . . X @ @ : > 9 9 0 p m F I K m S y.U.|.*X1X3X:XM.~ Q ",
"                                                                      . @ % > 8 e p p h n S I e.+.V I k.T.|.%X%X(.V.E Q ",
"                                                                      . . o # > q p h B Z H I 9.l.y.L f.G.L.G.M.d.z.T E ",
"                                                                              X o , w z D I +.9.g.].@.=.B.n.B.n. .T T E ",
"                                                                                    . $ 7 V I p.k.`.Y.R._ R W | ! Q Q -.",
"                                                                                . . X . . + d I k.{.].C ^ #.%.r.t.C.H.1.",
"                                                                                  X . o O O O , M w.^ g c H U ,.a.s.<.H.",
"                                                                            . . . X o o O + * = , 6 2 j c H >.q.l.j...A.",
"                                                                .               . . o o O + * * * - t j Z H >.0.,.+.m.1.",
"                                                                      .   .     . o , 1 r g n m m n a a c A D } t.c. .;.",
"                                                                  . . X @ $ & & : 9 f p n S P { q.e.r.` C #.%.%. .| T Q ",
"                                                                  . X o & & 8 8 e p s p k Z F >.e.k.].].d.R.!.V.5.*. .Y ",
"                                                                .   X X % & 8 8 9 9 0 s k B J I 9.g.U.oX;Xm.N._.}.}.V.R ",
"                                                                . . X $ % & & 8 8 0 p h B D I 9.a.I.].XX,Xf.y.oX,X,XOXR.",
"                                                              . . . X $ % & : 8 9 e s N S I +.e.j.`.{.OX%Xu.S.*X1X6X7X.X",
"                                                                . X X $ & 8 8 q p f f d d g h m J ] r.u./ ] U.;X,X1X<XC.",
"                                                                . o % & 8 8 q q 1 ; : 1 0 y a j k k m Z { T.XX[.^.^.E.E.",
"                                                                  . . o $ % # o o # > 9 y s k l m A I a.U.u.O.X.=.Q.1.5.",
"                                                                      . . . @ & : 1 1 5 1 0 i k D >.q.@.I O.D.+X&X(.c.b.",
"                                                                        . . @ & > 9 w p h g g g n V L K +.h.XX1X3X3X X).",
"                                                                        . . o % : 1 9 y s n m B V b b ` F.oXOX:X2X2X(./.",
"                                                                  .     . X o # : > 9 0 u j x A P J J ] @.D. X=X-X}.C.x.",
"                                                                        . X o % > - 9 0 p s j x A >.q.0.] O.E.#X@XH.b.:.",
"                                                                      . . X @ # > > 0 0 a s j x B A { s.F.f.V.@X^.b.3.8.",
"                                                                          X o # : 8 0 p s s j N Z F P >.a.`.T.'.'. X$X$X",
"                                                                            . . . o ; 5 p k B Z Z A P >.y.j.].*X1X5X7X7X",
"                                                                                . . X o * , d m H I >.0.a.k.{.*X1X6X7X[.",
"                                                                            . . . . o o O * , < d V I a.U.].oX;X=X%XG.).",
"                                                                                . X O O + * = < 2 t j m ( V.}.(._._.M.5.",
"                                                                          . . . . . o * * = < < 2 y a k n o.Q.^.x.5.4.-.",
"                                                                        . X @ % & ; ; * * - < 2 t y j c A / O.&... .z.x.",
"                                                                      . . X @ & > 1 q 1 1 , - < t y j l F U U ' $.f.d.E.",
"                                                                          . X % ; 1 0 s h i w < 2 y j c F ` ,.q.s.s.,.).",
"                                                                        . . @ $ * > 1 0 s m S n 6 y j c A H >.>.e.y.$.Z.",
"                                                                        . . @ $ ; > 9 0 u j Z ' I M i N A F ` ' ` _ c.2.",
"                                                                  . . . X @ $ % & : 1 0 s k Z F 9.a.C o.Q.E.Z.E.@XA.2.2.",
"                                                                    X o % : 9 q w w q 9 w h S P >.a.k.m.Z.x.4.4.2.2.2.2.",
"                                                                  . . o $ & 8 9 e f h N k g g S 9.l.`.U.V.J././.J.@XJ.J.",
"                                                                  . . X $ & : 8 9 e p h B S S V m O.U.OXS.^ / } } i.r.r.",
"                                                                    . X $ & : 8 9 0 p s k Z K I I I I G.r.B A ' >.q.a.l.",
"                                                                  . . @ $ & 8 8 9 e p s h l Z P 9.+.O.@.^ h l A H >.l.U.",
"                                                                    . X $ & 8 9 e p p h j z B S K K y.h.$.[ ` [ } [ { y.",
"                                                                    . . X o % > q p f h l m B A F K >.U.].oX+X&X*X~.) d.",
"                                                                              . o : q h m Z A F U 9.q.g.U.oX,X6X4X-XE.K.",
"                                                                          .     . . o % 5 g S U { 9.a.k.T.oX<X,X Xn.P.7.",
"                          .   .                                               . . X o O O O , g K w.j.Y.XXoX[.V./.K.3.7."
};
