/* XPM */
static char *e96eae8a96dd41c4933731feb7b25600uVbAkV6rLqbKe6E8[] = {
/* columns rows colors chars-per-pixel */
"60 60 218 2 ",
"   c None",
".  c #000000",
"X  c #060903",
"o  c #090D04",
"O  c #0D1305",
"+  c #0E1905",
"@  c #0F1809",
"#  c #101607",
"$  c #121B06",
"%  c #121708",
"&  c #151C08",
"*  c #181F09",
"=  c #142306",
"-  c #162B05",
";  c #182C06",
":  c #16230A",
">  c #1A240A",
",  c #172B0E",
"<  c #1D2B0B",
"1  c #1B3407",
"2  c #1D330C",
"3  c #1E3B08",
"4  c #173202",
"5  c #1B2C10",
"6  c #1E3511",
"7  c #1F3914",
"8  c #1E3818",
"9  c #212D0C",
"0  c #23330D",
"q  c #243B0E",
"w  c #253511",
"e  c #243C14",
"r  c #293D11",
"t  c #223E1A",
"y  c #1F400B",
"u  c #22420C",
"i  c #24480C",
"p  c #254513",
"a  c #2A4414",
"s  c #254A14",
"d  c #2B4B16",
"f  c #25441A",
"g  c #2A4719",
"h  c #274A1A",
"j  c #2B4C1B",
"k  c #2A5215",
"l  c #2D541D",
"z  c #2D591C",
"x  c #275013",
"c  c #305D1E",
"v  c #30601F",
"b  c #274921",
"n  c #2A4C20",
"m  c #264720",
"M  c #2E5423",
"N  c #2F5A26",
"B  c #315424",
"V  c #325C23",
"C  c #335D2B",
"Z  c #33552A",
"A  c #3B5D31",
"S  c #336224",
"D  c #356926",
"F  c #36642B",
"G  c #39662E",
"H  c #376A29",
"J  c #396C2C",
"K  c #3B712E",
"L  c #3B6332",
"P  c #3C6D33",
"I  c #376833",
"U  c #3E7333",
"Y  c #3E7538",
"T  c #3D7833",
"R  c #486C1C",
"E  c #52781E",
"W  c #4D6D23",
"Q  c #476B20",
"!  c #516E2B",
"~  c #4F702A",
"^  c #557A21",
"/  c #53722B",
"(  c #567926",
")  c #436F36",
"_  c #446E3B",
"`  c #46663A",
"'  c #407735",
"]  c #427B36",
"[  c #43743B",
"{  c #4A743D",
"}  c #437C3B",
"|  c #4C7A3D",
" . c #5B7B3B",
".. c #57783D",
"X. c #457C41",
"o. c #4B7B42",
"O. c #4B7540",
"+. c #527C46",
"@. c #5B7C4B",
"#. c #577848",
"$. c #5C6D52",
"%. c #4C6A44",
"&. c #677C5B",
"*. c #568025",
"=. c #5B8425",
"-. c #5B832A",
";. c #5F8B29",
":. c #46823D",
">. c #4A863E",
",. c #5F823C",
"<. c #5B8036",
"1. c #618626",
"2. c #668926",
"3. c #62862A",
"4. c #638A2B",
"5. c #68932F",
"6. c #64912C",
"7. c #648A31",
"8. c #668C3A",
"9. c #679231",
"0. c #6A9434",
"q. c #6A913A",
"w. c #6C9933",
"e. c #71993C",
"r. c #478444",
"t. c #4A8443",
"y. c #4C8A45",
"u. c #4D8B49",
"i. c #548344",
"p. c #5E8341",
"a. c #508C47",
"s. c #548449",
"d. c #5B844C",
"f. c #528C4B",
"g. c #5B8B4F",
"h. c #53934D",
"j. c #58954D",
"k. c #5D8C53",
"l. c #5E8252",
"z. c #559652",
"x. c #5B9553",
"c. c #5B9B55",
"v. c #5E9E5A",
"b. c #579851",
"n. c #64844D",
"m. c #6D8C49",
"M. c #698B45",
"N. c #6E9247",
"B. c #6E934A",
"V. c #73944C",
"C. c #769B49",
"Z. c #759446",
"A. c #648554",
"S. c #698354",
"D. c #628A55",
"F. c #6D8C54",
"G. c #6B8C5B",
"H. c #728E51",
"J. c #728C5D",
"K. c #71875A",
"L. c #619453",
"P. c #6C945C",
"I. c #639E5A",
"U. c #6B9E5E",
"Y. c #639959",
"T. c #729254",
"R. c #769A54",
"E. c #7B995C",
"W. c #76985B",
"Q. c #5EA256",
"!. c #64A35C",
"~. c #6CA25E",
"^. c #6BA95F",
"/. c #6B8761",
"(. c #748C66",
"). c #748967",
"_. c #6E9362",
"`. c #749363",
"'. c #799463",
"]. c #739F64",
"[. c #7D9B66",
"{. c #7A956B",
"}. c #67A660",
"|. c #6AA561",
" X c #6DAB63",
".X c #74A364",
"XX c #7BA265",
"oX c #72AB66",
"OX c #7AA36A",
"+X c #7BAC6B",
"@X c #78AD67",
"#X c #75B169",
"$X c #7BB46D",
"%X c #79B66B",
"&X c #7EAB71",
"*X c #7FB470",
"=X c #7EBA71",
"-X c #819D65",
";X c #829D6C",
":X c #829873",
">X c #82A065",
",X c #81B96D",
"<X c #82AC72",
"1X c #82B272",
"2X c #83BC74",
"3X c #87B777",
"4X c #8DC57C",
"5X c #8FC97E",
"6X c #87C377",
"7X c #91CA7E",
"8X c #90C57F",
"9X c #93CC83",
"0X c #9BD689",
"qX c #9AD789",
"wX c #A0DD8F",
"eX c #A2DE91",
"rX c #A9E697",
"tX c #A6E594",
/* pixels */
"                                                                                                                        ",
";.6.w.R.'.G.|.%X#X|.v.u.P b 5 + + + + O X . . . . . . . . . . . . . . . . . . . . . . . X X X X X . . . . . . . . . . . ",
"6.w.C.F.XX4X4X1X XI.h.t.} ' G M 7 : O X X X . . . . . . . . . . . . . . . . . . . . . . . . . . . . . . . . . . . . . . ",
"9.R.`.1X0XeX5X$X!.b.u.r.' J H V V h e : # o . . . . . . . . . . . . . . . . . . . . . . . . . . . . . . . . . . . . . . ",
"n.l.{ P.2X3X$X$X#XQ.t.U J H V V z j d a w < & # o X X . . X . . . . . . . . . . . . . . . . . . . . . . . . . . . . . . ",
"k.g.[ [ o.| { { +.x.f.Y P H V z l j a a r 0 9 > & O o . . . . . . . . . . . . . . . . . . . . . . . . . . . . . . . . . ",
"Q.!.c.>.U D z j L o.O.X.:.Y S V j d a r 0 9 9 * & o X . X . . . . . . . . . . . . . . . . . . . . . . . . . . . . . . . ",
"L.b.h.u.:.] D V s.P.[ Y [ Y P S l d a r 0 9 > * # O X . . . . . . . . . . . . . . . . . . . . . . . . . . . . . . . . . ",
"+.+.s.t.| | ' ` d.2X!.[ C C G G V j d r 0 9 < * % O X . . . . . . . . . . . . . . . . . . . . . . . . . . . . . . . . . ",
"=.H.'.-X-X-X-XE.G.I.}.c.r.G h m n M M g r 0 < * % O X X . X . . . . . . . . . . . . . . . . . . . . . . . . . . . . . . ",
"4.9.5.5.5.7.4.8.J.l.!.h.:.T D l p 0 6 e r w 9 9 & O o . . . . . . . . . . . . . . . . . . . . . . . . . . . . . . . . . ",
"9.0.5.V.'.'.J.`.`.$.L h.t.P V l d r 0 > > & & # O o X . . . . . . . . . . . . . . . . . . . . . . . . . . . . . . . . . ",
"0.9.T.+.{ ] ' K D V p M Y Y H l p q 0 < > # O X X . . . . . . . . . . . . . . . . . . . . . . . . . . . . . . . . . . . ",
"0.W.i.a.a.>.] ' D V k u 7 M S V d u 0 ; > $ O X X X . . . . . . . . . . . . . . . . . . . . . . . . . . . . . . . . . . ",
"0.[.i.h.b.a.>.] J v k i 3 1 7 h j d u 0 > $ # X . . . . . . . . . . . . . . . . . . . . . . . . . . . . . . . . . . . . ",
"0.[.D.g.a.} ' K K v x i y 1 4 , 2 w 0 0 < > # o X X . . . . . . . . . . . . . . . . . . . . . . . . . . . . . . . . . . ",
"w.C.V.M.8.@.+.) H v z i 3 3 1 ; = : $ : = $ # o . . . . . . . . . . . . . . . . . . . . . . . . . . . . . . . . . . . . ",
"5.w.e.Z.Z.'.{.#.M z x y 3 1 1 ; = = O o o . X X X . . . . . . . . . . . . . . . . . . . . . . . . . . . . . . . . . . . ",
"2.e.R.XXOXOXXX_.%.M h p 3 1 ; = $ + O O X X X . . . . . . . . . . . . . . . . . . . . . . . . . . . . . . . . . . . . . ",
"0.[.[.,X6X2X%X X!.z.X.C f 2 = $ + + O X X X . . . . . . . . . . . . . . . . . . . . . . . . . . . . . . . . . . . . . . ",
":X.XeXtX9X3XoX!.h.y.} ] J V j 5 : O O X X . . . X . . . . . . . . . . . . . . . . . . . . . . . . . . . . . . . . . . . ",
">XwXrXtX9X6XoXv.u.:.T J D S V z s 6 = O o . . . . . . . . . . . . . . . . . . . . . . . . . . . . . . . . . . . . . . . ",
":X<X1X&X.X~.^. Xj.:.T H S c l k d a q 0 > $ O o . . . . . . . . . . . . . . . . . . . . . . . . . . . . . . . . . . . . ",
"..,. .+.G.{./.k.I.b.} H S c k d s q q 2 < = # o X . . . . . . . . . . . . . . . . . . . . . . . . . . . . . . . . . . . ",
"R R ..S.).:X).$.O.o.u.:.J V l d i q 0 < > & % o X . . . X . . . . . . . . . . . . . . . . . . . . . . . . . . . . . . . ",
"Q ..&.{.<X3X&XY.t.[ P P P H c j p q 0 < > & O o X . X . . . . . . . . . . . . . . . . . . . . . . . . . . . . . . . . . ",
"! /.`.4XqX6X=X%X!.[ b b C F N z d p q 2 > & O o X . . . . . . . . . . . . . . . . . . . . . . . . . . . . . . . . . . . ",
"! K.OX0X0X9X*XI.o.) G C M h f h j d e q < : # O X . . . . . . . . . . . . . . . . . . . . . . . . . . . . . . . . . . . ",
"W #.#.P.*X1X].X.L X.u.:.J z p 3 0 6 w 2 > * # o X . . . . . . . . . . . . . . . . . . . . . . . . . . . . . . . . . . . ",
"W ! ! /.&.%.O.s.I.b.} H V z z k i 0 > = % O # # # # o . . . . . . . . . . . . . . . . . . . . . . . . . . . . . . . . . ",
"( K.).(._.].#X|.t.F V z l j d p q 0 > , 9 w w w 9 > & O o . . . . . . . . . . . . . . . . . . . . . . . . . . . . . . . ",
"H.F.*X9X9X6X|.o.L s.s.[ L N h f f f f g r w 9 9 * % # o X . . . . . . . . . . . . . . . . . . . . . . . . . . . . . . . ",
";X+XrXrX9X2XU.s.+X*X#X}.z.u.X.Y G V j r w 9 9 * * # o X X . . . . . . . . . . . . . . . . . . . . . . . . . . . . . . . ",
"Z.J.2X7X7X$Xj.s.5X$XoXQ.z.r.Y I V l a w 9 9 > * & # o X . X . . . . . . . . . . . . . . . . . . . . . . . . . . . . . . ",
"7.<.W.<X1X+XG.D.2X*X}.z.u.Y U F l a u 0 0 9 9 * % O o X . . . . . . . . . . . . . . . . . . . . . . . . . . . . . . . . ",
"-.=.N.V.V.R.{.).k.oX XQ.h.:.J N z a d a q 0 9 > % # o . . . . . . . . . . . . . . . . . . . . . . . . . . . . . . . . . ",
"=.;.6.q.8.,.n.@.A [ u.h.u.r.U F M p g w 9 < $ $ % O o . . . . . . . . . . . . . . . . . . . . . . . . . . . . . . . . . ",
"=.=.8.B.A.| J D z s h N N C N n f 6 , $ o . . X X X X . X . . . . . . . . . . . . . . . . . . . . . . . . . . . . . . . ",
"1.=.n.i.>.>.:.' D z y 4 - = = $ O + O o . . . . . . . . . . . . . . . . . . . . . . . . . . . . . . . . . . . . . . . . ",
"=.m.i.x.v.y.:.K S x y 2 4 - = $ + O + o o X . . . . . . . . . . . . . . . . . . . . . . . . . . . . . . . . . . . . . . ",
"1.H. .f.j.>.T K v s L o.Z : + $ + O X X X X X . . . . . . . . . . . . . . . . . . . . . . . . . . . . . . . . . . . . . ",
"2.4.H.&.g.d.d.#.` Z }.oXv.[ 8 @ o o X X . X . . . . . . . . . . . . . . . . . . . . . . . . . . . . . . . . . . . . . . ",
"3.2.7.7.7.4.3.-.<.(.~. Xv.h.r.C 8 @ X . . . . . . . . . . . . . . . . . . . . . . . . . . . . . . . . . . . . . . . . . ",
"4.4.2.2.e.V.T.V.T./.o.}.z.u.r.Y G n e > O X X . . . . . . . . . . . . . . . . . . . . . . . . . . . . . . . . . . . . . ",
"3.3.2.Z.H.T.XX.X].k.A f.v.r.Y I F V l a 9 < & o X . . . X . . . . . . . . . . . . . . . . . . . . . . . . . . . . . . . ",
"3.3.1.H.].$X,X@X}.Q.Y C r.u.Y H V j a a r 0 9 * O o X . . . . . . . . . . . . . . . . . . . . . . . . . . . . . . . . . ",
"4.4.1.m.3X0X9X2X#X}.z.F N P Y K V a r 0 9 < > & # o . . . . . . . . . . . . . . . . . . . . . . . . . . . . . . . . . . ",
"4.q.q.F.OX*X*X$XoX}.z.r.M h N I V d q 0 9 < * % o X X X . . . . . . . . . . . . . . . . . . . . . . . . . . . . . . . . ",
"<.T.{.S.` I [ { s.x.z.r.U z 7 f h l e q 0 > > # o X . . . . . . . . . . . . . . . . . . . . . . . . . . . . . . . . . . ",
"A.s.t.t.r.} D l p t L P V M h 2 = 5 t a r 9 > & # X X . . . . . . . . . . . . . . . . . . . . . . . . . . . . . . . . . ",
"s.!.i.} ' ' } D s j %.t.X.Y I N f : + $ > 9 > * % o X . . . . . . . . . . . . . . . . . . . . . . . . . . . . . . . . . ",
"A.P d..Xd.C z M _ oX X!.v.h.r.X.I N 7 $ o O o o o X . X X . . . . . . . . . . . . . . . . . . . . . . . . . . . . . . . ",
"N.@.3XqX4XP.L C $X6X#X}.z.h.r.Y ) V Z r : O . . . . . . . . . . . . . . . . . . . . . . . . . . . . . . . . . . . . . . ",
"7.'.9XqX9X*XL.[ D.oX|.}.!.z.r.U V B l j a 5 & O . . . . . . . . . . . . . . . . . . . . . . . . . . . . . . . . . . . . ",
"7.-XXX4X4X@X!.t.P [ P Y X.u.u.Y F l j g g r w 9 & O o X . . . . . . . . . . . . . . . . . . . . . . . . . . . . . . . . ",
"7.B.J.@X2X#Xx.u.U N M h m M I Y ) V j r r w w w 9 & # o . X . . . . . . . . . . . . . . . . . . . . . . . . . . . . . . ",
"-.*.M.G.U. XI.>.] H v x u ; 2 f C C l a w 9 9 * & # o X . . . . . . . . . . . . . . . . . . . . . . . . . . . . . . . . ",
"*.^ E m.F.D.x.>.K c x i 3 3 = + , j B g r 9 9 & # o X X X . . . . . . . . . . . . . . . . . . . . . . . . . . . . . . . ",
"-.^ ^ =.V.S.| o.J l d d f f e 6 : : e j g w 9 > % o X X . . X . . . . . . . . . . . . . . . . . . . . . . . . . . . . . ",
"4.-.R ^ ^ E ! %.C o.f.u.r.} J V V j w 9 t r w > * o X X X . . . . . . . . . . . . . . . . . . . . . . . . . . . . . . . "
};
