/* XPM */
static char * corner_tr2_xpm[] = {
"48 48 8 1",
" 	c #8F56B3",
".	c #361D23",
"+	c #000000",
"@	c #443F4F",
"#	c #100029",
"$	c #C79065",
"%	c #F5F5F5",
"&	c #FFFFFF",
"                                                ",
"...+.....+.....+....+....+.....+.....+.....+..@ ",
"..++++++++####.+###.+###.+####.+#####+####.+..@ ",
"..+.##...+####.+###.+###.+####.+#####+####.+@@@ ",
"+++#####.+####.+###.+###.+####.+++++++####.+..@ ",
"..+#####.+####.+###.++++++####.+####.+####.+..@ ",
"..+#####.+####.+###.+###.+####.+####.+####.+..@ ",
"..+#####.+####.++++++###.+####.+####.+####.+..@ ",
"..+#####.+++++++###.+###.+++++++####.+++++++..@ ",
"+++#####.+####.+###.+###.+####.+####.+####.+..@ ",
"..+#####.+####.+###.+###.+####.+####.+####.+..@ ",
"..+#####.+####.+###.+###.+####.+++++++####.+@@@ ",
"..+#####.+####.+###.+###.+####.+####.+####.+..@ ",
"++++++++++####.+###.++++++####.+####.+####.+..@ ",
"..+##.+#.+####.++++++###.+####.+####.+####.+..@ ",
"..+##.+#.+####.+###.+ ##.+####.+###..+####.+..@ ",
"++++++++++++++++##   ++$++   ..+####.+####.+..@ ",
"...+...+...+...+#      $+     .+####.+++++++..@ ",
".##+###+###+##.+        +$     +####.+####.+..@ ",
".##+###+###+##.+      $$+      +####.+####.+@@@ ",
"++++++++++++++++++++++$$$+++++++####.+####.+..@ ",
".##+#.+++#.+##.   +  $$$%$      ++++++###..+..@ ",
".##+##+++##+##.   +  $$%%$      #+##.+###..+..@ ",
".##+++#.++++##.   +   $%$       ####.+####.+..@ ",
"++++#+##+++++++   +   $$$       ####.+####.+..@ ",
".##++++++.++##.++++++ ... ++++.+####.+##+#.+..@ ",
".##+#+#+##.+##.+     #   # +   +####.+++++++..@ ",
".##+##+++#.+##.+#    ####. +  .+####.+####.+@@@ ",
"++++++++++++++++##    ####   #.+####.+####.+..@ ",
".##+###+###+##.+##..  ###  ###.+####.+####.+..@ ",
".##+###+###+##.+##..++##.+####.+++++++###..+..@ ",
"...+...+...+...++++++###.+###..+####.+####.+..@ ",
"..+##.+#.+####.+####+###.+++++++####.+####.+..@ ",
"..+##.+#.+####.+####+###.++##+#+++++++++++++@@@ ",
"++++++++++####.+####+###.+#+++++####.++###.+..@ ",
"..+#####.+####.+###.+###.+###+.+###..+####.+..@ ",
"..+#####.+####.+###.++++++####.+####.+####.+..@ ",
"..+#####.+####.++++++###.+++++.+####.+####.+..@ ",
"+++#####.+####.+####+###.+####.+####.+####.+..@ ",
"..+#####.+++++++####+###.+####++++++++####.+..@ ",
"..+#####.+####.+###.+###.+####.+####.+####.+@@@ ",
"..+#####.+####.+###.+##+.+####.+####.+####.+..@ ",
"..+#####.+####.+++++++++++++++.+####.+####.+..@ ",
"+++#####.+####.+###.++++.+++++++####.+####.+..@ ",
"..+.##...+####.+###.+###.++++++++###.+#.##.+..@ ",
"..++++++++####.+###.+###.+####++++++++++++++..@ ",
"...+.....+.....+....+....+.....+...+...+......@ ",
"&..+.....+.....+....+....+.....+...+...+......@ "};
