/* XPM */
static char * wall_r_xpm[] = {
"48 48 6 1",
" 	c #FFFFFF",
".	c #361D23",
"+	c #000000",
"@	c #443F4F",
"#	c #8F56B3",
"$	c #100029",
" ..+.....+.....+....+....+.....+.....+.....+..@#",
"...+.....+.....+....+....+.....+.....+.....+..@#",
"..++++++++$$$$.+$$$.+$$$.+$$$$.+$$$$$+$$$$.+..@#",
"..+.$$...+$$$$.+$$$.+$$$.+$$$$.+$$$$$+$$$$.+@@@#",
"+++$$$$$.+$$$$.+$$$.+$$$.+$$$$.+++++++$$$$.+..@#",
"..+$$$$$.+$$$$.+$$$.++++++$$$$.+$$$$.+$$$$.+..@#",
"..+$$$$$.+$$$$.+$$$.+$$$.+$$$$.+$$$$.+$$$$.+..@#",
"..+$$$$$.+$$$$.++++++$$$.+$$$$.+$$$$.+$$$$.+..@#",
"..+$$$$$.+++++++$$$.+$$$.+++++++$$$$.+++++++..@#",
"+++$$$$$.+$$$$.+$$$.+$$$.+$$$$.+$$$$.+$$$$.+..@#",
"..+$$$$$.+$$$$.+$$$.+$$$.+$$$$.+$$$$.+$$$$.+..@#",
"..+$$$$$.+$$$$.+$$$.+$$$.+$$$$.+++++++$$$$.+@@@#",
"..+$$$$$.+$$$$.+$$$.+$$$.+$$$$.+$$$$.+$$$$.+..@#",
"++++++++++$$$$.+$$$.++++++$$$$.+$$$$.+$$$$.+..@#",
"..+$$.+$.+$$$$.++++++$$$.+$$$$.+$$$$.+$$$$.+..@#",
"..+$$.+$.+$$$$.+$$$.+$$$.+$$$$.+$$$..+$$$$.+..@#",
"++++++++++++++++$$$.+$$$.+$$$..+$$$$.+$$$$.+..@#",
"...+...+...+...+$$$.+$$$.+$$$$.+$$$$.+++++++..@#",
".$$+$$$+$$$+$$.+$$$.+$$..+++++++$$$$.+$$$$.+..@#",
".$$+$$$+$$$+$$.+$$$.+$$..+$$$$.+$$$$.+$$$$.+@@@#",
"++++++++++++++++$$$.+$$$.+$$$$.+$$$$.+$$$$.+..@#",
".$$+$.+++$.+$$.++++++$$$.+$$$$.+++++++$$$..+..@#",
".$$+$$+++$$+$$.+$$$.+$$$.+$$$$.+$+$$.+$$$..+..@#",
".$$+++$.++++$$.+$$$.++++++$$$$.+$$$$.+$$$$.+..@#",
"++++$+$$++++++++$$$.+$$$.+$$$$.+$$$$.+$$$$.+..@#",
".$$++++++.++$$.+$$$.+$$$.+$$$..+$$$$.+$$+$.+..@#",
".$$+$+$+$$.+$$.+$$$.+$$$.+++++++$$$$.+++++++..@#",
".$$+$$+++$.+$$.+$$$.+$$$.+$$$$.+$$$$.+$$$$.+@@@#",
"++++++++++++++++$$$.+$$$.+$$$$.+$$$$.+$$$$.+..@#",
".$$+$$$+$$$+$$.+$$..+$$$.+$$$$.+$$$$.+$$$$.+..@#",
".$$+$$$+$$$+$$.+$$..++++++$$$$.+++++++$$$..+..@#",
"...+...+...+...++++++$$$.+$$$..+$$$$.+$$$$.+..@#",
"..+$$.+$.+$$$$.+$$$$+$$$.+++++++$$$$.+$$$$.+..@#",
"..+$$.+$.+$$$$.+$$$$+$$$.++$$+$+++++++++++++@@@#",
"++++++++++$$$$.+$$$$+$$$.+$+++++$$$$.++$$$.+..@#",
"..+$$$$$.+$$$$.+$$$.+$$$.+$$$+.+$$$..+$$$$.+..@#",
"..+$$$$$.+$$$$.+$$$.++++++$$$$.+$$$$.+$$$$.+..@#",
"..+$$$$$.+$$$$.++++++$$$.+++++.+$$$$.+$$$$.+..@#",
"+++$$$$$.+$$$$.+$$$$+$$$.+$$$$.+$$$$.+$$$$.+..@#",
"..+$$$$$.+++++++$$$$+$$$.+$$$$++++++++$$$$.+..@#",
"..+$$$$$.+$$$$.+$$$.+$$$.+$$$$.+$$$$.+$$$$.+@@@#",
"..+$$$$$.+$$$$.+$$$.+$$+.+$$$$.+$$$$.+$$$$.+..@#",
"..+$$$$$.+$$$$.+++++++++++++++.+$$$$.+$$$$.+..@#",
"+++$$$$$.+$$$$.+$$$.++++.+++++++$$$$.+$$$$.+..@#",
"..+.$$...+$$$$.+$$$.+$$$.++++++++$$$.+$.$$.+..@#",
"..++++++++$$$$.+$$$.+$$$.+$$$$++++++++++++++..@#",
"...+.....+.....+....+....+.....+...+...+......@#",
" ..+.....+.....+....+....+.....+...+...+......@#"};
