/* XPM */
static char * wall_t_xpm[] = {
"48 48 6 1",
" 	c #8F56B3",
".	c #443F4F",
"+	c #361D23",
"@	c #000000",
"#	c #100029",
"$	c #FFFFFF",
"                                                ",
"................................................",
"+++.+++++++.+++++++.+++++++.+++++.++++++.+++++++",
"+++.+++++++.+++++++.+++++++.+++++.++++++.+++++++",
"@@@@@@@@@@@@@@@@@@@@@@@@@@@@@@@@@@@@@@@@@@@@@@++",
"++++++++@++++++++@++++++++@++++++@+++++++++++@++",
"++######@########@###++###@###+##@###########@++",
"++######@########@#######@@######@###########@++",
"++######@########@########@######@##########+@@@",
"++######@########@########@######@@##########@++",
"@@@@@@@@@@@@@@@@@@@@@@@@@@@@@@@@@@@@@@@@@@@@@@++",
"++##@++++++@+++++++++@++++++++@++@+++++@+++++@++",
"++##@######@###+#####@########@##@#+###@#####@@@",
"++##@######@#########@########@##@#####@#####@++",
"++##@######@#########@@#######@##@#####@#####@++",
"++##@######@#########@########@##@#####@####@@++",
"@@@@@@@@@@@@@@@@@@@@@@@@@@@@@@@@@@@@@@@@@@@@@@@@",
"++++++++@+++++++++@+++++++@+++++@#@++++@+++@@@++",
"++######@#######+#@######+@####+@@@@#@####@@@#++",
"++######@#########@#######@#####@#@##@####@@@#++",
"++######@#########@#######@#####@#@##@####@@@#++",
"++######@#########@#######@#####@@###@####@@@#++",
"@@@@@@@@@@@@@@@@@@@@@@@@@@@@@@@@@@@@@@@@@@@@@@@@",
"+++++@+++++++@+++++++++@++++++@+++++@+++++@+++++",
"++###@#######@####++###@######@#####@####@@@##++",
"++###@#######@#########@######@#####@#####@@##++",
"++###@#######@#########@######@#####@#####@@##++",
"@@@@@@@@@@@@@@@@@@@@@@@@@@@@@@@@@@@@@@@@@@@@@@@@",
"+++++++@++++++@++++++@+++++++++@###++@##++@+++++",
"++#####@######@######@#######++@#####@####@###++",
"++#####@######@######@#########@#####@####@###++",
"++#####@######@######@#########@#####@####@###++",
"@@@@@@@@@@@@@@@@@@@@@@@@@@@@@@@@@@@@@@@@@@@@@@@@",
"++++++++@+++++++@+++@+++@+++@++++++++++@++++++++",
"++######@#######@+##@###@###@##+#######@######++",
"++######@#######@+##@###@###@##+#######@######++",
"++######@#######@@@@@@@@@@@@@@@@#######@######++",
"++######@#######@+##@+#@@@++@##+#######@######++",
"@@@@@@@@@@@@@@@@@+##@##@@+##@##+@@@@@@@@@@@@@@@@",
"++@++++++++++@++@+##@@@@@@#@@##+++@++++++++++@++",
"++@+#########@##@@@@@@@+#@@@@@@@##@#########+@++",
"++@+#########@@@@+##@@@##@#@@##+@@@#########+@++",
"++@##########@++@+##@+#@@@@#@##+++@##########@++",
"++@##########@##@+##@##@#@##@##+##@##########@++",
"@@@+#########@##@@@@@@@@@@@@@@@@##@#########+@@@",
"++@@@@@@@@@@@@@@@+##@###@###@##+@@@@@@@@@@@@@@++",
"++++@++++@+++@++@+##@###@###@##+++@+++@++++@++++",
"$+++@++++@+++@++@+++@+++@+++@+++++@+++@++++@+++$"};
