/* XPM */
static char * wall_random_xpm[] = {
"48 48 4 1",
" 	c #000000",
".	c #361D23",
"+	c #100029",
"@	c #FFFFFF",
"                                                ",
"                                                ",
"... ....... ....... ....... ..... ...... .......",
"... ....... ....... ....... ..... ...... .......",
"                                              ..",
"........ ........ ........ ...... ........... ..",
"..++++++ ++++++++ +++..+++ +++.++ +++++++++++ ..",
"..++++++ ++++++++ +++++++  ++++++ +++++++++++ ..",
"..++++++ ++++++++ ++++++++ ++++++ ++++++++++.   ",
"..++++++ ++++++++ ++++++++ ++++++  ++++++++++ ..",
"                                              ..",
"..++ ...... ......... ........ .. ..... ..... ..",
"..++ ++++++ +++.+++++ ++++++++ ++ +.+++ +++++   ",
"..++ ++++++ +++++++++ ++++++++ ++ +++++ +++++ ..",
"..++ ++++++ +++++++++  +++++++ ++ +++++ +++++ ..",
"..++ ++++++ +++++++++ ++++++++ ++ +++++ ++++  ..",
"                                                ",
"........ ......... ....... ..... + .... ...   ..",
"..++++++ +++++++.+ ++++++. ++++.    + ++++   +..",
"..++++++ +++++++++ +++++++ +++++ + ++ ++++   +..",
"..++++++ +++++++++ +++++++ +++++ + ++ ++++   +..",
"..++++++ +++++++++ +++++++ +++++  +++ ++++   +..",
"                                                ",
"..... ....... ......... ...... ..... ..... .....",
"..+++ +++++++ ++++..+++ ++++++ +++++ ++++   ++..",
"..+++ +++++++ +++++++++ ++++++ +++++ +++++  ++..",
"..+++ +++++++ +++++++++ ++++++ +++++ +++++  ++..",
"                                                ",
"....... ...... ...... ......... +++.. ++.. .....",
"..+++++ ++++++ ++++++ +++++++.. +++++ ++++ +++..",
"..+++++ ++++++ ++++++ +++++++++ +++++ ++++ +++..",
"..+++++ ++++++ ++++++ +++++++++ +++++ ++++ +++..",
"                                                ",
"........ ....... ... ... ... .......... ........",
"..++++++ +++++++ .++ +++ +++ ++.+++++++ ++++++..",
"..++++++ +++++++ .++ +++ +++ ++.+++++++ ++++++..",
"..++++++ +++++++                +++++++ ++++++..",
"..++++++ +++++++ .++ .+   .. ++.+++++++ ++++++..",
"                 .++ ++  .++ ++.                ",
".. .......... .. .++      +  ++... .......... ..",
".. .+++++++++ ++       .+       ++ +++++++++. ..",
".. .+++++++++    .++   ++ +  ++.   +++++++++. ..",
".. ++++++++++ .. .++ .+    + ++... ++++++++++ ..",
".. ++++++++++ ++ .++ ++ + ++ ++.++ ++++++++++ ..",
"   .+++++++++ ++                ++ +++++++++.   ",
"..               .++ +++ +++ ++.              ..",
".... .... ... .. .++ +++ +++ ++... ... .... ....",
"@... .... ... .. ... ... ... ..... ... .... ...@"};
