/* XPM */
static char * wall_b_xpm[] = {
"48 48 6 1",
" 	c #FFFFFF",
".	c #361D23",
"+	c #000000",
"@	c #100029",
"#	c #443F4F",
"$	c #8F56B3",
" ...+....+...+.....+...+...+...+..+...+....+... ",
"....+....+...+...@@+@@@+@@@+@@.+..+...+....+....",
"..++++++++++++++.@@+@@@+@@@+@@.+++++++++++++++..",
"+++.@@@@@@@@@+@@++++++++++++++++@@+@@@@@@@@@.+++",
"..+@@@@@@@@@@+@@.@@+@@+@+@@+@@.+@@+@@@@@@@@@@+..",
"..+@@@@@@@@@@+...@@+@++++@.+@@.+..+@@@@@@@@@@+..",
"..+.@@@@@@@@@+++.@@++@+@@+++@@.++++@@@@@@@@@.+..",
"..+.@@@@@@@@@+@@+++++++@.+++++++@@+@@@@@@@@@.+..",
"..+..........+...@@++@++++++@@.+..+..........+..",
"++++++++++++++++.@@+@@.++@@+@@.+++++++++++++++++",
"..@@@@@@+@@@@@@@.@@+..+++@.+@@.+@@@@@@@+@@@@@@..",
"..@@@@@@+@@@@@@@++++++++++++++++@@@@@@@+@@@@@@..",
"..@@@@@@+@@@@@@@.@@+@@@+@@@+@@.+@@@@@@@+@@@@@@..",
"..@@@@@@+@@@@@@@.@@+@@@+@@@+@@.+@@@@@@@+@@@@@@..",
"........+..........+...+...+...+.......+........",
"++++++++++++++++++++++++++++++++++++++++++++++++",
"..@@@+@@@@+@@@@@+@@@@@@@@@+@@@@@@+@@@@@@+@@@@@..",
"..@@@+@@@@+@@@@@+@@@@@@@@@+@@@@@@+@@@@@@+@@@@@..",
"..@@@+@@@@+@@@@@+..@@@@@@@+@@@@@@+@@@@@@+@@@@@..",
".....+..@@+..@@@+.........+......+......+.......",
"++++++++++++++++++++++++++++++++++++++++++++++++",
"..@@++@@@@@+@@@@@+@@@@@@+@@@@@@@@@+@@@@@@@+@@@..",
"..@@++@@@@@+@@@@@+@@@@@@+@@@@@@@@@+@@@@@@@+@@@..",
"..@@+++@@@@+@@@@@+@@@@@@+@@@..@@@@+@@@@@@@+@@@..",
".....+.....+.....+......+.........+.......+.....",
"++++++++++++++++++++++++++++++++++++++++++++++++",
"..@+++@@@@+@@@++@@@@@+@@@@@@@+@@@@@@@@@+@@@@@@..",
"..@+++@@@@+@@+@+@@@@@+@@@@@@@+@@@@@@@@@+@@@@@@..",
"..@+++@@@@+@@+@+@@@@@+@@@@@@@+@@@@@@@@@+@@@@@@..",
"..@+++@@@@+@++++.@@@@+.@@@@@@+@.@@@@@@@+@@@@@@..",
"..+++...+....+@+.....+.......+.........+........",
"++++++++++++++++++++++++++++++++++++++++++++++++",
"..++@@@@+@@@@@+@@+@@@@@@@@+@@@@@@@@@+@@@@@@+@@..",
"..+@@@@@+@@@@@+@@+@@@@@@@++@@@@@@@@@+@@@@@@+@@..",
"..+@@@@@+@@@@@+@@+@@@@@@@@+@@@@@@@@@+@@@@@@+@@..",
"+++@@@@@+@@@.@+@@+@@@@@@@@+@@@@@.@@@+@@@@@@+@@..",
"..+.....+.....+..+........+.........+......+@@..",
"..++++++++++++++++++++++++++++++++++++++++++++++",
"..+@@@@@@@@@@++@@@@@@+@@@@@@@@+@@@@@@@@+@@@@@@..",
"+++.@@@@@@@@@@+@@@@@@+@@@@@@@@+@@@@@@@@+@@@@@@..",
"..+@@@@@@@@@@@+@@@@@@++@@@@@@@+@@@@@@@@+@@@@@@..",
"..+@@@@@@@@@@@+@@.@@@+@@@..@@@+@@@@@@@@+@@@@@@..",
"..+...........+......+........+........+........",
"..++++++++++++++++++++++++++++++++++++++++++++++",
".......#......#.....#.......#.......#.......#...",
".......#......#.....#.......#.......#.......#...",
"################################################",
"$$$$$$$$$$$$$$$$$$$$$$$$$$$$$$$$$$$$$$$$$$$$$$$$"};
